G04 #@! TF.FileFunction,Copper,L1,Top,Signal*
%FSLAX46Y46*%
G04 Gerber Fmt 4.6, Leading zero omitted, Abs format (unit mm)*
G04 Created by KiCad (PCBNEW 4.0.6) date 04/17/17 11:48:57*
%MOMM*%
%LPD*%
G01*
G04 APERTURE LIST*
%ADD10C,0.100000*%
%ADD11R,1.700000X1.700000*%
%ADD12O,1.700000X1.700000*%
%ADD13C,1.524000*%
%ADD14O,2.032000X1.727200*%
%ADD15O,1.727200X2.032000*%
%ADD16C,0.600000*%
%ADD17C,0.781000*%
%ADD18C,0.250000*%
%ADD19C,0.381000*%
%ADD20C,0.254000*%
G04 APERTURE END LIST*
D10*
D11*
X163830000Y-142240000D03*
D12*
X163830000Y-139700000D03*
X163830000Y-137160000D03*
D11*
X163830000Y-111760000D03*
D12*
X163830000Y-109220000D03*
X163830000Y-106680000D03*
D11*
X163830000Y-96520000D03*
D12*
X163830000Y-93980000D03*
X163830000Y-91440000D03*
D11*
X163830000Y-127000000D03*
D12*
X163830000Y-124460000D03*
X163830000Y-121920000D03*
D11*
X163830000Y-81280000D03*
D12*
X163830000Y-78740000D03*
X163830000Y-76200000D03*
D13*
X215900000Y-85090000D03*
X215900000Y-87630000D03*
X215900000Y-90170000D03*
X215900000Y-80010000D03*
X215900000Y-77470000D03*
X215900000Y-74930000D03*
X198120000Y-90170000D03*
X198120000Y-87630000D03*
X198120000Y-85090000D03*
X198120000Y-80010000D03*
X198120000Y-77470000D03*
X198120000Y-74930000D03*
D14*
X251612400Y-116687600D03*
X251612400Y-114147600D03*
X251612400Y-111607600D03*
X251612400Y-109067600D03*
X231292400Y-106527600D03*
X251612400Y-106527600D03*
X231292400Y-103987600D03*
X251612400Y-103987600D03*
X231292400Y-101447600D03*
X251612400Y-101447600D03*
X231292400Y-98907600D03*
X251612400Y-98907600D03*
X231292400Y-96367600D03*
X251612400Y-96367600D03*
X231292400Y-93827600D03*
X251612400Y-93827600D03*
X231292400Y-91287600D03*
X251612400Y-91287600D03*
X231292400Y-88747600D03*
X251612400Y-88747600D03*
X231292400Y-86207600D03*
X251612400Y-86207600D03*
X231292400Y-83667600D03*
X251612400Y-83667600D03*
X231292400Y-81127600D03*
X251612400Y-81127600D03*
X231292400Y-78587600D03*
X251612400Y-78587600D03*
X215900000Y-107950000D03*
X215900000Y-110490000D03*
X215900000Y-113030000D03*
X215900000Y-102870000D03*
X215900000Y-100330000D03*
X215900000Y-97790000D03*
X198120000Y-113030000D03*
X198120000Y-110490000D03*
X198120000Y-107950000D03*
X198120000Y-102870000D03*
X198120000Y-100330000D03*
X198120000Y-97790000D03*
X198120000Y-105410000D03*
X215900000Y-105410000D03*
X215900000Y-95250000D03*
X198120000Y-95250000D03*
D13*
X186690000Y-111760000D03*
X186690000Y-109220000D03*
X186690000Y-106680000D03*
X168910000Y-111760000D03*
X168910000Y-109220000D03*
X168910000Y-106680000D03*
X186690000Y-96520000D03*
X186690000Y-93980000D03*
X186690000Y-91440000D03*
X168910000Y-96520000D03*
X168910000Y-93980000D03*
X168910000Y-91440000D03*
X186690000Y-127000000D03*
X186690000Y-124460000D03*
X186690000Y-121920000D03*
X168910000Y-127000000D03*
X168910000Y-124460000D03*
X168910000Y-121920000D03*
X186690000Y-81280000D03*
X186690000Y-78740000D03*
X186690000Y-76200000D03*
X168910000Y-81280000D03*
X168910000Y-78740000D03*
X168910000Y-76200000D03*
D15*
X200660000Y-148590000D03*
X198120000Y-148590000D03*
X195580000Y-148590000D03*
X203200000Y-146050000D03*
X203200000Y-143510000D03*
X200660000Y-140970000D03*
X198120000Y-140970000D03*
X195580000Y-140970000D03*
D14*
X215900000Y-129540000D03*
X215900000Y-132080000D03*
X215900000Y-134620000D03*
X215900000Y-124460000D03*
X215900000Y-121920000D03*
X215900000Y-119380000D03*
X198120000Y-134620000D03*
X198120000Y-132080000D03*
X198120000Y-129540000D03*
X198120000Y-124460000D03*
X198120000Y-121920000D03*
X198120000Y-119380000D03*
X198120000Y-127000000D03*
X215900000Y-127000000D03*
X215900000Y-116840000D03*
X198120000Y-116840000D03*
D13*
X186690000Y-142240000D03*
X186690000Y-139700000D03*
X186690000Y-137160000D03*
X168910000Y-142240000D03*
X168910000Y-139700000D03*
X168910000Y-137160000D03*
D11*
X251460000Y-127000000D03*
D12*
X251460000Y-129540000D03*
X251460000Y-132080000D03*
X251460000Y-134620000D03*
X251460000Y-137160000D03*
X251460000Y-139700000D03*
X251460000Y-142240000D03*
X251460000Y-144780000D03*
X251460000Y-147320000D03*
D11*
X221996000Y-139700000D03*
D12*
X221996000Y-137160000D03*
D11*
X221996000Y-128778000D03*
D12*
X221996000Y-131318000D03*
D14*
X243840000Y-139954000D03*
X243840000Y-137414000D03*
X208280000Y-137414000D03*
X208280000Y-139954000D03*
X213360000Y-134874000D03*
X213360000Y-129794000D03*
X238760000Y-117094000D03*
X236220000Y-117094000D03*
D16*
X240665000Y-113030000D03*
X242570000Y-111125000D03*
X243205000Y-115570000D03*
X245110000Y-113665000D03*
X212725000Y-118110000D03*
X212725000Y-120650000D03*
X218440000Y-92075000D03*
X245872000Y-97790000D03*
X229407999Y-117475000D03*
X244856000Y-97028000D03*
X240792000Y-87122000D03*
X228346000Y-148590000D03*
X242062000Y-84582000D03*
X227076000Y-148590000D03*
X213360000Y-101600000D03*
X212725000Y-100965000D03*
D17*
X168910000Y-142240000D02*
X163830000Y-142240000D01*
X163830000Y-139700000D02*
X168910000Y-139700000D01*
X168910000Y-111760000D02*
X163830000Y-111760000D01*
X163830000Y-109220000D02*
X168910000Y-109220000D01*
X163830000Y-96520000D02*
X168910000Y-96520000D01*
X168910000Y-93980000D02*
X163830000Y-93980000D01*
X163830000Y-127000000D02*
X168910000Y-127000000D01*
X168910000Y-124460000D02*
X163830000Y-124460000D01*
X168910000Y-81280000D02*
X163830000Y-81280000D01*
X163830000Y-78740000D02*
X168910000Y-78740000D01*
D18*
X242570000Y-111125000D02*
X240665000Y-113030000D01*
X243205000Y-115570000D02*
X245110000Y-113665000D01*
X249707400Y-109067600D02*
X245110000Y-113665000D01*
X251612400Y-109067600D02*
X249707400Y-109067600D01*
X216977630Y-85090000D02*
X224282000Y-85090000D01*
X215900000Y-85090000D02*
X216977630Y-85090000D01*
X212725000Y-118110000D02*
X213995000Y-119380000D01*
X215900000Y-119380000D02*
X213995000Y-119380000D01*
X213995000Y-119380000D02*
X212725000Y-120650000D01*
X216661999Y-88391999D02*
X215900000Y-87630000D01*
X217805000Y-89535000D02*
X216661999Y-88391999D01*
X217805000Y-92365004D02*
X217805000Y-89535000D01*
X219267596Y-93827600D02*
X217805000Y-92365004D01*
X231292400Y-93827600D02*
X219267596Y-93827600D01*
X227969000Y-93345000D02*
X219710000Y-93345000D01*
X219710000Y-93345000D02*
X218440000Y-92075000D01*
X231292400Y-91287600D02*
X230026400Y-91287600D01*
X230026400Y-91287600D02*
X227969000Y-93345000D01*
X231140000Y-91440000D02*
X231292400Y-91287600D01*
D19*
X211582000Y-135890000D02*
X212572600Y-136880600D01*
X212572600Y-136880600D02*
X214884000Y-136880600D01*
X204470000Y-137160000D02*
X205740000Y-135890000D01*
X205740000Y-135890000D02*
X211582000Y-135890000D01*
X215900000Y-134620000D02*
X215900000Y-135864600D01*
X215900000Y-135864600D02*
X214884000Y-136880600D01*
X204470000Y-137160000D02*
X204470000Y-139700000D01*
X204470000Y-139700000D02*
X207010000Y-142240000D01*
X250229000Y-127000000D02*
X251460000Y-127000000D01*
X207010000Y-142240000D02*
X234989000Y-142240000D01*
X234989000Y-142240000D02*
X250229000Y-127000000D01*
X195580000Y-137160000D02*
X204470000Y-137160000D01*
X187960000Y-144780000D02*
X195580000Y-137160000D01*
X182880000Y-144780000D02*
X187960000Y-144780000D01*
X175260000Y-137160000D02*
X182880000Y-144780000D01*
X168910000Y-137160000D02*
X175260000Y-137160000D01*
X251612400Y-114147600D02*
X250215400Y-114147600D01*
X250215400Y-114147600D02*
X248920000Y-115443000D01*
X248920000Y-115443000D02*
X248920000Y-125730000D01*
X248920000Y-125730000D02*
X250190000Y-127000000D01*
X250190000Y-127000000D02*
X251460000Y-127000000D01*
D17*
X216052400Y-134620000D02*
X215900000Y-134620000D01*
D18*
X215900000Y-77470000D02*
X220980000Y-72390000D01*
X233426000Y-72390000D02*
X245872000Y-84836000D01*
X220980000Y-72390000D02*
X233426000Y-72390000D01*
X245872000Y-84836000D02*
X245872000Y-97790000D01*
X215900000Y-77470000D02*
X216661999Y-76708001D01*
X215900000Y-74930000D02*
X218948000Y-71882000D01*
X251460000Y-106527600D02*
X251612400Y-106527600D01*
X218948000Y-71882000D02*
X234188000Y-71882000D01*
X234188000Y-71882000D02*
X246888000Y-84582000D01*
X246888000Y-84582000D02*
X246888000Y-101955600D01*
X246888000Y-101955600D02*
X251460000Y-106527600D01*
D17*
X218948000Y-127762000D02*
X229235000Y-117475000D01*
X229235000Y-117475000D02*
X229407999Y-117475000D01*
X214884000Y-139954000D02*
X218948000Y-135890000D01*
X218948000Y-135890000D02*
X218948000Y-127762000D01*
X208534000Y-139954000D02*
X214884000Y-139954000D01*
X231140000Y-101447600D02*
X231292400Y-101447600D01*
D18*
X215900000Y-129540000D02*
X216052400Y-129540000D01*
X216052400Y-129540000D02*
X244856000Y-100736400D01*
X244856000Y-100736400D02*
X244856000Y-97028000D01*
X215900000Y-121920000D02*
X222250000Y-121920000D01*
X222250000Y-121920000D02*
X240792000Y-103378000D01*
X240792000Y-103378000D02*
X240792000Y-98861348D01*
X240792000Y-98861348D02*
X240792000Y-87122000D01*
X228346000Y-149352000D02*
X226822000Y-150876000D01*
X228346000Y-149352000D02*
X228346000Y-148590000D01*
X199140000Y-150876000D02*
X226822000Y-150876000D01*
X198120000Y-149856000D02*
X199140000Y-150876000D01*
X198120000Y-148590000D02*
X198120000Y-149856000D01*
X242062000Y-85006264D02*
X242062000Y-84582000D01*
X220346410Y-124460000D02*
X242062000Y-102744410D01*
X215900000Y-124460000D02*
X220346410Y-124460000D01*
X242062000Y-102744410D02*
X242062000Y-85006264D01*
X215900000Y-124460000D02*
X216052400Y-124460000D01*
X200660000Y-148590000D02*
X227076000Y-148590000D01*
D17*
X203200000Y-146050000D02*
X239642600Y-146050000D01*
X239642600Y-146050000D02*
X244094000Y-141598600D01*
X244094000Y-141598600D02*
X244094000Y-139954000D01*
X204844600Y-143510000D02*
X203200000Y-143510000D01*
X243941600Y-137414000D02*
X237845600Y-143510000D01*
X244094000Y-137414000D02*
X243941600Y-137414000D01*
X237845600Y-143510000D02*
X204844600Y-143510000D01*
D19*
X197967600Y-116840000D02*
X198120000Y-116840000D01*
D18*
X198120000Y-113030000D02*
X196854000Y-113030000D01*
X196854000Y-113030000D02*
X194822001Y-110998001D01*
X194822001Y-110998001D02*
X188213999Y-110998001D01*
X188213999Y-110998001D02*
X188214000Y-110998000D01*
X186690000Y-111760000D02*
X187451999Y-110998001D01*
X187451999Y-110998001D02*
X188213999Y-110998001D01*
X198120000Y-110490000D02*
X187960000Y-110490000D01*
X187960000Y-110490000D02*
X186690000Y-109220000D01*
X198120000Y-107950000D02*
X186690000Y-96520000D01*
X186690000Y-81280000D02*
X186690000Y-86512400D01*
X186690000Y-86512400D02*
X197967600Y-97790000D01*
X197967600Y-97790000D02*
X198120000Y-97790000D01*
X198120000Y-105410000D02*
X186690000Y-93980000D01*
X187960000Y-86356000D02*
X187960000Y-80010000D01*
X187960000Y-80010000D02*
X186690000Y-78740000D01*
X198120000Y-95250000D02*
X196854000Y-95250000D01*
X196854000Y-95250000D02*
X187960000Y-86356000D01*
X214634000Y-101604000D02*
X215900000Y-102870000D01*
X198120000Y-90170000D02*
X203200000Y-90170000D01*
X215747600Y-102870000D02*
X215900000Y-102870000D01*
X203200000Y-90170000D02*
X214634000Y-101604000D01*
X215900000Y-100330000D02*
X214634000Y-100330000D01*
X214634000Y-100330000D02*
X201934000Y-87630000D01*
X201934000Y-87630000D02*
X199197630Y-87630000D01*
X199197630Y-87630000D02*
X198120000Y-87630000D01*
X215900000Y-107950000D02*
X215747600Y-107950000D01*
X215747600Y-107950000D02*
X213360000Y-105562400D01*
X213360000Y-105562400D02*
X213360000Y-105410000D01*
X213360000Y-105410000D02*
X213360000Y-101600000D01*
D19*
X187960000Y-142240000D02*
X186690000Y-142240000D01*
X195580000Y-134620000D02*
X187960000Y-142240000D01*
X198120000Y-134620000D02*
X195580000Y-134620000D01*
X187960000Y-139700000D02*
X195580000Y-132080000D01*
X195580000Y-132080000D02*
X198120000Y-132080000D01*
X186690000Y-139700000D02*
X187960000Y-139700000D01*
D18*
X215900000Y-110490000D02*
X215747600Y-110490000D01*
X215747600Y-110490000D02*
X212725000Y-107467400D01*
X212725000Y-107467400D02*
X212725000Y-100965000D01*
D19*
X221996000Y-128778000D02*
X221996000Y-126492000D01*
X221996000Y-126492000D02*
X231394000Y-117094000D01*
X231394000Y-117094000D02*
X236220000Y-117094000D01*
X231140000Y-118618000D02*
X237083600Y-118618000D01*
X237083600Y-118618000D02*
X238607600Y-117094000D01*
X238607600Y-117094000D02*
X238760000Y-117094000D01*
X224282000Y-125476000D02*
X231140000Y-118618000D01*
X224282000Y-130234081D02*
X224282000Y-125476000D01*
X221996000Y-131318000D02*
X223198081Y-131318000D01*
X223198081Y-131318000D02*
X224282000Y-130234081D01*
D20*
G36*
X245112000Y-85150802D02*
X245112000Y-96121897D01*
X245042799Y-96093162D01*
X244670833Y-96092838D01*
X244327057Y-96234883D01*
X244063808Y-96497673D01*
X243921162Y-96841201D01*
X243920838Y-97213167D01*
X244062883Y-97556943D01*
X244096000Y-97590118D01*
X244096000Y-100421598D01*
X242822000Y-101695598D01*
X242822000Y-85144463D01*
X242854192Y-85112327D01*
X242996838Y-84768799D01*
X242997162Y-84396833D01*
X242855117Y-84053057D01*
X242592327Y-83789808D01*
X242248799Y-83647162D01*
X241876833Y-83646838D01*
X241533057Y-83788883D01*
X241269808Y-84051673D01*
X241127162Y-84395201D01*
X241126838Y-84767167D01*
X241268883Y-85110943D01*
X241302000Y-85144118D01*
X241302000Y-86321367D01*
X240978799Y-86187162D01*
X240606833Y-86186838D01*
X240263057Y-86328883D01*
X239999808Y-86591673D01*
X239857162Y-86935201D01*
X239856838Y-87307167D01*
X239998883Y-87650943D01*
X240032000Y-87684118D01*
X240032000Y-103063198D01*
X221935198Y-121160000D01*
X217344648Y-121160000D01*
X217144415Y-120860330D01*
X216834931Y-120653539D01*
X217250732Y-120282036D01*
X217504709Y-119754791D01*
X217507358Y-119739026D01*
X217386217Y-119507000D01*
X216027000Y-119507000D01*
X216027000Y-119527000D01*
X215773000Y-119527000D01*
X215773000Y-119507000D01*
X214413783Y-119507000D01*
X214292642Y-119739026D01*
X214295291Y-119754791D01*
X214549268Y-120282036D01*
X214965069Y-120653539D01*
X214655585Y-120860330D01*
X214330729Y-121346511D01*
X214216655Y-121920000D01*
X214330729Y-122493489D01*
X214655585Y-122979670D01*
X214970366Y-123190000D01*
X214655585Y-123400330D01*
X214330729Y-123886511D01*
X214216655Y-124460000D01*
X214330729Y-125033489D01*
X214655585Y-125519670D01*
X214970366Y-125730000D01*
X214655585Y-125940330D01*
X214330729Y-126426511D01*
X214216655Y-127000000D01*
X214330729Y-127573489D01*
X214655585Y-128059670D01*
X214970366Y-128270000D01*
X214655585Y-128480330D01*
X214522458Y-128679568D01*
X214118234Y-128409474D01*
X213544745Y-128295400D01*
X213175255Y-128295400D01*
X212601766Y-128409474D01*
X212115585Y-128734330D01*
X211790729Y-129220511D01*
X211676655Y-129794000D01*
X211790729Y-130367489D01*
X212115585Y-130853670D01*
X212601766Y-131178526D01*
X213175255Y-131292600D01*
X213544745Y-131292600D01*
X214118234Y-131178526D01*
X214604415Y-130853670D01*
X214737542Y-130654432D01*
X214970366Y-130810000D01*
X214655585Y-131020330D01*
X214330729Y-131506511D01*
X214216655Y-132080000D01*
X214330729Y-132653489D01*
X214655585Y-133139670D01*
X214970366Y-133350000D01*
X214655585Y-133560330D01*
X214522458Y-133759568D01*
X214118234Y-133489474D01*
X213544745Y-133375400D01*
X213175255Y-133375400D01*
X212601766Y-133489474D01*
X212115585Y-133814330D01*
X211790729Y-134300511D01*
X211676655Y-134874000D01*
X211720008Y-135091951D01*
X211582000Y-135064500D01*
X205740000Y-135064500D01*
X205424094Y-135127337D01*
X205332880Y-135188285D01*
X205156283Y-135306283D01*
X205156281Y-135306286D01*
X204128066Y-136334500D01*
X195580000Y-136334500D01*
X195264094Y-136397337D01*
X195187798Y-136448317D01*
X194996283Y-136576283D01*
X194996281Y-136576286D01*
X187618066Y-143954500D01*
X183221933Y-143954500D01*
X176219736Y-136952302D01*
X185280856Y-136952302D01*
X185308638Y-137507368D01*
X185467603Y-137891143D01*
X185709787Y-137960608D01*
X186510395Y-137160000D01*
X186869605Y-137160000D01*
X187670213Y-137960608D01*
X187912397Y-137891143D01*
X188099144Y-137367698D01*
X188071362Y-136812632D01*
X187912397Y-136428857D01*
X187670213Y-136359392D01*
X186869605Y-137160000D01*
X186510395Y-137160000D01*
X185709787Y-136359392D01*
X185467603Y-136428857D01*
X185280856Y-136952302D01*
X176219736Y-136952302D01*
X175843717Y-136576283D01*
X175575906Y-136397337D01*
X175260000Y-136334500D01*
X170059874Y-136334500D01*
X169905432Y-136179787D01*
X185889392Y-136179787D01*
X186690000Y-136980395D01*
X187490608Y-136179787D01*
X187421143Y-135937603D01*
X186897698Y-135750856D01*
X186342632Y-135778638D01*
X185958857Y-135937603D01*
X185889392Y-136179787D01*
X169905432Y-136179787D01*
X169702370Y-135976371D01*
X169189100Y-135763243D01*
X168633339Y-135762758D01*
X168119697Y-135974990D01*
X167726371Y-136367630D01*
X167513243Y-136880900D01*
X167512758Y-137436661D01*
X167724990Y-137950303D01*
X168117630Y-138343629D01*
X168325512Y-138429949D01*
X168119697Y-138514990D01*
X167959908Y-138674500D01*
X164925553Y-138674500D01*
X164909147Y-138649946D01*
X164579974Y-138430000D01*
X164909147Y-138210054D01*
X165231054Y-137728285D01*
X165344093Y-137160000D01*
X165231054Y-136591715D01*
X164909147Y-136109946D01*
X164427378Y-135788039D01*
X163859093Y-135675000D01*
X163800907Y-135675000D01*
X163232622Y-135788039D01*
X162750853Y-136109946D01*
X162428946Y-136591715D01*
X162315907Y-137160000D01*
X162428946Y-137728285D01*
X162750853Y-138210054D01*
X163080026Y-138430000D01*
X162750853Y-138649946D01*
X162428946Y-139131715D01*
X162315907Y-139700000D01*
X162428946Y-140268285D01*
X162750853Y-140750054D01*
X162792452Y-140777850D01*
X162744683Y-140786838D01*
X162528559Y-140925910D01*
X162383569Y-141138110D01*
X162332560Y-141390000D01*
X162332560Y-143090000D01*
X162376838Y-143325317D01*
X162515910Y-143541441D01*
X162728110Y-143686431D01*
X162980000Y-143737440D01*
X164680000Y-143737440D01*
X164915317Y-143693162D01*
X165131441Y-143554090D01*
X165276431Y-143341890D01*
X165291900Y-143265500D01*
X167959777Y-143265500D01*
X168117630Y-143423629D01*
X168630900Y-143636757D01*
X169186661Y-143637242D01*
X169700303Y-143425010D01*
X170093629Y-143032370D01*
X170306757Y-142519100D01*
X170307242Y-141963339D01*
X170095010Y-141449697D01*
X169702370Y-141056371D01*
X169494488Y-140970051D01*
X169700303Y-140885010D01*
X170093629Y-140492370D01*
X170306757Y-139979100D01*
X170307242Y-139423339D01*
X170095010Y-138909697D01*
X169702370Y-138516371D01*
X169494488Y-138430051D01*
X169700303Y-138345010D01*
X170060441Y-137985500D01*
X174918066Y-137985500D01*
X182296281Y-145363714D01*
X182296283Y-145363717D01*
X182456824Y-145470987D01*
X182564094Y-145542663D01*
X182880000Y-145605500D01*
X187960000Y-145605500D01*
X188275906Y-145542663D01*
X188543717Y-145363717D01*
X193122178Y-140785255D01*
X194081400Y-140785255D01*
X194081400Y-141154745D01*
X194195474Y-141728234D01*
X194520330Y-142214415D01*
X195006511Y-142539271D01*
X195580000Y-142653345D01*
X196153489Y-142539271D01*
X196639670Y-142214415D01*
X196846461Y-141904931D01*
X197217964Y-142320732D01*
X197745209Y-142574709D01*
X197760974Y-142577358D01*
X197993000Y-142456217D01*
X197993000Y-141097000D01*
X197973000Y-141097000D01*
X197973000Y-140843000D01*
X197993000Y-140843000D01*
X197993000Y-139483783D01*
X198247000Y-139483783D01*
X198247000Y-140843000D01*
X198267000Y-140843000D01*
X198267000Y-141097000D01*
X198247000Y-141097000D01*
X198247000Y-142456217D01*
X198479026Y-142577358D01*
X198494791Y-142574709D01*
X199022036Y-142320732D01*
X199393539Y-141904931D01*
X199600330Y-142214415D01*
X200086511Y-142539271D01*
X200660000Y-142653345D01*
X201233489Y-142539271D01*
X201719670Y-142214415D01*
X202044526Y-141728234D01*
X202158600Y-141154745D01*
X202158600Y-140785255D01*
X202044526Y-140211766D01*
X201719670Y-139725585D01*
X201233489Y-139400729D01*
X200660000Y-139286655D01*
X200086511Y-139400729D01*
X199600330Y-139725585D01*
X199393539Y-140035069D01*
X199022036Y-139619268D01*
X198494791Y-139365291D01*
X198479026Y-139362642D01*
X198247000Y-139483783D01*
X197993000Y-139483783D01*
X197760974Y-139362642D01*
X197745209Y-139365291D01*
X197217964Y-139619268D01*
X196846461Y-140035069D01*
X196639670Y-139725585D01*
X196153489Y-139400729D01*
X195580000Y-139286655D01*
X195006511Y-139400729D01*
X194520330Y-139725585D01*
X194195474Y-140211766D01*
X194081400Y-140785255D01*
X193122178Y-140785255D01*
X195921933Y-137985500D01*
X203644500Y-137985500D01*
X203644500Y-139700000D01*
X203707337Y-140015906D01*
X203886283Y-140283717D01*
X206087067Y-142484500D01*
X204405944Y-142484500D01*
X204259670Y-142265585D01*
X203773489Y-141940729D01*
X203200000Y-141826655D01*
X202626511Y-141940729D01*
X202140330Y-142265585D01*
X201815474Y-142751766D01*
X201701400Y-143325255D01*
X201701400Y-143694745D01*
X201815474Y-144268234D01*
X202140330Y-144754415D01*
X202178621Y-144780000D01*
X202140330Y-144805585D01*
X201815474Y-145291766D01*
X201701400Y-145865255D01*
X201701400Y-146234745D01*
X201815474Y-146808234D01*
X202140330Y-147294415D01*
X202626511Y-147619271D01*
X203200000Y-147733345D01*
X203773489Y-147619271D01*
X204259670Y-147294415D01*
X204405944Y-147075500D01*
X239642600Y-147075500D01*
X240035042Y-146997438D01*
X240367738Y-146775138D01*
X242362876Y-144780000D01*
X249945907Y-144780000D01*
X250058946Y-145348285D01*
X250380853Y-145830054D01*
X250710026Y-146050000D01*
X250380853Y-146269946D01*
X250058946Y-146751715D01*
X249945907Y-147320000D01*
X250058946Y-147888285D01*
X250380853Y-148370054D01*
X250862622Y-148691961D01*
X251430907Y-148805000D01*
X251489093Y-148805000D01*
X252057378Y-148691961D01*
X252539147Y-148370054D01*
X252861054Y-147888285D01*
X252974093Y-147320000D01*
X252861054Y-146751715D01*
X252539147Y-146269946D01*
X252209974Y-146050000D01*
X252539147Y-145830054D01*
X252861054Y-145348285D01*
X252974093Y-144780000D01*
X252861054Y-144211715D01*
X252539147Y-143729946D01*
X252198447Y-143502298D01*
X252341358Y-143435183D01*
X252731645Y-143006924D01*
X252901476Y-142596890D01*
X252780155Y-142367000D01*
X251587000Y-142367000D01*
X251587000Y-142387000D01*
X251333000Y-142387000D01*
X251333000Y-142367000D01*
X250139845Y-142367000D01*
X250018524Y-142596890D01*
X250188355Y-143006924D01*
X250578642Y-143435183D01*
X250721553Y-143502298D01*
X250380853Y-143729946D01*
X250058946Y-144211715D01*
X249945907Y-144780000D01*
X242362876Y-144780000D01*
X244819138Y-142323738D01*
X245041438Y-141991042D01*
X245119500Y-141598600D01*
X245119500Y-140961162D01*
X245409271Y-140527489D01*
X245523345Y-139954000D01*
X245409271Y-139380511D01*
X245084415Y-138894330D01*
X244769634Y-138684000D01*
X245084415Y-138473670D01*
X245409271Y-137987489D01*
X245523345Y-137414000D01*
X245409271Y-136840511D01*
X245084415Y-136354330D01*
X244598234Y-136029474D01*
X244024745Y-135915400D01*
X243655255Y-135915400D01*
X243081766Y-136029474D01*
X242595585Y-136354330D01*
X242270729Y-136840511D01*
X242156655Y-137414000D01*
X242212180Y-137693144D01*
X237420824Y-142484500D01*
X235911934Y-142484500D01*
X250125974Y-128270459D01*
X250145910Y-128301441D01*
X250358110Y-128446431D01*
X250425541Y-128460086D01*
X250380853Y-128489946D01*
X250058946Y-128971715D01*
X249945907Y-129540000D01*
X250058946Y-130108285D01*
X250380853Y-130590054D01*
X250710026Y-130810000D01*
X250380853Y-131029946D01*
X250058946Y-131511715D01*
X249945907Y-132080000D01*
X250058946Y-132648285D01*
X250380853Y-133130054D01*
X250710026Y-133350000D01*
X250380853Y-133569946D01*
X250058946Y-134051715D01*
X249945907Y-134620000D01*
X250058946Y-135188285D01*
X250380853Y-135670054D01*
X250710026Y-135890000D01*
X250380853Y-136109946D01*
X250058946Y-136591715D01*
X249945907Y-137160000D01*
X250058946Y-137728285D01*
X250380853Y-138210054D01*
X250710026Y-138430000D01*
X250380853Y-138649946D01*
X250058946Y-139131715D01*
X249945907Y-139700000D01*
X250058946Y-140268285D01*
X250380853Y-140750054D01*
X250721553Y-140977702D01*
X250578642Y-141044817D01*
X250188355Y-141473076D01*
X250018524Y-141883110D01*
X250139845Y-142113000D01*
X251333000Y-142113000D01*
X251333000Y-142093000D01*
X251587000Y-142093000D01*
X251587000Y-142113000D01*
X252780155Y-142113000D01*
X252901476Y-141883110D01*
X252731645Y-141473076D01*
X252341358Y-141044817D01*
X252198447Y-140977702D01*
X252539147Y-140750054D01*
X252861054Y-140268285D01*
X252974093Y-139700000D01*
X252861054Y-139131715D01*
X252539147Y-138649946D01*
X252209974Y-138430000D01*
X252539147Y-138210054D01*
X252861054Y-137728285D01*
X252974093Y-137160000D01*
X252861054Y-136591715D01*
X252539147Y-136109946D01*
X252209974Y-135890000D01*
X252539147Y-135670054D01*
X252861054Y-135188285D01*
X252974093Y-134620000D01*
X252861054Y-134051715D01*
X252539147Y-133569946D01*
X252209974Y-133350000D01*
X252539147Y-133130054D01*
X252861054Y-132648285D01*
X252974093Y-132080000D01*
X252861054Y-131511715D01*
X252539147Y-131029946D01*
X252209974Y-130810000D01*
X252539147Y-130590054D01*
X252861054Y-130108285D01*
X252974093Y-129540000D01*
X252861054Y-128971715D01*
X252539147Y-128489946D01*
X252497548Y-128462150D01*
X252545317Y-128453162D01*
X252761441Y-128314090D01*
X252906431Y-128101890D01*
X252957440Y-127850000D01*
X252957440Y-126150000D01*
X252913162Y-125914683D01*
X252774090Y-125698559D01*
X252561890Y-125553569D01*
X252310000Y-125502560D01*
X250610000Y-125502560D01*
X250374683Y-125546838D01*
X250158559Y-125685910D01*
X250111791Y-125754357D01*
X249745500Y-125388066D01*
X249745500Y-115784934D01*
X250350032Y-115180401D01*
X250367985Y-115207270D01*
X250682766Y-115417600D01*
X250367985Y-115627930D01*
X250043129Y-116114111D01*
X249929055Y-116687600D01*
X250043129Y-117261089D01*
X250367985Y-117747270D01*
X250854166Y-118072126D01*
X251427655Y-118186200D01*
X251797145Y-118186200D01*
X252370634Y-118072126D01*
X252856815Y-117747270D01*
X253181671Y-117261089D01*
X253290000Y-116716482D01*
X253290000Y-151690000D01*
X158190000Y-151690000D01*
X158190000Y-148405255D01*
X194081400Y-148405255D01*
X194081400Y-148774745D01*
X194195474Y-149348234D01*
X194520330Y-149834415D01*
X195006511Y-150159271D01*
X195580000Y-150273345D01*
X196153489Y-150159271D01*
X196639670Y-149834415D01*
X196850000Y-149519634D01*
X197060330Y-149834415D01*
X197400983Y-150062032D01*
X197417852Y-150146839D01*
X197582599Y-150393401D01*
X198602599Y-151413401D01*
X198849161Y-151578148D01*
X199140000Y-151636000D01*
X226822000Y-151636000D01*
X227112839Y-151578148D01*
X227359401Y-151413401D01*
X228883401Y-149889401D01*
X229048148Y-149642840D01*
X229063599Y-149565161D01*
X229106000Y-149352000D01*
X229106000Y-149152463D01*
X229138192Y-149120327D01*
X229280838Y-148776799D01*
X229281162Y-148404833D01*
X229139117Y-148061057D01*
X228876327Y-147797808D01*
X228532799Y-147655162D01*
X228160833Y-147654838D01*
X227817057Y-147796883D01*
X227711046Y-147902710D01*
X227606327Y-147797808D01*
X227262799Y-147655162D01*
X226890833Y-147654838D01*
X226547057Y-147796883D01*
X226513882Y-147830000D01*
X202043346Y-147830000D01*
X201719670Y-147345585D01*
X201233489Y-147020729D01*
X200660000Y-146906655D01*
X200086511Y-147020729D01*
X199600330Y-147345585D01*
X199390000Y-147660366D01*
X199179670Y-147345585D01*
X198693489Y-147020729D01*
X198120000Y-146906655D01*
X197546511Y-147020729D01*
X197060330Y-147345585D01*
X196850000Y-147660366D01*
X196639670Y-147345585D01*
X196153489Y-147020729D01*
X195580000Y-146906655D01*
X195006511Y-147020729D01*
X194520330Y-147345585D01*
X194195474Y-147831766D01*
X194081400Y-148405255D01*
X158190000Y-148405255D01*
X158190000Y-132207000D01*
X194285567Y-132207000D01*
X187729067Y-138763499D01*
X187482370Y-138516371D01*
X187290273Y-138436605D01*
X187421143Y-138382397D01*
X187490608Y-138140213D01*
X186690000Y-137339605D01*
X185889392Y-138140213D01*
X185958857Y-138382397D01*
X186099318Y-138432509D01*
X185899697Y-138514990D01*
X185506371Y-138907630D01*
X185293243Y-139420900D01*
X185292758Y-139976661D01*
X185504990Y-140490303D01*
X185897630Y-140883629D01*
X186105512Y-140969949D01*
X185899697Y-141054990D01*
X185506371Y-141447630D01*
X185293243Y-141960900D01*
X185292758Y-142516661D01*
X185504990Y-143030303D01*
X185897630Y-143423629D01*
X186410900Y-143636757D01*
X186966661Y-143637242D01*
X187480303Y-143425010D01*
X187840441Y-143065500D01*
X187960000Y-143065500D01*
X188275906Y-143002663D01*
X188543717Y-142823717D01*
X195921933Y-135445500D01*
X196719117Y-135445500D01*
X196875585Y-135679670D01*
X197361766Y-136004526D01*
X197935255Y-136118600D01*
X198304745Y-136118600D01*
X198878234Y-136004526D01*
X199364415Y-135679670D01*
X199689271Y-135193489D01*
X199803345Y-134620000D01*
X199689271Y-134046511D01*
X199364415Y-133560330D01*
X199049634Y-133350000D01*
X199364415Y-133139670D01*
X199689271Y-132653489D01*
X199803345Y-132080000D01*
X199689271Y-131506511D01*
X199364415Y-131020330D01*
X199049634Y-130810000D01*
X199364415Y-130599670D01*
X199689271Y-130113489D01*
X199803345Y-129540000D01*
X199689271Y-128966511D01*
X199364415Y-128480330D01*
X199049634Y-128270000D01*
X199364415Y-128059670D01*
X199689271Y-127573489D01*
X199803345Y-127000000D01*
X199689271Y-126426511D01*
X199364415Y-125940330D01*
X199049634Y-125730000D01*
X199364415Y-125519670D01*
X199689271Y-125033489D01*
X199803345Y-124460000D01*
X199689271Y-123886511D01*
X199364415Y-123400330D01*
X199049634Y-123190000D01*
X199364415Y-122979670D01*
X199689271Y-122493489D01*
X199803345Y-121920000D01*
X199689271Y-121346511D01*
X199364415Y-120860330D01*
X199049634Y-120650000D01*
X199364415Y-120439670D01*
X199689271Y-119953489D01*
X199803345Y-119380000D01*
X199689271Y-118806511D01*
X199364415Y-118320330D01*
X199049634Y-118110000D01*
X199364415Y-117899670D01*
X199689271Y-117413489D01*
X199803345Y-116840000D01*
X199689271Y-116266511D01*
X199364415Y-115780330D01*
X199239703Y-115697000D01*
X214780297Y-115697000D01*
X214655585Y-115780330D01*
X214330729Y-116266511D01*
X214216655Y-116840000D01*
X214330729Y-117413489D01*
X214655585Y-117899670D01*
X214965069Y-118106461D01*
X214549268Y-118477964D01*
X214295291Y-119005209D01*
X214292642Y-119020974D01*
X214413783Y-119253000D01*
X215773000Y-119253000D01*
X215773000Y-119233000D01*
X216027000Y-119233000D01*
X216027000Y-119253000D01*
X217386217Y-119253000D01*
X217507358Y-119020974D01*
X217504709Y-119005209D01*
X217250732Y-118477964D01*
X216834931Y-118106461D01*
X217144415Y-117899670D01*
X217469271Y-117413489D01*
X217583345Y-116840000D01*
X217469271Y-116266511D01*
X217144415Y-115780330D01*
X217019703Y-115697000D01*
X222250000Y-115697000D01*
X222299410Y-115686994D01*
X222341035Y-115658553D01*
X222368315Y-115616159D01*
X222377000Y-115570000D01*
X222377000Y-94587600D01*
X229847752Y-94587600D01*
X230047985Y-94887270D01*
X230362766Y-95097600D01*
X230047985Y-95307930D01*
X229723129Y-95794111D01*
X229609055Y-96367600D01*
X229723129Y-96941089D01*
X230047985Y-97427270D01*
X230362766Y-97637600D01*
X230047985Y-97847930D01*
X229723129Y-98334111D01*
X229609055Y-98907600D01*
X229723129Y-99481089D01*
X230047985Y-99967270D01*
X230362766Y-100177600D01*
X230047985Y-100387930D01*
X229723129Y-100874111D01*
X229609055Y-101447600D01*
X229723129Y-102021089D01*
X230047985Y-102507270D01*
X230362766Y-102717600D01*
X230047985Y-102927930D01*
X229723129Y-103414111D01*
X229609055Y-103987600D01*
X229723129Y-104561089D01*
X230047985Y-105047270D01*
X230362766Y-105257600D01*
X230047985Y-105467930D01*
X229723129Y-105954111D01*
X229609055Y-106527600D01*
X229723129Y-107101089D01*
X230047985Y-107587270D01*
X230534166Y-107912126D01*
X231107655Y-108026200D01*
X231477145Y-108026200D01*
X232050634Y-107912126D01*
X232536815Y-107587270D01*
X232861671Y-107101089D01*
X232975745Y-106527600D01*
X232861671Y-105954111D01*
X232536815Y-105467930D01*
X232222034Y-105257600D01*
X232536815Y-105047270D01*
X232861671Y-104561089D01*
X232975745Y-103987600D01*
X232861671Y-103414111D01*
X232536815Y-102927930D01*
X232222034Y-102717600D01*
X232536815Y-102507270D01*
X232861671Y-102021089D01*
X232975745Y-101447600D01*
X232861671Y-100874111D01*
X232536815Y-100387930D01*
X232222034Y-100177600D01*
X232536815Y-99967270D01*
X232861671Y-99481089D01*
X232975745Y-98907600D01*
X232861671Y-98334111D01*
X232536815Y-97847930D01*
X232222034Y-97637600D01*
X232536815Y-97427270D01*
X232861671Y-96941089D01*
X232975745Y-96367600D01*
X232861671Y-95794111D01*
X232536815Y-95307930D01*
X232222034Y-95097600D01*
X232536815Y-94887270D01*
X232861671Y-94401089D01*
X232975745Y-93827600D01*
X232861671Y-93254111D01*
X232536815Y-92767930D01*
X232222034Y-92557600D01*
X232536815Y-92347270D01*
X232861671Y-91861089D01*
X232975745Y-91287600D01*
X232861671Y-90714111D01*
X232536815Y-90227930D01*
X232222034Y-90017600D01*
X232536815Y-89807270D01*
X232861671Y-89321089D01*
X232975745Y-88747600D01*
X232861671Y-88174111D01*
X232536815Y-87687930D01*
X232222034Y-87477600D01*
X232536815Y-87267270D01*
X232861671Y-86781089D01*
X232975745Y-86207600D01*
X232861671Y-85634111D01*
X232536815Y-85147930D01*
X232222034Y-84937600D01*
X232536815Y-84727270D01*
X232861671Y-84241089D01*
X232975745Y-83667600D01*
X232861671Y-83094111D01*
X232536815Y-82607930D01*
X232222034Y-82397600D01*
X232536815Y-82187270D01*
X232861671Y-81701089D01*
X232975745Y-81127600D01*
X232861671Y-80554111D01*
X232536815Y-80067930D01*
X232222034Y-79857600D01*
X232536815Y-79647270D01*
X232861671Y-79161089D01*
X232975745Y-78587600D01*
X232861671Y-78014111D01*
X232536815Y-77527930D01*
X232050634Y-77203074D01*
X231477145Y-77089000D01*
X231107655Y-77089000D01*
X230534166Y-77203074D01*
X230047985Y-77527930D01*
X229723129Y-78014111D01*
X229609055Y-78587600D01*
X229723129Y-79161089D01*
X230047985Y-79647270D01*
X230362766Y-79857600D01*
X230047985Y-80067930D01*
X229723129Y-80554111D01*
X229609055Y-81127600D01*
X229723129Y-81701089D01*
X230047985Y-82187270D01*
X230362766Y-82397600D01*
X230047985Y-82607930D01*
X229723129Y-83094111D01*
X229609055Y-83667600D01*
X229723129Y-84241089D01*
X230047985Y-84727270D01*
X230362766Y-84937600D01*
X230047985Y-85147930D01*
X229723129Y-85634111D01*
X229609055Y-86207600D01*
X229723129Y-86781089D01*
X230047985Y-87267270D01*
X230362766Y-87477600D01*
X230047985Y-87687930D01*
X229723129Y-88174111D01*
X229609055Y-88747600D01*
X229723129Y-89321089D01*
X230047985Y-89807270D01*
X230362766Y-90017600D01*
X230047985Y-90227930D01*
X229820368Y-90568583D01*
X229735561Y-90585452D01*
X229488999Y-90750199D01*
X227654198Y-92585000D01*
X222377000Y-92585000D01*
X222377000Y-86741000D01*
X223774000Y-86741000D01*
X223820159Y-86732315D01*
X223862553Y-86705035D01*
X223890994Y-86663410D01*
X223901000Y-86614000D01*
X223901000Y-81534000D01*
X223892315Y-81487841D01*
X223865035Y-81445447D01*
X223823410Y-81417006D01*
X223774000Y-81407000D01*
X222377000Y-81407000D01*
X222377000Y-73150000D01*
X233111198Y-73150000D01*
X245112000Y-85150802D01*
X245112000Y-85150802D01*
G37*
X245112000Y-85150802D02*
X245112000Y-96121897D01*
X245042799Y-96093162D01*
X244670833Y-96092838D01*
X244327057Y-96234883D01*
X244063808Y-96497673D01*
X243921162Y-96841201D01*
X243920838Y-97213167D01*
X244062883Y-97556943D01*
X244096000Y-97590118D01*
X244096000Y-100421598D01*
X242822000Y-101695598D01*
X242822000Y-85144463D01*
X242854192Y-85112327D01*
X242996838Y-84768799D01*
X242997162Y-84396833D01*
X242855117Y-84053057D01*
X242592327Y-83789808D01*
X242248799Y-83647162D01*
X241876833Y-83646838D01*
X241533057Y-83788883D01*
X241269808Y-84051673D01*
X241127162Y-84395201D01*
X241126838Y-84767167D01*
X241268883Y-85110943D01*
X241302000Y-85144118D01*
X241302000Y-86321367D01*
X240978799Y-86187162D01*
X240606833Y-86186838D01*
X240263057Y-86328883D01*
X239999808Y-86591673D01*
X239857162Y-86935201D01*
X239856838Y-87307167D01*
X239998883Y-87650943D01*
X240032000Y-87684118D01*
X240032000Y-103063198D01*
X221935198Y-121160000D01*
X217344648Y-121160000D01*
X217144415Y-120860330D01*
X216834931Y-120653539D01*
X217250732Y-120282036D01*
X217504709Y-119754791D01*
X217507358Y-119739026D01*
X217386217Y-119507000D01*
X216027000Y-119507000D01*
X216027000Y-119527000D01*
X215773000Y-119527000D01*
X215773000Y-119507000D01*
X214413783Y-119507000D01*
X214292642Y-119739026D01*
X214295291Y-119754791D01*
X214549268Y-120282036D01*
X214965069Y-120653539D01*
X214655585Y-120860330D01*
X214330729Y-121346511D01*
X214216655Y-121920000D01*
X214330729Y-122493489D01*
X214655585Y-122979670D01*
X214970366Y-123190000D01*
X214655585Y-123400330D01*
X214330729Y-123886511D01*
X214216655Y-124460000D01*
X214330729Y-125033489D01*
X214655585Y-125519670D01*
X214970366Y-125730000D01*
X214655585Y-125940330D01*
X214330729Y-126426511D01*
X214216655Y-127000000D01*
X214330729Y-127573489D01*
X214655585Y-128059670D01*
X214970366Y-128270000D01*
X214655585Y-128480330D01*
X214522458Y-128679568D01*
X214118234Y-128409474D01*
X213544745Y-128295400D01*
X213175255Y-128295400D01*
X212601766Y-128409474D01*
X212115585Y-128734330D01*
X211790729Y-129220511D01*
X211676655Y-129794000D01*
X211790729Y-130367489D01*
X212115585Y-130853670D01*
X212601766Y-131178526D01*
X213175255Y-131292600D01*
X213544745Y-131292600D01*
X214118234Y-131178526D01*
X214604415Y-130853670D01*
X214737542Y-130654432D01*
X214970366Y-130810000D01*
X214655585Y-131020330D01*
X214330729Y-131506511D01*
X214216655Y-132080000D01*
X214330729Y-132653489D01*
X214655585Y-133139670D01*
X214970366Y-133350000D01*
X214655585Y-133560330D01*
X214522458Y-133759568D01*
X214118234Y-133489474D01*
X213544745Y-133375400D01*
X213175255Y-133375400D01*
X212601766Y-133489474D01*
X212115585Y-133814330D01*
X211790729Y-134300511D01*
X211676655Y-134874000D01*
X211720008Y-135091951D01*
X211582000Y-135064500D01*
X205740000Y-135064500D01*
X205424094Y-135127337D01*
X205332880Y-135188285D01*
X205156283Y-135306283D01*
X205156281Y-135306286D01*
X204128066Y-136334500D01*
X195580000Y-136334500D01*
X195264094Y-136397337D01*
X195187798Y-136448317D01*
X194996283Y-136576283D01*
X194996281Y-136576286D01*
X187618066Y-143954500D01*
X183221933Y-143954500D01*
X176219736Y-136952302D01*
X185280856Y-136952302D01*
X185308638Y-137507368D01*
X185467603Y-137891143D01*
X185709787Y-137960608D01*
X186510395Y-137160000D01*
X186869605Y-137160000D01*
X187670213Y-137960608D01*
X187912397Y-137891143D01*
X188099144Y-137367698D01*
X188071362Y-136812632D01*
X187912397Y-136428857D01*
X187670213Y-136359392D01*
X186869605Y-137160000D01*
X186510395Y-137160000D01*
X185709787Y-136359392D01*
X185467603Y-136428857D01*
X185280856Y-136952302D01*
X176219736Y-136952302D01*
X175843717Y-136576283D01*
X175575906Y-136397337D01*
X175260000Y-136334500D01*
X170059874Y-136334500D01*
X169905432Y-136179787D01*
X185889392Y-136179787D01*
X186690000Y-136980395D01*
X187490608Y-136179787D01*
X187421143Y-135937603D01*
X186897698Y-135750856D01*
X186342632Y-135778638D01*
X185958857Y-135937603D01*
X185889392Y-136179787D01*
X169905432Y-136179787D01*
X169702370Y-135976371D01*
X169189100Y-135763243D01*
X168633339Y-135762758D01*
X168119697Y-135974990D01*
X167726371Y-136367630D01*
X167513243Y-136880900D01*
X167512758Y-137436661D01*
X167724990Y-137950303D01*
X168117630Y-138343629D01*
X168325512Y-138429949D01*
X168119697Y-138514990D01*
X167959908Y-138674500D01*
X164925553Y-138674500D01*
X164909147Y-138649946D01*
X164579974Y-138430000D01*
X164909147Y-138210054D01*
X165231054Y-137728285D01*
X165344093Y-137160000D01*
X165231054Y-136591715D01*
X164909147Y-136109946D01*
X164427378Y-135788039D01*
X163859093Y-135675000D01*
X163800907Y-135675000D01*
X163232622Y-135788039D01*
X162750853Y-136109946D01*
X162428946Y-136591715D01*
X162315907Y-137160000D01*
X162428946Y-137728285D01*
X162750853Y-138210054D01*
X163080026Y-138430000D01*
X162750853Y-138649946D01*
X162428946Y-139131715D01*
X162315907Y-139700000D01*
X162428946Y-140268285D01*
X162750853Y-140750054D01*
X162792452Y-140777850D01*
X162744683Y-140786838D01*
X162528559Y-140925910D01*
X162383569Y-141138110D01*
X162332560Y-141390000D01*
X162332560Y-143090000D01*
X162376838Y-143325317D01*
X162515910Y-143541441D01*
X162728110Y-143686431D01*
X162980000Y-143737440D01*
X164680000Y-143737440D01*
X164915317Y-143693162D01*
X165131441Y-143554090D01*
X165276431Y-143341890D01*
X165291900Y-143265500D01*
X167959777Y-143265500D01*
X168117630Y-143423629D01*
X168630900Y-143636757D01*
X169186661Y-143637242D01*
X169700303Y-143425010D01*
X170093629Y-143032370D01*
X170306757Y-142519100D01*
X170307242Y-141963339D01*
X170095010Y-141449697D01*
X169702370Y-141056371D01*
X169494488Y-140970051D01*
X169700303Y-140885010D01*
X170093629Y-140492370D01*
X170306757Y-139979100D01*
X170307242Y-139423339D01*
X170095010Y-138909697D01*
X169702370Y-138516371D01*
X169494488Y-138430051D01*
X169700303Y-138345010D01*
X170060441Y-137985500D01*
X174918066Y-137985500D01*
X182296281Y-145363714D01*
X182296283Y-145363717D01*
X182456824Y-145470987D01*
X182564094Y-145542663D01*
X182880000Y-145605500D01*
X187960000Y-145605500D01*
X188275906Y-145542663D01*
X188543717Y-145363717D01*
X193122178Y-140785255D01*
X194081400Y-140785255D01*
X194081400Y-141154745D01*
X194195474Y-141728234D01*
X194520330Y-142214415D01*
X195006511Y-142539271D01*
X195580000Y-142653345D01*
X196153489Y-142539271D01*
X196639670Y-142214415D01*
X196846461Y-141904931D01*
X197217964Y-142320732D01*
X197745209Y-142574709D01*
X197760974Y-142577358D01*
X197993000Y-142456217D01*
X197993000Y-141097000D01*
X197973000Y-141097000D01*
X197973000Y-140843000D01*
X197993000Y-140843000D01*
X197993000Y-139483783D01*
X198247000Y-139483783D01*
X198247000Y-140843000D01*
X198267000Y-140843000D01*
X198267000Y-141097000D01*
X198247000Y-141097000D01*
X198247000Y-142456217D01*
X198479026Y-142577358D01*
X198494791Y-142574709D01*
X199022036Y-142320732D01*
X199393539Y-141904931D01*
X199600330Y-142214415D01*
X200086511Y-142539271D01*
X200660000Y-142653345D01*
X201233489Y-142539271D01*
X201719670Y-142214415D01*
X202044526Y-141728234D01*
X202158600Y-141154745D01*
X202158600Y-140785255D01*
X202044526Y-140211766D01*
X201719670Y-139725585D01*
X201233489Y-139400729D01*
X200660000Y-139286655D01*
X200086511Y-139400729D01*
X199600330Y-139725585D01*
X199393539Y-140035069D01*
X199022036Y-139619268D01*
X198494791Y-139365291D01*
X198479026Y-139362642D01*
X198247000Y-139483783D01*
X197993000Y-139483783D01*
X197760974Y-139362642D01*
X197745209Y-139365291D01*
X197217964Y-139619268D01*
X196846461Y-140035069D01*
X196639670Y-139725585D01*
X196153489Y-139400729D01*
X195580000Y-139286655D01*
X195006511Y-139400729D01*
X194520330Y-139725585D01*
X194195474Y-140211766D01*
X194081400Y-140785255D01*
X193122178Y-140785255D01*
X195921933Y-137985500D01*
X203644500Y-137985500D01*
X203644500Y-139700000D01*
X203707337Y-140015906D01*
X203886283Y-140283717D01*
X206087067Y-142484500D01*
X204405944Y-142484500D01*
X204259670Y-142265585D01*
X203773489Y-141940729D01*
X203200000Y-141826655D01*
X202626511Y-141940729D01*
X202140330Y-142265585D01*
X201815474Y-142751766D01*
X201701400Y-143325255D01*
X201701400Y-143694745D01*
X201815474Y-144268234D01*
X202140330Y-144754415D01*
X202178621Y-144780000D01*
X202140330Y-144805585D01*
X201815474Y-145291766D01*
X201701400Y-145865255D01*
X201701400Y-146234745D01*
X201815474Y-146808234D01*
X202140330Y-147294415D01*
X202626511Y-147619271D01*
X203200000Y-147733345D01*
X203773489Y-147619271D01*
X204259670Y-147294415D01*
X204405944Y-147075500D01*
X239642600Y-147075500D01*
X240035042Y-146997438D01*
X240367738Y-146775138D01*
X242362876Y-144780000D01*
X249945907Y-144780000D01*
X250058946Y-145348285D01*
X250380853Y-145830054D01*
X250710026Y-146050000D01*
X250380853Y-146269946D01*
X250058946Y-146751715D01*
X249945907Y-147320000D01*
X250058946Y-147888285D01*
X250380853Y-148370054D01*
X250862622Y-148691961D01*
X251430907Y-148805000D01*
X251489093Y-148805000D01*
X252057378Y-148691961D01*
X252539147Y-148370054D01*
X252861054Y-147888285D01*
X252974093Y-147320000D01*
X252861054Y-146751715D01*
X252539147Y-146269946D01*
X252209974Y-146050000D01*
X252539147Y-145830054D01*
X252861054Y-145348285D01*
X252974093Y-144780000D01*
X252861054Y-144211715D01*
X252539147Y-143729946D01*
X252198447Y-143502298D01*
X252341358Y-143435183D01*
X252731645Y-143006924D01*
X252901476Y-142596890D01*
X252780155Y-142367000D01*
X251587000Y-142367000D01*
X251587000Y-142387000D01*
X251333000Y-142387000D01*
X251333000Y-142367000D01*
X250139845Y-142367000D01*
X250018524Y-142596890D01*
X250188355Y-143006924D01*
X250578642Y-143435183D01*
X250721553Y-143502298D01*
X250380853Y-143729946D01*
X250058946Y-144211715D01*
X249945907Y-144780000D01*
X242362876Y-144780000D01*
X244819138Y-142323738D01*
X245041438Y-141991042D01*
X245119500Y-141598600D01*
X245119500Y-140961162D01*
X245409271Y-140527489D01*
X245523345Y-139954000D01*
X245409271Y-139380511D01*
X245084415Y-138894330D01*
X244769634Y-138684000D01*
X245084415Y-138473670D01*
X245409271Y-137987489D01*
X245523345Y-137414000D01*
X245409271Y-136840511D01*
X245084415Y-136354330D01*
X244598234Y-136029474D01*
X244024745Y-135915400D01*
X243655255Y-135915400D01*
X243081766Y-136029474D01*
X242595585Y-136354330D01*
X242270729Y-136840511D01*
X242156655Y-137414000D01*
X242212180Y-137693144D01*
X237420824Y-142484500D01*
X235911934Y-142484500D01*
X250125974Y-128270459D01*
X250145910Y-128301441D01*
X250358110Y-128446431D01*
X250425541Y-128460086D01*
X250380853Y-128489946D01*
X250058946Y-128971715D01*
X249945907Y-129540000D01*
X250058946Y-130108285D01*
X250380853Y-130590054D01*
X250710026Y-130810000D01*
X250380853Y-131029946D01*
X250058946Y-131511715D01*
X249945907Y-132080000D01*
X250058946Y-132648285D01*
X250380853Y-133130054D01*
X250710026Y-133350000D01*
X250380853Y-133569946D01*
X250058946Y-134051715D01*
X249945907Y-134620000D01*
X250058946Y-135188285D01*
X250380853Y-135670054D01*
X250710026Y-135890000D01*
X250380853Y-136109946D01*
X250058946Y-136591715D01*
X249945907Y-137160000D01*
X250058946Y-137728285D01*
X250380853Y-138210054D01*
X250710026Y-138430000D01*
X250380853Y-138649946D01*
X250058946Y-139131715D01*
X249945907Y-139700000D01*
X250058946Y-140268285D01*
X250380853Y-140750054D01*
X250721553Y-140977702D01*
X250578642Y-141044817D01*
X250188355Y-141473076D01*
X250018524Y-141883110D01*
X250139845Y-142113000D01*
X251333000Y-142113000D01*
X251333000Y-142093000D01*
X251587000Y-142093000D01*
X251587000Y-142113000D01*
X252780155Y-142113000D01*
X252901476Y-141883110D01*
X252731645Y-141473076D01*
X252341358Y-141044817D01*
X252198447Y-140977702D01*
X252539147Y-140750054D01*
X252861054Y-140268285D01*
X252974093Y-139700000D01*
X252861054Y-139131715D01*
X252539147Y-138649946D01*
X252209974Y-138430000D01*
X252539147Y-138210054D01*
X252861054Y-137728285D01*
X252974093Y-137160000D01*
X252861054Y-136591715D01*
X252539147Y-136109946D01*
X252209974Y-135890000D01*
X252539147Y-135670054D01*
X252861054Y-135188285D01*
X252974093Y-134620000D01*
X252861054Y-134051715D01*
X252539147Y-133569946D01*
X252209974Y-133350000D01*
X252539147Y-133130054D01*
X252861054Y-132648285D01*
X252974093Y-132080000D01*
X252861054Y-131511715D01*
X252539147Y-131029946D01*
X252209974Y-130810000D01*
X252539147Y-130590054D01*
X252861054Y-130108285D01*
X252974093Y-129540000D01*
X252861054Y-128971715D01*
X252539147Y-128489946D01*
X252497548Y-128462150D01*
X252545317Y-128453162D01*
X252761441Y-128314090D01*
X252906431Y-128101890D01*
X252957440Y-127850000D01*
X252957440Y-126150000D01*
X252913162Y-125914683D01*
X252774090Y-125698559D01*
X252561890Y-125553569D01*
X252310000Y-125502560D01*
X250610000Y-125502560D01*
X250374683Y-125546838D01*
X250158559Y-125685910D01*
X250111791Y-125754357D01*
X249745500Y-125388066D01*
X249745500Y-115784934D01*
X250350032Y-115180401D01*
X250367985Y-115207270D01*
X250682766Y-115417600D01*
X250367985Y-115627930D01*
X250043129Y-116114111D01*
X249929055Y-116687600D01*
X250043129Y-117261089D01*
X250367985Y-117747270D01*
X250854166Y-118072126D01*
X251427655Y-118186200D01*
X251797145Y-118186200D01*
X252370634Y-118072126D01*
X252856815Y-117747270D01*
X253181671Y-117261089D01*
X253290000Y-116716482D01*
X253290000Y-151690000D01*
X158190000Y-151690000D01*
X158190000Y-148405255D01*
X194081400Y-148405255D01*
X194081400Y-148774745D01*
X194195474Y-149348234D01*
X194520330Y-149834415D01*
X195006511Y-150159271D01*
X195580000Y-150273345D01*
X196153489Y-150159271D01*
X196639670Y-149834415D01*
X196850000Y-149519634D01*
X197060330Y-149834415D01*
X197400983Y-150062032D01*
X197417852Y-150146839D01*
X197582599Y-150393401D01*
X198602599Y-151413401D01*
X198849161Y-151578148D01*
X199140000Y-151636000D01*
X226822000Y-151636000D01*
X227112839Y-151578148D01*
X227359401Y-151413401D01*
X228883401Y-149889401D01*
X229048148Y-149642840D01*
X229063599Y-149565161D01*
X229106000Y-149352000D01*
X229106000Y-149152463D01*
X229138192Y-149120327D01*
X229280838Y-148776799D01*
X229281162Y-148404833D01*
X229139117Y-148061057D01*
X228876327Y-147797808D01*
X228532799Y-147655162D01*
X228160833Y-147654838D01*
X227817057Y-147796883D01*
X227711046Y-147902710D01*
X227606327Y-147797808D01*
X227262799Y-147655162D01*
X226890833Y-147654838D01*
X226547057Y-147796883D01*
X226513882Y-147830000D01*
X202043346Y-147830000D01*
X201719670Y-147345585D01*
X201233489Y-147020729D01*
X200660000Y-146906655D01*
X200086511Y-147020729D01*
X199600330Y-147345585D01*
X199390000Y-147660366D01*
X199179670Y-147345585D01*
X198693489Y-147020729D01*
X198120000Y-146906655D01*
X197546511Y-147020729D01*
X197060330Y-147345585D01*
X196850000Y-147660366D01*
X196639670Y-147345585D01*
X196153489Y-147020729D01*
X195580000Y-146906655D01*
X195006511Y-147020729D01*
X194520330Y-147345585D01*
X194195474Y-147831766D01*
X194081400Y-148405255D01*
X158190000Y-148405255D01*
X158190000Y-132207000D01*
X194285567Y-132207000D01*
X187729067Y-138763499D01*
X187482370Y-138516371D01*
X187290273Y-138436605D01*
X187421143Y-138382397D01*
X187490608Y-138140213D01*
X186690000Y-137339605D01*
X185889392Y-138140213D01*
X185958857Y-138382397D01*
X186099318Y-138432509D01*
X185899697Y-138514990D01*
X185506371Y-138907630D01*
X185293243Y-139420900D01*
X185292758Y-139976661D01*
X185504990Y-140490303D01*
X185897630Y-140883629D01*
X186105512Y-140969949D01*
X185899697Y-141054990D01*
X185506371Y-141447630D01*
X185293243Y-141960900D01*
X185292758Y-142516661D01*
X185504990Y-143030303D01*
X185897630Y-143423629D01*
X186410900Y-143636757D01*
X186966661Y-143637242D01*
X187480303Y-143425010D01*
X187840441Y-143065500D01*
X187960000Y-143065500D01*
X188275906Y-143002663D01*
X188543717Y-142823717D01*
X195921933Y-135445500D01*
X196719117Y-135445500D01*
X196875585Y-135679670D01*
X197361766Y-136004526D01*
X197935255Y-136118600D01*
X198304745Y-136118600D01*
X198878234Y-136004526D01*
X199364415Y-135679670D01*
X199689271Y-135193489D01*
X199803345Y-134620000D01*
X199689271Y-134046511D01*
X199364415Y-133560330D01*
X199049634Y-133350000D01*
X199364415Y-133139670D01*
X199689271Y-132653489D01*
X199803345Y-132080000D01*
X199689271Y-131506511D01*
X199364415Y-131020330D01*
X199049634Y-130810000D01*
X199364415Y-130599670D01*
X199689271Y-130113489D01*
X199803345Y-129540000D01*
X199689271Y-128966511D01*
X199364415Y-128480330D01*
X199049634Y-128270000D01*
X199364415Y-128059670D01*
X199689271Y-127573489D01*
X199803345Y-127000000D01*
X199689271Y-126426511D01*
X199364415Y-125940330D01*
X199049634Y-125730000D01*
X199364415Y-125519670D01*
X199689271Y-125033489D01*
X199803345Y-124460000D01*
X199689271Y-123886511D01*
X199364415Y-123400330D01*
X199049634Y-123190000D01*
X199364415Y-122979670D01*
X199689271Y-122493489D01*
X199803345Y-121920000D01*
X199689271Y-121346511D01*
X199364415Y-120860330D01*
X199049634Y-120650000D01*
X199364415Y-120439670D01*
X199689271Y-119953489D01*
X199803345Y-119380000D01*
X199689271Y-118806511D01*
X199364415Y-118320330D01*
X199049634Y-118110000D01*
X199364415Y-117899670D01*
X199689271Y-117413489D01*
X199803345Y-116840000D01*
X199689271Y-116266511D01*
X199364415Y-115780330D01*
X199239703Y-115697000D01*
X214780297Y-115697000D01*
X214655585Y-115780330D01*
X214330729Y-116266511D01*
X214216655Y-116840000D01*
X214330729Y-117413489D01*
X214655585Y-117899670D01*
X214965069Y-118106461D01*
X214549268Y-118477964D01*
X214295291Y-119005209D01*
X214292642Y-119020974D01*
X214413783Y-119253000D01*
X215773000Y-119253000D01*
X215773000Y-119233000D01*
X216027000Y-119233000D01*
X216027000Y-119253000D01*
X217386217Y-119253000D01*
X217507358Y-119020974D01*
X217504709Y-119005209D01*
X217250732Y-118477964D01*
X216834931Y-118106461D01*
X217144415Y-117899670D01*
X217469271Y-117413489D01*
X217583345Y-116840000D01*
X217469271Y-116266511D01*
X217144415Y-115780330D01*
X217019703Y-115697000D01*
X222250000Y-115697000D01*
X222299410Y-115686994D01*
X222341035Y-115658553D01*
X222368315Y-115616159D01*
X222377000Y-115570000D01*
X222377000Y-94587600D01*
X229847752Y-94587600D01*
X230047985Y-94887270D01*
X230362766Y-95097600D01*
X230047985Y-95307930D01*
X229723129Y-95794111D01*
X229609055Y-96367600D01*
X229723129Y-96941089D01*
X230047985Y-97427270D01*
X230362766Y-97637600D01*
X230047985Y-97847930D01*
X229723129Y-98334111D01*
X229609055Y-98907600D01*
X229723129Y-99481089D01*
X230047985Y-99967270D01*
X230362766Y-100177600D01*
X230047985Y-100387930D01*
X229723129Y-100874111D01*
X229609055Y-101447600D01*
X229723129Y-102021089D01*
X230047985Y-102507270D01*
X230362766Y-102717600D01*
X230047985Y-102927930D01*
X229723129Y-103414111D01*
X229609055Y-103987600D01*
X229723129Y-104561089D01*
X230047985Y-105047270D01*
X230362766Y-105257600D01*
X230047985Y-105467930D01*
X229723129Y-105954111D01*
X229609055Y-106527600D01*
X229723129Y-107101089D01*
X230047985Y-107587270D01*
X230534166Y-107912126D01*
X231107655Y-108026200D01*
X231477145Y-108026200D01*
X232050634Y-107912126D01*
X232536815Y-107587270D01*
X232861671Y-107101089D01*
X232975745Y-106527600D01*
X232861671Y-105954111D01*
X232536815Y-105467930D01*
X232222034Y-105257600D01*
X232536815Y-105047270D01*
X232861671Y-104561089D01*
X232975745Y-103987600D01*
X232861671Y-103414111D01*
X232536815Y-102927930D01*
X232222034Y-102717600D01*
X232536815Y-102507270D01*
X232861671Y-102021089D01*
X232975745Y-101447600D01*
X232861671Y-100874111D01*
X232536815Y-100387930D01*
X232222034Y-100177600D01*
X232536815Y-99967270D01*
X232861671Y-99481089D01*
X232975745Y-98907600D01*
X232861671Y-98334111D01*
X232536815Y-97847930D01*
X232222034Y-97637600D01*
X232536815Y-97427270D01*
X232861671Y-96941089D01*
X232975745Y-96367600D01*
X232861671Y-95794111D01*
X232536815Y-95307930D01*
X232222034Y-95097600D01*
X232536815Y-94887270D01*
X232861671Y-94401089D01*
X232975745Y-93827600D01*
X232861671Y-93254111D01*
X232536815Y-92767930D01*
X232222034Y-92557600D01*
X232536815Y-92347270D01*
X232861671Y-91861089D01*
X232975745Y-91287600D01*
X232861671Y-90714111D01*
X232536815Y-90227930D01*
X232222034Y-90017600D01*
X232536815Y-89807270D01*
X232861671Y-89321089D01*
X232975745Y-88747600D01*
X232861671Y-88174111D01*
X232536815Y-87687930D01*
X232222034Y-87477600D01*
X232536815Y-87267270D01*
X232861671Y-86781089D01*
X232975745Y-86207600D01*
X232861671Y-85634111D01*
X232536815Y-85147930D01*
X232222034Y-84937600D01*
X232536815Y-84727270D01*
X232861671Y-84241089D01*
X232975745Y-83667600D01*
X232861671Y-83094111D01*
X232536815Y-82607930D01*
X232222034Y-82397600D01*
X232536815Y-82187270D01*
X232861671Y-81701089D01*
X232975745Y-81127600D01*
X232861671Y-80554111D01*
X232536815Y-80067930D01*
X232222034Y-79857600D01*
X232536815Y-79647270D01*
X232861671Y-79161089D01*
X232975745Y-78587600D01*
X232861671Y-78014111D01*
X232536815Y-77527930D01*
X232050634Y-77203074D01*
X231477145Y-77089000D01*
X231107655Y-77089000D01*
X230534166Y-77203074D01*
X230047985Y-77527930D01*
X229723129Y-78014111D01*
X229609055Y-78587600D01*
X229723129Y-79161089D01*
X230047985Y-79647270D01*
X230362766Y-79857600D01*
X230047985Y-80067930D01*
X229723129Y-80554111D01*
X229609055Y-81127600D01*
X229723129Y-81701089D01*
X230047985Y-82187270D01*
X230362766Y-82397600D01*
X230047985Y-82607930D01*
X229723129Y-83094111D01*
X229609055Y-83667600D01*
X229723129Y-84241089D01*
X230047985Y-84727270D01*
X230362766Y-84937600D01*
X230047985Y-85147930D01*
X229723129Y-85634111D01*
X229609055Y-86207600D01*
X229723129Y-86781089D01*
X230047985Y-87267270D01*
X230362766Y-87477600D01*
X230047985Y-87687930D01*
X229723129Y-88174111D01*
X229609055Y-88747600D01*
X229723129Y-89321089D01*
X230047985Y-89807270D01*
X230362766Y-90017600D01*
X230047985Y-90227930D01*
X229820368Y-90568583D01*
X229735561Y-90585452D01*
X229488999Y-90750199D01*
X227654198Y-92585000D01*
X222377000Y-92585000D01*
X222377000Y-86741000D01*
X223774000Y-86741000D01*
X223820159Y-86732315D01*
X223862553Y-86705035D01*
X223890994Y-86663410D01*
X223901000Y-86614000D01*
X223901000Y-81534000D01*
X223892315Y-81487841D01*
X223865035Y-81445447D01*
X223823410Y-81417006D01*
X223774000Y-81407000D01*
X222377000Y-81407000D01*
X222377000Y-73150000D01*
X233111198Y-73150000D01*
X245112000Y-85150802D01*
G36*
X217922500Y-135465224D02*
X214459224Y-138928500D01*
X209547247Y-138928500D01*
X209524415Y-138894330D01*
X209214931Y-138687539D01*
X209630732Y-138316036D01*
X209884709Y-137788791D01*
X209887358Y-137773026D01*
X209766217Y-137541000D01*
X208407000Y-137541000D01*
X208407000Y-137561000D01*
X208153000Y-137561000D01*
X208153000Y-137541000D01*
X206793783Y-137541000D01*
X206672642Y-137773026D01*
X206675291Y-137788791D01*
X206929268Y-138316036D01*
X207345069Y-138687539D01*
X207035585Y-138894330D01*
X206710729Y-139380511D01*
X206596655Y-139954000D01*
X206710729Y-140527489D01*
X207035585Y-141013670D01*
X207521766Y-141338526D01*
X207903713Y-141414500D01*
X207351933Y-141414500D01*
X205295500Y-139358066D01*
X205295500Y-137501934D01*
X206081933Y-136715500D01*
X206831224Y-136715500D01*
X206675291Y-137039209D01*
X206672642Y-137054974D01*
X206793783Y-137287000D01*
X208153000Y-137287000D01*
X208153000Y-137267000D01*
X208407000Y-137267000D01*
X208407000Y-137287000D01*
X209766217Y-137287000D01*
X209887358Y-137054974D01*
X209884709Y-137039209D01*
X209728776Y-136715500D01*
X211240066Y-136715500D01*
X211988883Y-137464317D01*
X212256694Y-137643263D01*
X212572600Y-137706101D01*
X212572605Y-137706100D01*
X214884000Y-137706100D01*
X215199906Y-137643263D01*
X215467717Y-137464317D01*
X216483717Y-136448317D01*
X216662663Y-136180506D01*
X216703712Y-135974138D01*
X217144415Y-135679670D01*
X217469271Y-135193489D01*
X217583345Y-134620000D01*
X217469271Y-134046511D01*
X217144415Y-133560330D01*
X216829634Y-133350000D01*
X217144415Y-133139670D01*
X217469271Y-132653489D01*
X217583345Y-132080000D01*
X217469271Y-131506511D01*
X217144415Y-131020330D01*
X216829634Y-130810000D01*
X217144415Y-130599670D01*
X217469271Y-130113489D01*
X217583345Y-129540000D01*
X217507666Y-129159536D01*
X217922500Y-128744702D01*
X217922500Y-135465224D01*
X217922500Y-135465224D01*
G37*
X217922500Y-135465224D02*
X214459224Y-138928500D01*
X209547247Y-138928500D01*
X209524415Y-138894330D01*
X209214931Y-138687539D01*
X209630732Y-138316036D01*
X209884709Y-137788791D01*
X209887358Y-137773026D01*
X209766217Y-137541000D01*
X208407000Y-137541000D01*
X208407000Y-137561000D01*
X208153000Y-137561000D01*
X208153000Y-137541000D01*
X206793783Y-137541000D01*
X206672642Y-137773026D01*
X206675291Y-137788791D01*
X206929268Y-138316036D01*
X207345069Y-138687539D01*
X207035585Y-138894330D01*
X206710729Y-139380511D01*
X206596655Y-139954000D01*
X206710729Y-140527489D01*
X207035585Y-141013670D01*
X207521766Y-141338526D01*
X207903713Y-141414500D01*
X207351933Y-141414500D01*
X205295500Y-139358066D01*
X205295500Y-137501934D01*
X206081933Y-136715500D01*
X206831224Y-136715500D01*
X206675291Y-137039209D01*
X206672642Y-137054974D01*
X206793783Y-137287000D01*
X208153000Y-137287000D01*
X208153000Y-137267000D01*
X208407000Y-137267000D01*
X208407000Y-137287000D01*
X209766217Y-137287000D01*
X209887358Y-137054974D01*
X209884709Y-137039209D01*
X209728776Y-136715500D01*
X211240066Y-136715500D01*
X211988883Y-137464317D01*
X212256694Y-137643263D01*
X212572600Y-137706101D01*
X212572605Y-137706100D01*
X214884000Y-137706100D01*
X215199906Y-137643263D01*
X215467717Y-137464317D01*
X216483717Y-136448317D01*
X216662663Y-136180506D01*
X216703712Y-135974138D01*
X217144415Y-135679670D01*
X217469271Y-135193489D01*
X217583345Y-134620000D01*
X217469271Y-134046511D01*
X217144415Y-133560330D01*
X216829634Y-133350000D01*
X217144415Y-133139670D01*
X217469271Y-132653489D01*
X217583345Y-132080000D01*
X217469271Y-131506511D01*
X217144415Y-131020330D01*
X216829634Y-130810000D01*
X217144415Y-130599670D01*
X217469271Y-130113489D01*
X217583345Y-129540000D01*
X217507666Y-129159536D01*
X217922500Y-128744702D01*
X217922500Y-135465224D01*
G36*
X246128000Y-101955600D02*
X246185852Y-102246439D01*
X246350599Y-102493001D01*
X250004734Y-106147136D01*
X249929055Y-106527600D01*
X250043129Y-107101089D01*
X250367985Y-107587270D01*
X250677469Y-107794061D01*
X250261668Y-108165564D01*
X250007691Y-108692809D01*
X250005042Y-108708574D01*
X250126183Y-108940600D01*
X251485400Y-108940600D01*
X251485400Y-108920600D01*
X251739400Y-108920600D01*
X251739400Y-108940600D01*
X253098617Y-108940600D01*
X253219758Y-108708574D01*
X253217109Y-108692809D01*
X252963132Y-108165564D01*
X252547331Y-107794061D01*
X252856815Y-107587270D01*
X253181671Y-107101089D01*
X253290000Y-106556482D01*
X253290000Y-111578718D01*
X253181671Y-111034111D01*
X252856815Y-110547930D01*
X252547331Y-110341139D01*
X252963132Y-109969636D01*
X253217109Y-109442391D01*
X253219758Y-109426626D01*
X253098617Y-109194600D01*
X251739400Y-109194600D01*
X251739400Y-109214600D01*
X251485400Y-109214600D01*
X251485400Y-109194600D01*
X250126183Y-109194600D01*
X250005042Y-109426626D01*
X250007691Y-109442391D01*
X250261668Y-109969636D01*
X250677469Y-110341139D01*
X250367985Y-110547930D01*
X250043129Y-111034111D01*
X249929055Y-111607600D01*
X250043129Y-112181089D01*
X250367985Y-112667270D01*
X250682766Y-112877600D01*
X250367985Y-113087930D01*
X250210922Y-113322991D01*
X249899494Y-113384937D01*
X249792224Y-113456613D01*
X249631683Y-113563883D01*
X249631681Y-113563886D01*
X248336283Y-114859283D01*
X248157337Y-115127094D01*
X248157337Y-115127095D01*
X248094500Y-115443000D01*
X248094500Y-125730000D01*
X248157337Y-126045906D01*
X248336283Y-126313717D01*
X249042067Y-127019500D01*
X234647066Y-141414500D01*
X208656287Y-141414500D01*
X209038234Y-141338526D01*
X209524415Y-141013670D01*
X209547247Y-140979500D01*
X214884000Y-140979500D01*
X215276442Y-140901438D01*
X215609138Y-140679138D01*
X219128276Y-137160000D01*
X220481907Y-137160000D01*
X220594946Y-137728285D01*
X220916853Y-138210054D01*
X220958452Y-138237850D01*
X220910683Y-138246838D01*
X220694559Y-138385910D01*
X220549569Y-138598110D01*
X220498560Y-138850000D01*
X220498560Y-140550000D01*
X220542838Y-140785317D01*
X220681910Y-141001441D01*
X220894110Y-141146431D01*
X221146000Y-141197440D01*
X222846000Y-141197440D01*
X223081317Y-141153162D01*
X223297441Y-141014090D01*
X223442431Y-140801890D01*
X223493440Y-140550000D01*
X223493440Y-138850000D01*
X223449162Y-138614683D01*
X223310090Y-138398559D01*
X223097890Y-138253569D01*
X223030459Y-138239914D01*
X223075147Y-138210054D01*
X223397054Y-137728285D01*
X223510093Y-137160000D01*
X223397054Y-136591715D01*
X223075147Y-136109946D01*
X222593378Y-135788039D01*
X222025093Y-135675000D01*
X221966907Y-135675000D01*
X221398622Y-135788039D01*
X220916853Y-136109946D01*
X220594946Y-136591715D01*
X220481907Y-137160000D01*
X219128276Y-137160000D01*
X219673138Y-136615138D01*
X219706843Y-136564695D01*
X219895438Y-136282442D01*
X219973500Y-135890000D01*
X219973500Y-128186776D01*
X220690661Y-127469615D01*
X220549569Y-127676110D01*
X220498560Y-127928000D01*
X220498560Y-129628000D01*
X220542838Y-129863317D01*
X220681910Y-130079441D01*
X220894110Y-130224431D01*
X220961541Y-130238086D01*
X220916853Y-130267946D01*
X220594946Y-130749715D01*
X220481907Y-131318000D01*
X220594946Y-131886285D01*
X220916853Y-132368054D01*
X221398622Y-132689961D01*
X221966907Y-132803000D01*
X222025093Y-132803000D01*
X222593378Y-132689961D01*
X223075147Y-132368054D01*
X223229344Y-132137281D01*
X223513987Y-132080663D01*
X223781798Y-131901717D01*
X224865717Y-130817798D01*
X225044663Y-130549987D01*
X225107501Y-130234081D01*
X225107500Y-130234076D01*
X225107500Y-125817934D01*
X231481933Y-119443500D01*
X237083600Y-119443500D01*
X237399506Y-119380663D01*
X237667317Y-119201717D01*
X238326011Y-118543022D01*
X238575255Y-118592600D01*
X238944745Y-118592600D01*
X239518234Y-118478526D01*
X240004415Y-118153670D01*
X240329271Y-117667489D01*
X240443345Y-117094000D01*
X240329271Y-116520511D01*
X240004415Y-116034330D01*
X239518234Y-115709474D01*
X238944745Y-115595400D01*
X238575255Y-115595400D01*
X238001766Y-115709474D01*
X237515585Y-116034330D01*
X237490000Y-116072621D01*
X237464415Y-116034330D01*
X236978234Y-115709474D01*
X236404745Y-115595400D01*
X236035255Y-115595400D01*
X235461766Y-115709474D01*
X234975585Y-116034330D01*
X234819117Y-116268500D01*
X231394000Y-116268500D01*
X231078094Y-116331337D01*
X230810283Y-116510283D01*
X230308402Y-117012164D01*
X230133137Y-116749862D01*
X230003776Y-116663426D01*
X245393401Y-101273801D01*
X245558148Y-101027239D01*
X245616000Y-100736400D01*
X245616000Y-98696103D01*
X245685201Y-98724838D01*
X246057167Y-98725162D01*
X246128000Y-98695894D01*
X246128000Y-101955600D01*
X246128000Y-101955600D01*
G37*
X246128000Y-101955600D02*
X246185852Y-102246439D01*
X246350599Y-102493001D01*
X250004734Y-106147136D01*
X249929055Y-106527600D01*
X250043129Y-107101089D01*
X250367985Y-107587270D01*
X250677469Y-107794061D01*
X250261668Y-108165564D01*
X250007691Y-108692809D01*
X250005042Y-108708574D01*
X250126183Y-108940600D01*
X251485400Y-108940600D01*
X251485400Y-108920600D01*
X251739400Y-108920600D01*
X251739400Y-108940600D01*
X253098617Y-108940600D01*
X253219758Y-108708574D01*
X253217109Y-108692809D01*
X252963132Y-108165564D01*
X252547331Y-107794061D01*
X252856815Y-107587270D01*
X253181671Y-107101089D01*
X253290000Y-106556482D01*
X253290000Y-111578718D01*
X253181671Y-111034111D01*
X252856815Y-110547930D01*
X252547331Y-110341139D01*
X252963132Y-109969636D01*
X253217109Y-109442391D01*
X253219758Y-109426626D01*
X253098617Y-109194600D01*
X251739400Y-109194600D01*
X251739400Y-109214600D01*
X251485400Y-109214600D01*
X251485400Y-109194600D01*
X250126183Y-109194600D01*
X250005042Y-109426626D01*
X250007691Y-109442391D01*
X250261668Y-109969636D01*
X250677469Y-110341139D01*
X250367985Y-110547930D01*
X250043129Y-111034111D01*
X249929055Y-111607600D01*
X250043129Y-112181089D01*
X250367985Y-112667270D01*
X250682766Y-112877600D01*
X250367985Y-113087930D01*
X250210922Y-113322991D01*
X249899494Y-113384937D01*
X249792224Y-113456613D01*
X249631683Y-113563883D01*
X249631681Y-113563886D01*
X248336283Y-114859283D01*
X248157337Y-115127094D01*
X248157337Y-115127095D01*
X248094500Y-115443000D01*
X248094500Y-125730000D01*
X248157337Y-126045906D01*
X248336283Y-126313717D01*
X249042067Y-127019500D01*
X234647066Y-141414500D01*
X208656287Y-141414500D01*
X209038234Y-141338526D01*
X209524415Y-141013670D01*
X209547247Y-140979500D01*
X214884000Y-140979500D01*
X215276442Y-140901438D01*
X215609138Y-140679138D01*
X219128276Y-137160000D01*
X220481907Y-137160000D01*
X220594946Y-137728285D01*
X220916853Y-138210054D01*
X220958452Y-138237850D01*
X220910683Y-138246838D01*
X220694559Y-138385910D01*
X220549569Y-138598110D01*
X220498560Y-138850000D01*
X220498560Y-140550000D01*
X220542838Y-140785317D01*
X220681910Y-141001441D01*
X220894110Y-141146431D01*
X221146000Y-141197440D01*
X222846000Y-141197440D01*
X223081317Y-141153162D01*
X223297441Y-141014090D01*
X223442431Y-140801890D01*
X223493440Y-140550000D01*
X223493440Y-138850000D01*
X223449162Y-138614683D01*
X223310090Y-138398559D01*
X223097890Y-138253569D01*
X223030459Y-138239914D01*
X223075147Y-138210054D01*
X223397054Y-137728285D01*
X223510093Y-137160000D01*
X223397054Y-136591715D01*
X223075147Y-136109946D01*
X222593378Y-135788039D01*
X222025093Y-135675000D01*
X221966907Y-135675000D01*
X221398622Y-135788039D01*
X220916853Y-136109946D01*
X220594946Y-136591715D01*
X220481907Y-137160000D01*
X219128276Y-137160000D01*
X219673138Y-136615138D01*
X219706843Y-136564695D01*
X219895438Y-136282442D01*
X219973500Y-135890000D01*
X219973500Y-128186776D01*
X220690661Y-127469615D01*
X220549569Y-127676110D01*
X220498560Y-127928000D01*
X220498560Y-129628000D01*
X220542838Y-129863317D01*
X220681910Y-130079441D01*
X220894110Y-130224431D01*
X220961541Y-130238086D01*
X220916853Y-130267946D01*
X220594946Y-130749715D01*
X220481907Y-131318000D01*
X220594946Y-131886285D01*
X220916853Y-132368054D01*
X221398622Y-132689961D01*
X221966907Y-132803000D01*
X222025093Y-132803000D01*
X222593378Y-132689961D01*
X223075147Y-132368054D01*
X223229344Y-132137281D01*
X223513987Y-132080663D01*
X223781798Y-131901717D01*
X224865717Y-130817798D01*
X225044663Y-130549987D01*
X225107501Y-130234081D01*
X225107500Y-130234076D01*
X225107500Y-125817934D01*
X231481933Y-119443500D01*
X237083600Y-119443500D01*
X237399506Y-119380663D01*
X237667317Y-119201717D01*
X238326011Y-118543022D01*
X238575255Y-118592600D01*
X238944745Y-118592600D01*
X239518234Y-118478526D01*
X240004415Y-118153670D01*
X240329271Y-117667489D01*
X240443345Y-117094000D01*
X240329271Y-116520511D01*
X240004415Y-116034330D01*
X239518234Y-115709474D01*
X238944745Y-115595400D01*
X238575255Y-115595400D01*
X238001766Y-115709474D01*
X237515585Y-116034330D01*
X237490000Y-116072621D01*
X237464415Y-116034330D01*
X236978234Y-115709474D01*
X236404745Y-115595400D01*
X236035255Y-115595400D01*
X235461766Y-115709474D01*
X234975585Y-116034330D01*
X234819117Y-116268500D01*
X231394000Y-116268500D01*
X231078094Y-116331337D01*
X230810283Y-116510283D01*
X230308402Y-117012164D01*
X230133137Y-116749862D01*
X230003776Y-116663426D01*
X245393401Y-101273801D01*
X245558148Y-101027239D01*
X245616000Y-100736400D01*
X245616000Y-98696103D01*
X245685201Y-98724838D01*
X246057167Y-98725162D01*
X246128000Y-98695894D01*
X246128000Y-101955600D01*
G36*
X223647000Y-86487000D02*
X216732928Y-86487000D01*
X216692370Y-86446371D01*
X216500273Y-86366605D01*
X216631143Y-86312397D01*
X216700608Y-86070213D01*
X215900000Y-85269605D01*
X215099392Y-86070213D01*
X215168857Y-86312397D01*
X215309318Y-86362509D01*
X215109697Y-86444990D01*
X215067614Y-86487000D01*
X213487000Y-86487000D01*
X213487000Y-84882302D01*
X214490856Y-84882302D01*
X214518638Y-85437368D01*
X214677603Y-85821143D01*
X214919787Y-85890608D01*
X215720395Y-85090000D01*
X216079605Y-85090000D01*
X216880213Y-85890608D01*
X217122397Y-85821143D01*
X217309144Y-85297698D01*
X217281362Y-84742632D01*
X217122397Y-84358857D01*
X216880213Y-84289392D01*
X216079605Y-85090000D01*
X215720395Y-85090000D01*
X214919787Y-84289392D01*
X214677603Y-84358857D01*
X214490856Y-84882302D01*
X213487000Y-84882302D01*
X213487000Y-84109787D01*
X215099392Y-84109787D01*
X215900000Y-84910395D01*
X216700608Y-84109787D01*
X216631143Y-83867603D01*
X216107698Y-83680856D01*
X215552632Y-83708638D01*
X215168857Y-83867603D01*
X215099392Y-84109787D01*
X213487000Y-84109787D01*
X213487000Y-81661000D01*
X223647000Y-81661000D01*
X223647000Y-86487000D01*
X223647000Y-86487000D01*
G37*
X223647000Y-86487000D02*
X216732928Y-86487000D01*
X216692370Y-86446371D01*
X216500273Y-86366605D01*
X216631143Y-86312397D01*
X216700608Y-86070213D01*
X215900000Y-85269605D01*
X215099392Y-86070213D01*
X215168857Y-86312397D01*
X215309318Y-86362509D01*
X215109697Y-86444990D01*
X215067614Y-86487000D01*
X213487000Y-86487000D01*
X213487000Y-84882302D01*
X214490856Y-84882302D01*
X214518638Y-85437368D01*
X214677603Y-85821143D01*
X214919787Y-85890608D01*
X215720395Y-85090000D01*
X216079605Y-85090000D01*
X216880213Y-85890608D01*
X217122397Y-85821143D01*
X217309144Y-85297698D01*
X217281362Y-84742632D01*
X217122397Y-84358857D01*
X216880213Y-84289392D01*
X216079605Y-85090000D01*
X215720395Y-85090000D01*
X214919787Y-84289392D01*
X214677603Y-84358857D01*
X214490856Y-84882302D01*
X213487000Y-84882302D01*
X213487000Y-84109787D01*
X215099392Y-84109787D01*
X215900000Y-84910395D01*
X216700608Y-84109787D01*
X216631143Y-83867603D01*
X216107698Y-83680856D01*
X215552632Y-83708638D01*
X215168857Y-83867603D01*
X215099392Y-84109787D01*
X213487000Y-84109787D01*
X213487000Y-81661000D01*
X223647000Y-81661000D01*
X223647000Y-86487000D01*
M02*
