G04 #@! TF.FileFunction,Legend,Bot*
%FSLAX46Y46*%
G04 Gerber Fmt 4.6, Leading zero omitted, Abs format (unit mm)*
G04 Created by KiCad (PCBNEW 4.0.6) date 06/19/17 16:27:19*
%MOMM*%
%LPD*%
G01*
G04 APERTURE LIST*
%ADD10C,0.100000*%
%ADD11C,0.120000*%
%ADD12C,0.150000*%
G04 APERTURE END LIST*
D10*
D11*
X180896600Y-146656600D02*
X180896600Y-147931600D01*
X180896600Y-147931600D02*
X182496600Y-147931600D01*
X182496600Y-147931600D02*
X182496600Y-148931600D01*
X182496600Y-148931600D02*
X178271600Y-148931600D01*
X178271600Y-140831600D02*
X182496600Y-140831600D01*
X182496600Y-140831600D02*
X182496600Y-141831600D01*
X182496600Y-141831600D02*
X180896600Y-141831600D01*
X180896600Y-141831600D02*
X180896600Y-143106600D01*
X174696600Y-147206600D02*
X174696600Y-142556600D01*
X180896600Y-146656600D02*
X183796600Y-146656600D01*
D12*
X238760000Y-151384000D02*
X238760000Y-143764000D01*
X231140000Y-151384000D02*
X238760000Y-151384000D01*
X231140000Y-143764000D02*
X231140000Y-151384000D01*
X238760000Y-143764000D02*
X231140000Y-143764000D01*
X220980000Y-143764000D02*
X213360000Y-143764000D01*
X220980000Y-151384000D02*
X220980000Y-143764000D01*
X213360000Y-151384000D02*
X220980000Y-151384000D01*
X213360000Y-143764000D02*
X213360000Y-151384000D01*
X220980000Y-127254000D02*
X213360000Y-127254000D01*
X220980000Y-112014000D02*
X220980000Y-127254000D01*
X213360000Y-112014000D02*
X220980000Y-112014000D01*
X213360000Y-127254000D02*
X213360000Y-112014000D01*
X205740000Y-147574000D02*
X246380000Y-147574000D01*
X205740000Y-115824000D02*
X205740000Y-147574000D01*
X246380000Y-115824000D02*
X205740000Y-115824000D01*
X246380000Y-147574000D02*
X246380000Y-115824000D01*
M02*
