G04 #@! TF.FileFunction,Copper,L1,Top,Signal*
%FSLAX46Y46*%
G04 Gerber Fmt 4.6, Leading zero omitted, Abs format (unit mm)*
G04 Created by KiCad (PCBNEW 4.0.6) date 06/19/17 16:27:19*
%MOMM*%
%LPD*%
G01*
G04 APERTURE LIST*
%ADD10C,0.100000*%
%ADD11O,2.032000X1.727200*%
%ADD12R,1.700000X1.700000*%
%ADD13O,1.700000X1.700000*%
%ADD14C,1.524000*%
%ADD15O,1.727200X2.032000*%
%ADD16R,0.800000X0.900000*%
%ADD17R,0.900000X1.200000*%
%ADD18R,1.500000X0.600000*%
%ADD19R,0.600000X1.500000*%
%ADD20C,0.600000*%
%ADD21C,0.781000*%
%ADD22C,0.250000*%
%ADD23C,0.381000*%
%ADD24C,0.254000*%
G04 APERTURE END LIST*
D10*
D11*
X243840000Y-139954000D03*
X243840000Y-137414000D03*
X208280000Y-137414000D03*
X208280000Y-139954000D03*
X213360000Y-134874000D03*
X213360000Y-129794000D03*
X238760000Y-117094000D03*
X236220000Y-117094000D03*
D12*
X163830000Y-142240000D03*
D13*
X163830000Y-139700000D03*
X163830000Y-137160000D03*
D12*
X163830000Y-111760000D03*
D13*
X163830000Y-109220000D03*
X163830000Y-106680000D03*
D12*
X163830000Y-96520000D03*
D13*
X163830000Y-93980000D03*
X163830000Y-91440000D03*
D12*
X163830000Y-127000000D03*
D13*
X163830000Y-124460000D03*
X163830000Y-121920000D03*
D12*
X163830000Y-81280000D03*
D13*
X163830000Y-78740000D03*
X163830000Y-76200000D03*
D14*
X215900000Y-84590000D03*
X215900000Y-87130000D03*
X215900000Y-89670000D03*
X215900000Y-79510000D03*
X215900000Y-76970000D03*
X215900000Y-74430000D03*
X198120000Y-89670000D03*
X198120000Y-87130000D03*
X198120000Y-84590000D03*
X198120000Y-79510000D03*
X198120000Y-76970000D03*
X198120000Y-74430000D03*
D11*
X251412400Y-116687600D03*
X251412400Y-114147600D03*
X251412400Y-111607600D03*
X251412400Y-109067600D03*
X231092400Y-106527600D03*
X251412400Y-106527600D03*
X231092400Y-103987600D03*
X251412400Y-103987600D03*
X231092400Y-101447600D03*
X251412400Y-101447600D03*
X231092400Y-98907600D03*
X251412400Y-98907600D03*
X231092400Y-96367600D03*
X251412400Y-96367600D03*
X231092400Y-93827600D03*
X251412400Y-93827600D03*
X231092400Y-91287600D03*
X251412400Y-91287600D03*
X231092400Y-88747600D03*
X251412400Y-88747600D03*
X231092400Y-86207600D03*
X251412400Y-86207600D03*
X231092400Y-83667600D03*
X251412400Y-83667600D03*
X231092400Y-81127600D03*
X251412400Y-81127600D03*
X231092400Y-78587600D03*
X251412400Y-78587600D03*
D14*
X186690000Y-111760000D03*
X186690000Y-109220000D03*
X186690000Y-106680000D03*
X168910000Y-111760000D03*
X168910000Y-109220000D03*
X168910000Y-106680000D03*
X186690000Y-96520000D03*
X186690000Y-93980000D03*
X186690000Y-91440000D03*
X168910000Y-96520000D03*
X168910000Y-93980000D03*
X168910000Y-91440000D03*
X186690000Y-127000000D03*
X186690000Y-124460000D03*
X186690000Y-121920000D03*
X168910000Y-127000000D03*
X168910000Y-124460000D03*
X168910000Y-121920000D03*
X186690000Y-81280000D03*
X186690000Y-78740000D03*
X186690000Y-76200000D03*
X168910000Y-81280000D03*
X168910000Y-78740000D03*
X168910000Y-76200000D03*
D15*
X200660000Y-148590000D03*
X198120000Y-148590000D03*
X195580000Y-148590000D03*
X203200000Y-146050000D03*
X203200000Y-143510000D03*
X200660000Y-140970000D03*
X198120000Y-140970000D03*
X195580000Y-140970000D03*
D14*
X186690000Y-142240000D03*
X186690000Y-139700000D03*
X186690000Y-137160000D03*
X168910000Y-142240000D03*
X168910000Y-139700000D03*
X168910000Y-137160000D03*
D12*
X221960000Y-127000000D03*
D13*
X221960000Y-129540000D03*
X221960000Y-132080000D03*
X221960000Y-134620000D03*
X221960000Y-137160000D03*
X221960000Y-139700000D03*
X221960000Y-142240000D03*
X221960000Y-144780000D03*
X221960000Y-147320000D03*
D12*
X251866400Y-150164800D03*
D13*
X251866400Y-147624800D03*
D12*
X251866400Y-141173200D03*
D13*
X251866400Y-143713200D03*
D16*
X248239200Y-75590400D03*
X250139200Y-75590400D03*
X249189200Y-73590400D03*
X244210800Y-75574400D03*
X246110800Y-75574400D03*
X245160800Y-73574400D03*
X240096000Y-75574400D03*
X241996000Y-75574400D03*
X241046000Y-73574400D03*
D17*
X228803200Y-74506000D03*
X228803200Y-72306000D03*
X221284800Y-74539200D03*
X221284800Y-72339200D03*
X225044000Y-74556800D03*
X225044000Y-72356800D03*
X227076000Y-72288400D03*
X227076000Y-74488400D03*
X219608400Y-72356800D03*
X219608400Y-74556800D03*
X223367600Y-72356800D03*
X223367600Y-74556800D03*
D18*
X196690000Y-96647000D03*
X196690000Y-97917000D03*
X196690000Y-99187000D03*
X196690000Y-100457000D03*
X196690000Y-101727000D03*
X196690000Y-102997000D03*
X196690000Y-104267000D03*
X196690000Y-105537000D03*
X202090000Y-105537000D03*
X202090000Y-104267000D03*
X202090000Y-102997000D03*
X202090000Y-101727000D03*
X202090000Y-100457000D03*
X202090000Y-99187000D03*
X202090000Y-97917000D03*
X202090000Y-96647000D03*
D19*
X233349800Y-133205200D03*
X234619800Y-133205200D03*
X235889800Y-133205200D03*
X237159800Y-133205200D03*
X238429800Y-133205200D03*
X239699800Y-133205200D03*
X240969800Y-133205200D03*
X242239800Y-133205200D03*
X242239800Y-127805200D03*
X240969800Y-127805200D03*
X239699800Y-127805200D03*
X238429800Y-127805200D03*
X237159800Y-127805200D03*
X235889800Y-127805200D03*
X234619800Y-127805200D03*
X233349800Y-127805200D03*
D20*
X246837200Y-133197600D03*
X246075200Y-128016000D03*
X246278400Y-86614000D03*
X250342400Y-76657200D03*
X246380000Y-76758800D03*
X242163600Y-76758800D03*
X240665000Y-113030000D03*
X242570000Y-111125000D03*
X243205000Y-115570000D03*
X245110000Y-113665000D03*
X218440000Y-92075000D03*
X246176800Y-98602800D03*
X198374000Y-103428800D03*
X198374000Y-105156000D03*
X202133200Y-92854179D03*
X193512705Y-96637010D03*
X205148139Y-100054963D03*
X190754000Y-98450400D03*
X205130400Y-96012000D03*
X205892400Y-93878400D03*
X206849600Y-83159600D03*
X203962000Y-124968000D03*
X231597200Y-130962400D03*
X201872011Y-124517989D03*
X236423200Y-125780800D03*
X207721200Y-86571200D03*
X234492800Y-145491200D03*
X236067600Y-145288000D03*
X248818400Y-92100400D03*
X237134400Y-80060800D03*
D21*
X168910000Y-142240000D02*
X163830000Y-142240000D01*
X163830000Y-139700000D02*
X168910000Y-139700000D01*
X168910000Y-111760000D02*
X163830000Y-111760000D01*
X163830000Y-109220000D02*
X168910000Y-109220000D01*
X163830000Y-96520000D02*
X168910000Y-96520000D01*
X168910000Y-93980000D02*
X163830000Y-93980000D01*
X163830000Y-127000000D02*
X168910000Y-127000000D01*
X168910000Y-124460000D02*
X163830000Y-124460000D01*
X168910000Y-81280000D02*
X163830000Y-81280000D01*
X163830000Y-78740000D02*
X168910000Y-78740000D01*
D22*
X239699800Y-133205200D02*
X240969800Y-133205200D01*
X240969800Y-133205200D02*
X242239800Y-133205200D01*
X246837200Y-133197600D02*
X242247400Y-133197600D01*
X242247400Y-133197600D02*
X242239800Y-133205200D01*
X242239800Y-127805200D02*
X245864400Y-127805200D01*
X245864400Y-127805200D02*
X246075200Y-128016000D01*
X246380000Y-76758800D02*
X246380000Y-86512400D01*
X246380000Y-86512400D02*
X246278400Y-86614000D01*
X250342400Y-76657200D02*
X250139200Y-76454000D01*
X250139200Y-75590400D02*
X250139200Y-76454000D01*
X246110800Y-75574400D02*
X246110800Y-76489600D01*
X246110800Y-76489600D02*
X246380000Y-76758800D01*
X241996000Y-75574400D02*
X241996000Y-76591200D01*
X241996000Y-76591200D02*
X242163600Y-76758800D01*
X242570000Y-111125000D02*
X240665000Y-113030000D01*
X243205000Y-115570000D02*
X245110000Y-113665000D01*
X249707400Y-109067600D02*
X245110000Y-113665000D01*
X251612400Y-109067600D02*
X249707400Y-109067600D01*
X231092400Y-93827600D02*
X219267596Y-93827600D01*
X219267596Y-93827600D02*
X217805000Y-92365004D01*
X217805000Y-92365004D02*
X217805000Y-89535000D01*
X217805000Y-89535000D02*
X216661999Y-88391999D01*
X216661999Y-88391999D02*
X215900000Y-87630000D01*
X218440000Y-92075000D02*
X219710000Y-93345000D01*
X219710000Y-93345000D02*
X228882600Y-93345000D01*
X228882600Y-93345000D02*
X230940000Y-91287600D01*
X230940000Y-91287600D02*
X231092400Y-91287600D01*
X231292400Y-91287600D02*
X230026400Y-91287600D01*
X231140000Y-91440000D02*
X231292400Y-91287600D01*
D23*
X228247400Y-119481600D02*
X243179600Y-119481600D01*
X243179600Y-119481600D02*
X244881400Y-119481600D01*
D22*
X233349800Y-127805200D02*
X233349800Y-126805200D01*
X233349800Y-126805200D02*
X240673400Y-119481600D01*
X240673400Y-119481600D02*
X243179600Y-119481600D01*
X222765200Y-127805200D02*
X221960000Y-127000000D01*
X226194400Y-73456800D02*
X223113600Y-73456800D01*
X223367600Y-73706800D02*
X223117600Y-73456800D01*
X223113600Y-73456800D02*
X218846400Y-73456800D01*
X223367600Y-74556800D02*
X223367600Y-73706800D01*
X223117600Y-73456800D02*
X223113600Y-73456800D01*
X219608400Y-74556800D02*
X219608400Y-73706800D01*
X219358400Y-73456800D02*
X218846400Y-73456800D01*
X219608400Y-73706800D02*
X219358400Y-73456800D01*
X212598000Y-73456800D02*
X212598000Y-76208000D01*
X212598000Y-76208000D02*
X215900000Y-79510000D01*
X213817200Y-72237600D02*
X212598000Y-73456800D01*
X217627200Y-72237600D02*
X213817200Y-72237600D01*
X218846400Y-73456800D02*
X217627200Y-72237600D01*
X227076000Y-74488400D02*
X227076000Y-74338400D01*
X227076000Y-74338400D02*
X226194400Y-73456800D01*
D23*
X244881400Y-119481600D02*
X248920000Y-115443000D01*
X221960000Y-127000000D02*
X221960000Y-125769000D01*
X221960000Y-125769000D02*
X228247400Y-119481600D01*
X251612400Y-114147600D02*
X250215400Y-114147600D01*
X250215400Y-114147600D02*
X248920000Y-115443000D01*
D22*
X231851200Y-77303222D02*
X221926000Y-77303222D01*
X236384387Y-81838800D02*
X236384387Y-81836409D01*
X236384387Y-81836409D02*
X231851200Y-77303222D01*
X246176800Y-97060936D02*
X246176800Y-98602800D01*
X246176800Y-97060936D02*
X246176800Y-91631213D01*
X246176800Y-91631213D02*
X236384387Y-81838800D01*
X221592778Y-76970000D02*
X216977630Y-76970000D01*
X221926000Y-77303222D02*
X221592778Y-76970000D01*
X216977630Y-76970000D02*
X215900000Y-76970000D01*
X215900000Y-77470000D02*
X216661999Y-76708001D01*
X236834399Y-81565609D02*
X236817598Y-81565609D01*
X236817598Y-81565609D02*
X232105200Y-76853211D01*
X236834399Y-81565609D02*
X246888000Y-91619210D01*
X222112400Y-76853211D02*
X232105200Y-76853211D01*
X215900000Y-74430000D02*
X217866011Y-76396011D01*
X217866011Y-76396011D02*
X221655200Y-76396011D01*
X221655200Y-76396011D02*
X222112400Y-76853211D01*
X246888000Y-91619210D02*
X246888000Y-102155600D01*
X246888000Y-102155600D02*
X251260000Y-106527600D01*
X251260000Y-106527600D02*
X251412400Y-106527600D01*
X251612400Y-106527600D02*
X251460000Y-106527600D01*
X196690000Y-102997000D02*
X197942200Y-102997000D01*
X197942200Y-102997000D02*
X198374000Y-103428800D01*
X196690000Y-105537000D02*
X197993000Y-105537000D01*
X197993000Y-105537000D02*
X198374000Y-105156000D01*
X196690000Y-102997000D02*
X196690000Y-104267000D01*
X196690000Y-104267000D02*
X196690000Y-105537000D01*
D23*
X202090000Y-92897379D02*
X202133200Y-92854179D01*
X202090000Y-96647000D02*
X202090000Y-92897379D01*
D21*
X210820000Y-115824000D02*
X225196400Y-101447600D01*
X225196400Y-101447600D02*
X231092400Y-101447600D01*
X231140000Y-101447600D02*
X231292400Y-101447600D01*
X206673490Y-119970510D02*
X210820000Y-115824000D01*
X208280000Y-139954000D02*
X208127600Y-139954000D01*
X208127600Y-139954000D02*
X206673490Y-138499890D01*
X206673490Y-138499890D02*
X206673490Y-119970510D01*
D22*
X241594801Y-128880201D02*
X240969800Y-128255200D01*
X247242999Y-128880201D02*
X241594801Y-128880201D01*
X252802367Y-123320833D02*
X247242999Y-128880201D01*
X252802367Y-103344219D02*
X252802367Y-123320833D01*
X251612400Y-102154252D02*
X252802367Y-103344219D01*
X240969800Y-128255200D02*
X240969800Y-127805200D01*
X251612400Y-101447600D02*
X251612400Y-102154252D01*
X253252378Y-103157820D02*
X253252378Y-123507233D01*
X251612400Y-83667600D02*
X251764800Y-83667600D01*
X253034800Y-84937600D02*
X253034800Y-102940242D01*
X251764800Y-83667600D02*
X253034800Y-84937600D01*
X245787199Y-130599609D02*
X244625990Y-129438400D01*
X237159800Y-128255200D02*
X237159800Y-127805200D01*
X246160001Y-130599609D02*
X245787199Y-130599609D01*
X253034800Y-102940242D02*
X253252378Y-103157820D01*
X244625990Y-129438400D02*
X238343000Y-129438400D01*
X238343000Y-129438400D02*
X237159800Y-128255200D01*
X253252378Y-123507233D02*
X246160001Y-130599609D01*
X251764800Y-81127600D02*
X253492000Y-82854800D01*
X235889800Y-132755200D02*
X235889800Y-133205200D01*
X246027222Y-131368800D02*
X237276200Y-131368800D01*
X253702389Y-123693633D02*
X246027222Y-131368800D01*
X253492000Y-82854800D02*
X253492000Y-102761030D01*
X253492000Y-102761030D02*
X253702389Y-102971419D01*
X253702389Y-102971419D02*
X253702389Y-123693633D01*
X237276200Y-131368800D02*
X235889800Y-132755200D01*
X251612400Y-81127600D02*
X251764800Y-81127600D01*
X251412400Y-78587600D02*
X251564800Y-78587600D01*
D21*
X203200000Y-146050000D02*
X203200000Y-147847000D01*
X203200000Y-147847000D02*
X207041800Y-151688800D01*
X207041800Y-151688800D02*
X234003800Y-151688800D01*
X234003800Y-151688800D02*
X244094000Y-141598600D01*
X244094000Y-141598600D02*
X244094000Y-139954000D01*
X236958102Y-145715442D02*
X232000744Y-150672800D01*
X232000744Y-150672800D02*
X212007400Y-150672800D01*
X236958102Y-144549898D02*
X236958102Y-145715442D01*
X204844600Y-143510000D02*
X203200000Y-143510000D01*
X244094000Y-137414000D02*
X236958102Y-144549898D01*
X212007400Y-150672800D02*
X204844600Y-143510000D01*
D22*
X193522695Y-96647000D02*
X193512705Y-96637010D01*
X196690000Y-96647000D02*
X193522695Y-96647000D01*
X202090000Y-101727000D02*
X203476102Y-101727000D01*
X203476102Y-101727000D02*
X204848140Y-100354962D01*
X204848140Y-100354962D02*
X205148139Y-100054963D01*
X196690000Y-101727000D02*
X191897000Y-101727000D01*
X191897000Y-101727000D02*
X186690000Y-96520000D01*
X196690000Y-97917000D02*
X191287400Y-97917000D01*
X191287400Y-97917000D02*
X190754000Y-98450400D01*
X202090000Y-97917000D02*
X201640000Y-97917000D01*
X201640000Y-97917000D02*
X199999600Y-99557400D01*
X199999600Y-99557400D02*
X199999600Y-105867200D01*
X199999600Y-105867200D02*
X188010800Y-117856000D01*
X188010800Y-117856000D02*
X188010800Y-123139200D01*
X188010800Y-123139200D02*
X186690000Y-124460000D01*
X195690000Y-100457000D02*
X196690000Y-100457000D01*
X191835596Y-100457000D02*
X195690000Y-100457000D01*
X190128998Y-98750402D02*
X191835596Y-100457000D01*
X186690000Y-81280000D02*
X190128998Y-84718998D01*
X190128998Y-84718998D02*
X190128998Y-98750402D01*
X202090000Y-99187000D02*
X202540000Y-99187000D01*
X202540000Y-99187000D02*
X205130400Y-96596600D01*
X205130400Y-96596600D02*
X205130400Y-96511602D01*
X205130400Y-96511602D02*
X205130400Y-96012000D01*
X207111600Y-95097600D02*
X205892400Y-93878400D01*
X207111600Y-98975400D02*
X207111600Y-95097600D01*
X202090000Y-102997000D02*
X203090000Y-102997000D01*
X203090000Y-102997000D02*
X207111600Y-98975400D01*
X196690000Y-99187000D02*
X197690000Y-99187000D01*
X197690000Y-99187000D02*
X198120000Y-98757000D01*
X198120000Y-98757000D02*
X198120000Y-90747630D01*
X198120000Y-90747630D02*
X198120000Y-89670000D01*
X206451200Y-97095800D02*
X206451200Y-95461200D01*
X206451200Y-95461200D02*
X206341600Y-95351600D01*
X206341600Y-95351600D02*
X198120000Y-87130000D01*
X202090000Y-100457000D02*
X203090000Y-100457000D01*
X203090000Y-100457000D02*
X206451200Y-97095800D01*
X206849600Y-83583864D02*
X206849600Y-83159600D01*
X206849600Y-94199190D02*
X206849600Y-83583864D01*
X207561611Y-94911200D02*
X206849600Y-94199190D01*
X207561611Y-99245389D02*
X207561611Y-94911200D01*
X202540000Y-104267000D02*
X207561611Y-99245389D01*
X202090000Y-104267000D02*
X202540000Y-104267000D01*
X193310000Y-135620000D02*
X203962000Y-124968000D01*
X231597200Y-131002600D02*
X231597200Y-130962400D01*
X233349800Y-133205200D02*
X233349800Y-132755200D01*
X233349800Y-132755200D02*
X231597200Y-131002600D01*
X186690000Y-142240000D02*
X193310000Y-135620000D01*
X193310000Y-133080000D02*
X201872011Y-124517989D01*
X238429800Y-127805200D02*
X238429800Y-127355200D01*
X238429800Y-127355200D02*
X236855400Y-125780800D01*
X236855400Y-125780800D02*
X236423200Y-125780800D01*
X186690000Y-139700000D02*
X193310000Y-133080000D01*
X238429800Y-133205200D02*
X238429800Y-133655200D01*
X238429800Y-133655200D02*
X232385000Y-139700000D01*
X232385000Y-139700000D02*
X223162081Y-139700000D01*
X223162081Y-139700000D02*
X221960000Y-139700000D01*
X235889800Y-128255200D02*
X235889800Y-127805200D01*
X233807602Y-130337398D02*
X235889800Y-128255200D01*
X221960000Y-137160000D02*
X228782602Y-130337398D01*
X228782602Y-130337398D02*
X233807602Y-130337398D01*
X208062422Y-86912422D02*
X208021199Y-86871199D01*
X202090000Y-105537000D02*
X202540000Y-105537000D01*
X202540000Y-105537000D02*
X208062422Y-100014578D01*
X208021199Y-86871199D02*
X207721200Y-86571200D01*
X208062422Y-100014578D02*
X208062422Y-86912422D01*
D23*
X234192801Y-145791199D02*
X234492800Y-145491200D01*
X231009811Y-148974189D02*
X234192801Y-145791199D01*
X220856189Y-148974189D02*
X231009811Y-148974189D01*
X210950189Y-139068189D02*
X220856189Y-148974189D01*
X213360000Y-134874000D02*
X211963000Y-134874000D01*
X210950189Y-135886811D02*
X210950189Y-139068189D01*
X211963000Y-134874000D02*
X210950189Y-135886811D01*
X235767601Y-145587999D02*
X236067600Y-145288000D01*
X210369178Y-134029422D02*
X210369178Y-139604778D01*
X213360000Y-131038600D02*
X210369178Y-134029422D01*
X231648000Y-149707600D02*
X235767601Y-145587999D01*
X220472000Y-149707600D02*
X231648000Y-149707600D01*
X210369178Y-139604778D02*
X220472000Y-149707600D01*
X213360000Y-129794000D02*
X213360000Y-131038600D01*
X238607600Y-117094000D02*
X238760000Y-117094000D01*
D22*
X227076000Y-72288400D02*
X228785600Y-72288400D01*
X228785600Y-72288400D02*
X228803200Y-72306000D01*
X219608400Y-72356800D02*
X221267200Y-72356800D01*
X221267200Y-72356800D02*
X221284800Y-72339200D01*
X223367600Y-72356800D02*
X225044000Y-72356800D01*
X251412400Y-96367600D02*
X250146400Y-96367600D01*
X250146400Y-96367600D02*
X249443402Y-95664602D01*
X249443402Y-95664602D02*
X249443402Y-91800398D01*
X249443402Y-91800398D02*
X248239200Y-90596196D01*
X248239200Y-90596196D02*
X248239200Y-75590400D01*
X251460000Y-96367600D02*
X251612400Y-96367600D01*
X231771600Y-72237600D02*
X247186400Y-72237600D01*
X247186400Y-72237600D02*
X248539200Y-73590400D01*
X248539200Y-73590400D02*
X249189200Y-73590400D01*
X228803200Y-74506000D02*
X229503200Y-74506000D01*
X229503200Y-74506000D02*
X231771600Y-72237600D01*
X244210800Y-75574400D02*
X244210800Y-87492800D01*
X244210800Y-87492800D02*
X248818400Y-92100400D01*
X222298800Y-76403200D02*
X233934000Y-76403200D01*
X243561600Y-74523600D02*
X235813600Y-74523600D01*
X235813600Y-74523600D02*
X233934000Y-76403200D01*
X245160800Y-73574400D02*
X244510800Y-73574400D01*
X244510800Y-73574400D02*
X243561600Y-74523600D01*
X221284800Y-74539200D02*
X221284800Y-75389200D01*
X221284800Y-75389200D02*
X222298800Y-76403200D01*
X240096000Y-77099200D02*
X237134400Y-80060800D01*
X240096000Y-75574400D02*
X240096000Y-77099200D01*
X226283200Y-75946000D02*
X233578400Y-75946000D01*
X233578400Y-75946000D02*
X235950000Y-73574400D01*
X235950000Y-73574400D02*
X241046000Y-73574400D01*
X225044000Y-74556800D02*
X225044000Y-74706800D01*
X225044000Y-74706800D02*
X226283200Y-75946000D01*
D24*
G36*
X212060599Y-72919399D02*
X211895852Y-73165961D01*
X211838000Y-73456800D01*
X211838000Y-76208000D01*
X211895852Y-76498839D01*
X212060599Y-76745401D01*
X214515817Y-79200619D01*
X214503243Y-79230900D01*
X214502758Y-79786661D01*
X214714990Y-80300303D01*
X215107630Y-80693629D01*
X215620900Y-80906757D01*
X216176661Y-80907242D01*
X216690303Y-80695010D01*
X217083629Y-80302370D01*
X217296757Y-79789100D01*
X217297242Y-79233339D01*
X217085010Y-78719697D01*
X216692370Y-78326371D01*
X216484488Y-78240051D01*
X216690303Y-78155010D01*
X217083629Y-77762370D01*
X217097070Y-77730000D01*
X221277976Y-77730000D01*
X221388599Y-77840623D01*
X221635161Y-78005370D01*
X221926000Y-78063222D01*
X229513360Y-78063222D01*
X229409055Y-78587600D01*
X229523129Y-79161089D01*
X229847985Y-79647270D01*
X230162766Y-79857600D01*
X229847985Y-80067930D01*
X229523129Y-80554111D01*
X229409055Y-81127600D01*
X229523129Y-81701089D01*
X229847985Y-82187270D01*
X230162766Y-82397600D01*
X229847985Y-82607930D01*
X229523129Y-83094111D01*
X229409055Y-83667600D01*
X229523129Y-84241089D01*
X229847985Y-84727270D01*
X230162766Y-84937600D01*
X229847985Y-85147930D01*
X229523129Y-85634111D01*
X229409055Y-86207600D01*
X229523129Y-86781089D01*
X229847985Y-87267270D01*
X230162766Y-87477600D01*
X229847985Y-87687930D01*
X229523129Y-88174111D01*
X229409055Y-88747600D01*
X229523129Y-89321089D01*
X229847985Y-89807270D01*
X230162766Y-90017600D01*
X229847985Y-90227930D01*
X229523129Y-90714111D01*
X229520082Y-90729430D01*
X229488999Y-90750199D01*
X229324252Y-90996761D01*
X229266400Y-91287600D01*
X229324252Y-91578439D01*
X229424431Y-91728367D01*
X228567798Y-92585000D01*
X220024802Y-92585000D01*
X219375122Y-91935320D01*
X219375162Y-91889833D01*
X219233117Y-91546057D01*
X218970327Y-91282808D01*
X218626799Y-91140162D01*
X218565000Y-91140108D01*
X218565000Y-89535000D01*
X218507148Y-89244161D01*
X218342401Y-88997599D01*
X217137481Y-87792679D01*
X217296757Y-87409100D01*
X217297242Y-86853339D01*
X217085010Y-86339697D01*
X216692370Y-85946371D01*
X216500273Y-85866605D01*
X216631143Y-85812397D01*
X216700608Y-85570213D01*
X215900000Y-84769605D01*
X215099392Y-85570213D01*
X215168857Y-85812397D01*
X215309318Y-85862509D01*
X215109697Y-85944990D01*
X214716371Y-86337630D01*
X214503243Y-86850900D01*
X214502758Y-87406661D01*
X214714990Y-87920303D01*
X215107630Y-88313629D01*
X215315512Y-88399949D01*
X215109697Y-88484990D01*
X214716371Y-88877630D01*
X214503243Y-89390900D01*
X214502758Y-89946661D01*
X214714990Y-90460303D01*
X215107630Y-90853629D01*
X215620900Y-91066757D01*
X216176661Y-91067242D01*
X216690303Y-90855010D01*
X217045000Y-90500932D01*
X217045000Y-92365004D01*
X217102852Y-92655843D01*
X217267599Y-92902405D01*
X218730195Y-94365001D01*
X218976757Y-94529748D01*
X219267596Y-94587600D01*
X229647752Y-94587600D01*
X229847985Y-94887270D01*
X230162766Y-95097600D01*
X229847985Y-95307930D01*
X229523129Y-95794111D01*
X229409055Y-96367600D01*
X229523129Y-96941089D01*
X229847985Y-97427270D01*
X230162766Y-97637600D01*
X229847985Y-97847930D01*
X229523129Y-98334111D01*
X229409055Y-98907600D01*
X229523129Y-99481089D01*
X229847985Y-99967270D01*
X230162766Y-100177600D01*
X229847985Y-100387930D01*
X229825153Y-100422100D01*
X225196400Y-100422100D01*
X224803958Y-100500162D01*
X224523437Y-100687600D01*
X224471262Y-100722462D01*
X205948352Y-119245372D01*
X205726052Y-119578068D01*
X205647990Y-119970510D01*
X205647990Y-138499890D01*
X205726052Y-138892332D01*
X205906638Y-139162599D01*
X205948352Y-139225028D01*
X206610039Y-139886715D01*
X206596655Y-139954000D01*
X206710729Y-140527489D01*
X207035585Y-141013670D01*
X207521766Y-141338526D01*
X208095255Y-141452600D01*
X208464745Y-141452600D01*
X209038234Y-141338526D01*
X209524415Y-141013670D01*
X209849271Y-140527489D01*
X209894927Y-140297961D01*
X219244266Y-149647300D01*
X212432176Y-149647300D01*
X205569738Y-142784862D01*
X205398792Y-142670640D01*
X205237042Y-142562562D01*
X204844600Y-142484500D01*
X204405944Y-142484500D01*
X204259670Y-142265585D01*
X203773489Y-141940729D01*
X203200000Y-141826655D01*
X202626511Y-141940729D01*
X202140330Y-142265585D01*
X201815474Y-142751766D01*
X201701400Y-143325255D01*
X201701400Y-143694745D01*
X201815474Y-144268234D01*
X202140330Y-144754415D01*
X202178621Y-144780000D01*
X202140330Y-144805585D01*
X201815474Y-145291766D01*
X201701400Y-145865255D01*
X201701400Y-146234745D01*
X201815474Y-146808234D01*
X202140330Y-147294415D01*
X202174500Y-147317247D01*
X202174500Y-147847000D01*
X202252562Y-148239442D01*
X202339834Y-148370054D01*
X202474862Y-148572138D01*
X205592724Y-151690000D01*
X158190000Y-151690000D01*
X158190000Y-148405255D01*
X194081400Y-148405255D01*
X194081400Y-148774745D01*
X194195474Y-149348234D01*
X194520330Y-149834415D01*
X195006511Y-150159271D01*
X195580000Y-150273345D01*
X196153489Y-150159271D01*
X196639670Y-149834415D01*
X196850000Y-149519634D01*
X197060330Y-149834415D01*
X197546511Y-150159271D01*
X198120000Y-150273345D01*
X198693489Y-150159271D01*
X199179670Y-149834415D01*
X199390000Y-149519634D01*
X199600330Y-149834415D01*
X200086511Y-150159271D01*
X200660000Y-150273345D01*
X201233489Y-150159271D01*
X201719670Y-149834415D01*
X202044526Y-149348234D01*
X202158600Y-148774745D01*
X202158600Y-148405255D01*
X202044526Y-147831766D01*
X201719670Y-147345585D01*
X201233489Y-147020729D01*
X200660000Y-146906655D01*
X200086511Y-147020729D01*
X199600330Y-147345585D01*
X199390000Y-147660366D01*
X199179670Y-147345585D01*
X198693489Y-147020729D01*
X198120000Y-146906655D01*
X197546511Y-147020729D01*
X197060330Y-147345585D01*
X196850000Y-147660366D01*
X196639670Y-147345585D01*
X196153489Y-147020729D01*
X195580000Y-146906655D01*
X195006511Y-147020729D01*
X194520330Y-147345585D01*
X194195474Y-147831766D01*
X194081400Y-148405255D01*
X158190000Y-148405255D01*
X158190000Y-137160000D01*
X162315907Y-137160000D01*
X162428946Y-137728285D01*
X162750853Y-138210054D01*
X163080026Y-138430000D01*
X162750853Y-138649946D01*
X162428946Y-139131715D01*
X162315907Y-139700000D01*
X162428946Y-140268285D01*
X162750853Y-140750054D01*
X162792452Y-140777850D01*
X162744683Y-140786838D01*
X162528559Y-140925910D01*
X162383569Y-141138110D01*
X162332560Y-141390000D01*
X162332560Y-143090000D01*
X162376838Y-143325317D01*
X162515910Y-143541441D01*
X162728110Y-143686431D01*
X162980000Y-143737440D01*
X164680000Y-143737440D01*
X164915317Y-143693162D01*
X165131441Y-143554090D01*
X165276431Y-143341890D01*
X165291900Y-143265500D01*
X167959777Y-143265500D01*
X168117630Y-143423629D01*
X168630900Y-143636757D01*
X169186661Y-143637242D01*
X169700303Y-143425010D01*
X170093629Y-143032370D01*
X170306757Y-142519100D01*
X170307242Y-141963339D01*
X170095010Y-141449697D01*
X169702370Y-141056371D01*
X169494488Y-140970051D01*
X169700303Y-140885010D01*
X170093629Y-140492370D01*
X170306757Y-139979100D01*
X170306759Y-139976661D01*
X185292758Y-139976661D01*
X185504990Y-140490303D01*
X185897630Y-140883629D01*
X186105512Y-140969949D01*
X185899697Y-141054990D01*
X185506371Y-141447630D01*
X185293243Y-141960900D01*
X185292758Y-142516661D01*
X185504990Y-143030303D01*
X185897630Y-143423629D01*
X186410900Y-143636757D01*
X186966661Y-143637242D01*
X187480303Y-143425010D01*
X187873629Y-143032370D01*
X188086757Y-142519100D01*
X188087242Y-141963339D01*
X188073857Y-141930945D01*
X189219547Y-140785255D01*
X194081400Y-140785255D01*
X194081400Y-141154745D01*
X194195474Y-141728234D01*
X194520330Y-142214415D01*
X195006511Y-142539271D01*
X195580000Y-142653345D01*
X196153489Y-142539271D01*
X196639670Y-142214415D01*
X196846461Y-141904931D01*
X197217964Y-142320732D01*
X197745209Y-142574709D01*
X197760974Y-142577358D01*
X197993000Y-142456217D01*
X197993000Y-141097000D01*
X197973000Y-141097000D01*
X197973000Y-140843000D01*
X197993000Y-140843000D01*
X197993000Y-139483783D01*
X198247000Y-139483783D01*
X198247000Y-140843000D01*
X198267000Y-140843000D01*
X198267000Y-141097000D01*
X198247000Y-141097000D01*
X198247000Y-142456217D01*
X198479026Y-142577358D01*
X198494791Y-142574709D01*
X199022036Y-142320732D01*
X199393539Y-141904931D01*
X199600330Y-142214415D01*
X200086511Y-142539271D01*
X200660000Y-142653345D01*
X201233489Y-142539271D01*
X201719670Y-142214415D01*
X202044526Y-141728234D01*
X202158600Y-141154745D01*
X202158600Y-140785255D01*
X202044526Y-140211766D01*
X201719670Y-139725585D01*
X201233489Y-139400729D01*
X200660000Y-139286655D01*
X200086511Y-139400729D01*
X199600330Y-139725585D01*
X199393539Y-140035069D01*
X199022036Y-139619268D01*
X198494791Y-139365291D01*
X198479026Y-139362642D01*
X198247000Y-139483783D01*
X197993000Y-139483783D01*
X197760974Y-139362642D01*
X197745209Y-139365291D01*
X197217964Y-139619268D01*
X196846461Y-140035069D01*
X196639670Y-139725585D01*
X196153489Y-139400729D01*
X195580000Y-139286655D01*
X195006511Y-139400729D01*
X194520330Y-139725585D01*
X194195474Y-140211766D01*
X194081400Y-140785255D01*
X189219547Y-140785255D01*
X204101680Y-125903122D01*
X204147167Y-125903162D01*
X204490943Y-125761117D01*
X204754192Y-125498327D01*
X204896838Y-125154799D01*
X204897162Y-124782833D01*
X204755117Y-124439057D01*
X204492327Y-124175808D01*
X204148799Y-124033162D01*
X203776833Y-124032838D01*
X203433057Y-124174883D01*
X203169808Y-124437673D01*
X203027162Y-124781201D01*
X203027121Y-124828077D01*
X188086941Y-139768257D01*
X188087242Y-139423339D01*
X188073857Y-139390945D01*
X202011691Y-125453111D01*
X202057178Y-125453151D01*
X202400954Y-125311106D01*
X202664203Y-125048316D01*
X202806849Y-124704788D01*
X202807173Y-124332822D01*
X202665128Y-123989046D01*
X202402338Y-123725797D01*
X202058810Y-123583151D01*
X201686844Y-123582827D01*
X201343068Y-123724872D01*
X201079819Y-123987662D01*
X200937173Y-124331190D01*
X200937132Y-124378066D01*
X188091916Y-137223282D01*
X188071362Y-136812632D01*
X187912397Y-136428857D01*
X187670213Y-136359392D01*
X186869605Y-137160000D01*
X186883748Y-137174143D01*
X186704143Y-137353748D01*
X186690000Y-137339605D01*
X185889392Y-138140213D01*
X185958857Y-138382397D01*
X186099318Y-138432509D01*
X185899697Y-138514990D01*
X185506371Y-138907630D01*
X185293243Y-139420900D01*
X185292758Y-139976661D01*
X170306759Y-139976661D01*
X170307242Y-139423339D01*
X170095010Y-138909697D01*
X169702370Y-138516371D01*
X169494488Y-138430051D01*
X169700303Y-138345010D01*
X170093629Y-137952370D01*
X170306757Y-137439100D01*
X170307181Y-136952302D01*
X185280856Y-136952302D01*
X185308638Y-137507368D01*
X185467603Y-137891143D01*
X185709787Y-137960608D01*
X186510395Y-137160000D01*
X185709787Y-136359392D01*
X185467603Y-136428857D01*
X185280856Y-136952302D01*
X170307181Y-136952302D01*
X170307242Y-136883339D01*
X170095010Y-136369697D01*
X169905432Y-136179787D01*
X185889392Y-136179787D01*
X186690000Y-136980395D01*
X187490608Y-136179787D01*
X187421143Y-135937603D01*
X186897698Y-135750856D01*
X186342632Y-135778638D01*
X185958857Y-135937603D01*
X185889392Y-136179787D01*
X169905432Y-136179787D01*
X169702370Y-135976371D01*
X169189100Y-135763243D01*
X168633339Y-135762758D01*
X168119697Y-135974990D01*
X167726371Y-136367630D01*
X167513243Y-136880900D01*
X167512758Y-137436661D01*
X167724990Y-137950303D01*
X168117630Y-138343629D01*
X168325512Y-138429949D01*
X168119697Y-138514990D01*
X167959908Y-138674500D01*
X164925553Y-138674500D01*
X164909147Y-138649946D01*
X164579974Y-138430000D01*
X164909147Y-138210054D01*
X165231054Y-137728285D01*
X165344093Y-137160000D01*
X165231054Y-136591715D01*
X164909147Y-136109946D01*
X164427378Y-135788039D01*
X163859093Y-135675000D01*
X163800907Y-135675000D01*
X163232622Y-135788039D01*
X162750853Y-136109946D01*
X162428946Y-136591715D01*
X162315907Y-137160000D01*
X158190000Y-137160000D01*
X158190000Y-132207000D01*
X189230000Y-132207000D01*
X189279410Y-132196994D01*
X189321035Y-132168553D01*
X189348315Y-132126159D01*
X189357000Y-132080000D01*
X189357000Y-117584602D01*
X199118602Y-107823000D01*
X211328000Y-107823000D01*
X211377410Y-107812994D01*
X211419035Y-107784553D01*
X211446315Y-107742159D01*
X211455000Y-107696000D01*
X211455000Y-84382302D01*
X214490856Y-84382302D01*
X214518638Y-84937368D01*
X214677603Y-85321143D01*
X214919787Y-85390608D01*
X215720395Y-84590000D01*
X216079605Y-84590000D01*
X216880213Y-85390608D01*
X217122397Y-85321143D01*
X217309144Y-84797698D01*
X217281362Y-84242632D01*
X217122397Y-83858857D01*
X216880213Y-83789392D01*
X216079605Y-84590000D01*
X215720395Y-84590000D01*
X214919787Y-83789392D01*
X214677603Y-83858857D01*
X214490856Y-84382302D01*
X211455000Y-84382302D01*
X211455000Y-83609787D01*
X215099392Y-83609787D01*
X215900000Y-84410395D01*
X216700608Y-83609787D01*
X216631143Y-83367603D01*
X216107698Y-83180856D01*
X215552632Y-83208638D01*
X215168857Y-83367603D01*
X215099392Y-83609787D01*
X211455000Y-83609787D01*
X211455000Y-71830000D01*
X213149998Y-71830000D01*
X212060599Y-72919399D01*
X212060599Y-72919399D01*
G37*
X212060599Y-72919399D02*
X211895852Y-73165961D01*
X211838000Y-73456800D01*
X211838000Y-76208000D01*
X211895852Y-76498839D01*
X212060599Y-76745401D01*
X214515817Y-79200619D01*
X214503243Y-79230900D01*
X214502758Y-79786661D01*
X214714990Y-80300303D01*
X215107630Y-80693629D01*
X215620900Y-80906757D01*
X216176661Y-80907242D01*
X216690303Y-80695010D01*
X217083629Y-80302370D01*
X217296757Y-79789100D01*
X217297242Y-79233339D01*
X217085010Y-78719697D01*
X216692370Y-78326371D01*
X216484488Y-78240051D01*
X216690303Y-78155010D01*
X217083629Y-77762370D01*
X217097070Y-77730000D01*
X221277976Y-77730000D01*
X221388599Y-77840623D01*
X221635161Y-78005370D01*
X221926000Y-78063222D01*
X229513360Y-78063222D01*
X229409055Y-78587600D01*
X229523129Y-79161089D01*
X229847985Y-79647270D01*
X230162766Y-79857600D01*
X229847985Y-80067930D01*
X229523129Y-80554111D01*
X229409055Y-81127600D01*
X229523129Y-81701089D01*
X229847985Y-82187270D01*
X230162766Y-82397600D01*
X229847985Y-82607930D01*
X229523129Y-83094111D01*
X229409055Y-83667600D01*
X229523129Y-84241089D01*
X229847985Y-84727270D01*
X230162766Y-84937600D01*
X229847985Y-85147930D01*
X229523129Y-85634111D01*
X229409055Y-86207600D01*
X229523129Y-86781089D01*
X229847985Y-87267270D01*
X230162766Y-87477600D01*
X229847985Y-87687930D01*
X229523129Y-88174111D01*
X229409055Y-88747600D01*
X229523129Y-89321089D01*
X229847985Y-89807270D01*
X230162766Y-90017600D01*
X229847985Y-90227930D01*
X229523129Y-90714111D01*
X229520082Y-90729430D01*
X229488999Y-90750199D01*
X229324252Y-90996761D01*
X229266400Y-91287600D01*
X229324252Y-91578439D01*
X229424431Y-91728367D01*
X228567798Y-92585000D01*
X220024802Y-92585000D01*
X219375122Y-91935320D01*
X219375162Y-91889833D01*
X219233117Y-91546057D01*
X218970327Y-91282808D01*
X218626799Y-91140162D01*
X218565000Y-91140108D01*
X218565000Y-89535000D01*
X218507148Y-89244161D01*
X218342401Y-88997599D01*
X217137481Y-87792679D01*
X217296757Y-87409100D01*
X217297242Y-86853339D01*
X217085010Y-86339697D01*
X216692370Y-85946371D01*
X216500273Y-85866605D01*
X216631143Y-85812397D01*
X216700608Y-85570213D01*
X215900000Y-84769605D01*
X215099392Y-85570213D01*
X215168857Y-85812397D01*
X215309318Y-85862509D01*
X215109697Y-85944990D01*
X214716371Y-86337630D01*
X214503243Y-86850900D01*
X214502758Y-87406661D01*
X214714990Y-87920303D01*
X215107630Y-88313629D01*
X215315512Y-88399949D01*
X215109697Y-88484990D01*
X214716371Y-88877630D01*
X214503243Y-89390900D01*
X214502758Y-89946661D01*
X214714990Y-90460303D01*
X215107630Y-90853629D01*
X215620900Y-91066757D01*
X216176661Y-91067242D01*
X216690303Y-90855010D01*
X217045000Y-90500932D01*
X217045000Y-92365004D01*
X217102852Y-92655843D01*
X217267599Y-92902405D01*
X218730195Y-94365001D01*
X218976757Y-94529748D01*
X219267596Y-94587600D01*
X229647752Y-94587600D01*
X229847985Y-94887270D01*
X230162766Y-95097600D01*
X229847985Y-95307930D01*
X229523129Y-95794111D01*
X229409055Y-96367600D01*
X229523129Y-96941089D01*
X229847985Y-97427270D01*
X230162766Y-97637600D01*
X229847985Y-97847930D01*
X229523129Y-98334111D01*
X229409055Y-98907600D01*
X229523129Y-99481089D01*
X229847985Y-99967270D01*
X230162766Y-100177600D01*
X229847985Y-100387930D01*
X229825153Y-100422100D01*
X225196400Y-100422100D01*
X224803958Y-100500162D01*
X224523437Y-100687600D01*
X224471262Y-100722462D01*
X205948352Y-119245372D01*
X205726052Y-119578068D01*
X205647990Y-119970510D01*
X205647990Y-138499890D01*
X205726052Y-138892332D01*
X205906638Y-139162599D01*
X205948352Y-139225028D01*
X206610039Y-139886715D01*
X206596655Y-139954000D01*
X206710729Y-140527489D01*
X207035585Y-141013670D01*
X207521766Y-141338526D01*
X208095255Y-141452600D01*
X208464745Y-141452600D01*
X209038234Y-141338526D01*
X209524415Y-141013670D01*
X209849271Y-140527489D01*
X209894927Y-140297961D01*
X219244266Y-149647300D01*
X212432176Y-149647300D01*
X205569738Y-142784862D01*
X205398792Y-142670640D01*
X205237042Y-142562562D01*
X204844600Y-142484500D01*
X204405944Y-142484500D01*
X204259670Y-142265585D01*
X203773489Y-141940729D01*
X203200000Y-141826655D01*
X202626511Y-141940729D01*
X202140330Y-142265585D01*
X201815474Y-142751766D01*
X201701400Y-143325255D01*
X201701400Y-143694745D01*
X201815474Y-144268234D01*
X202140330Y-144754415D01*
X202178621Y-144780000D01*
X202140330Y-144805585D01*
X201815474Y-145291766D01*
X201701400Y-145865255D01*
X201701400Y-146234745D01*
X201815474Y-146808234D01*
X202140330Y-147294415D01*
X202174500Y-147317247D01*
X202174500Y-147847000D01*
X202252562Y-148239442D01*
X202339834Y-148370054D01*
X202474862Y-148572138D01*
X205592724Y-151690000D01*
X158190000Y-151690000D01*
X158190000Y-148405255D01*
X194081400Y-148405255D01*
X194081400Y-148774745D01*
X194195474Y-149348234D01*
X194520330Y-149834415D01*
X195006511Y-150159271D01*
X195580000Y-150273345D01*
X196153489Y-150159271D01*
X196639670Y-149834415D01*
X196850000Y-149519634D01*
X197060330Y-149834415D01*
X197546511Y-150159271D01*
X198120000Y-150273345D01*
X198693489Y-150159271D01*
X199179670Y-149834415D01*
X199390000Y-149519634D01*
X199600330Y-149834415D01*
X200086511Y-150159271D01*
X200660000Y-150273345D01*
X201233489Y-150159271D01*
X201719670Y-149834415D01*
X202044526Y-149348234D01*
X202158600Y-148774745D01*
X202158600Y-148405255D01*
X202044526Y-147831766D01*
X201719670Y-147345585D01*
X201233489Y-147020729D01*
X200660000Y-146906655D01*
X200086511Y-147020729D01*
X199600330Y-147345585D01*
X199390000Y-147660366D01*
X199179670Y-147345585D01*
X198693489Y-147020729D01*
X198120000Y-146906655D01*
X197546511Y-147020729D01*
X197060330Y-147345585D01*
X196850000Y-147660366D01*
X196639670Y-147345585D01*
X196153489Y-147020729D01*
X195580000Y-146906655D01*
X195006511Y-147020729D01*
X194520330Y-147345585D01*
X194195474Y-147831766D01*
X194081400Y-148405255D01*
X158190000Y-148405255D01*
X158190000Y-137160000D01*
X162315907Y-137160000D01*
X162428946Y-137728285D01*
X162750853Y-138210054D01*
X163080026Y-138430000D01*
X162750853Y-138649946D01*
X162428946Y-139131715D01*
X162315907Y-139700000D01*
X162428946Y-140268285D01*
X162750853Y-140750054D01*
X162792452Y-140777850D01*
X162744683Y-140786838D01*
X162528559Y-140925910D01*
X162383569Y-141138110D01*
X162332560Y-141390000D01*
X162332560Y-143090000D01*
X162376838Y-143325317D01*
X162515910Y-143541441D01*
X162728110Y-143686431D01*
X162980000Y-143737440D01*
X164680000Y-143737440D01*
X164915317Y-143693162D01*
X165131441Y-143554090D01*
X165276431Y-143341890D01*
X165291900Y-143265500D01*
X167959777Y-143265500D01*
X168117630Y-143423629D01*
X168630900Y-143636757D01*
X169186661Y-143637242D01*
X169700303Y-143425010D01*
X170093629Y-143032370D01*
X170306757Y-142519100D01*
X170307242Y-141963339D01*
X170095010Y-141449697D01*
X169702370Y-141056371D01*
X169494488Y-140970051D01*
X169700303Y-140885010D01*
X170093629Y-140492370D01*
X170306757Y-139979100D01*
X170306759Y-139976661D01*
X185292758Y-139976661D01*
X185504990Y-140490303D01*
X185897630Y-140883629D01*
X186105512Y-140969949D01*
X185899697Y-141054990D01*
X185506371Y-141447630D01*
X185293243Y-141960900D01*
X185292758Y-142516661D01*
X185504990Y-143030303D01*
X185897630Y-143423629D01*
X186410900Y-143636757D01*
X186966661Y-143637242D01*
X187480303Y-143425010D01*
X187873629Y-143032370D01*
X188086757Y-142519100D01*
X188087242Y-141963339D01*
X188073857Y-141930945D01*
X189219547Y-140785255D01*
X194081400Y-140785255D01*
X194081400Y-141154745D01*
X194195474Y-141728234D01*
X194520330Y-142214415D01*
X195006511Y-142539271D01*
X195580000Y-142653345D01*
X196153489Y-142539271D01*
X196639670Y-142214415D01*
X196846461Y-141904931D01*
X197217964Y-142320732D01*
X197745209Y-142574709D01*
X197760974Y-142577358D01*
X197993000Y-142456217D01*
X197993000Y-141097000D01*
X197973000Y-141097000D01*
X197973000Y-140843000D01*
X197993000Y-140843000D01*
X197993000Y-139483783D01*
X198247000Y-139483783D01*
X198247000Y-140843000D01*
X198267000Y-140843000D01*
X198267000Y-141097000D01*
X198247000Y-141097000D01*
X198247000Y-142456217D01*
X198479026Y-142577358D01*
X198494791Y-142574709D01*
X199022036Y-142320732D01*
X199393539Y-141904931D01*
X199600330Y-142214415D01*
X200086511Y-142539271D01*
X200660000Y-142653345D01*
X201233489Y-142539271D01*
X201719670Y-142214415D01*
X202044526Y-141728234D01*
X202158600Y-141154745D01*
X202158600Y-140785255D01*
X202044526Y-140211766D01*
X201719670Y-139725585D01*
X201233489Y-139400729D01*
X200660000Y-139286655D01*
X200086511Y-139400729D01*
X199600330Y-139725585D01*
X199393539Y-140035069D01*
X199022036Y-139619268D01*
X198494791Y-139365291D01*
X198479026Y-139362642D01*
X198247000Y-139483783D01*
X197993000Y-139483783D01*
X197760974Y-139362642D01*
X197745209Y-139365291D01*
X197217964Y-139619268D01*
X196846461Y-140035069D01*
X196639670Y-139725585D01*
X196153489Y-139400729D01*
X195580000Y-139286655D01*
X195006511Y-139400729D01*
X194520330Y-139725585D01*
X194195474Y-140211766D01*
X194081400Y-140785255D01*
X189219547Y-140785255D01*
X204101680Y-125903122D01*
X204147167Y-125903162D01*
X204490943Y-125761117D01*
X204754192Y-125498327D01*
X204896838Y-125154799D01*
X204897162Y-124782833D01*
X204755117Y-124439057D01*
X204492327Y-124175808D01*
X204148799Y-124033162D01*
X203776833Y-124032838D01*
X203433057Y-124174883D01*
X203169808Y-124437673D01*
X203027162Y-124781201D01*
X203027121Y-124828077D01*
X188086941Y-139768257D01*
X188087242Y-139423339D01*
X188073857Y-139390945D01*
X202011691Y-125453111D01*
X202057178Y-125453151D01*
X202400954Y-125311106D01*
X202664203Y-125048316D01*
X202806849Y-124704788D01*
X202807173Y-124332822D01*
X202665128Y-123989046D01*
X202402338Y-123725797D01*
X202058810Y-123583151D01*
X201686844Y-123582827D01*
X201343068Y-123724872D01*
X201079819Y-123987662D01*
X200937173Y-124331190D01*
X200937132Y-124378066D01*
X188091916Y-137223282D01*
X188071362Y-136812632D01*
X187912397Y-136428857D01*
X187670213Y-136359392D01*
X186869605Y-137160000D01*
X186883748Y-137174143D01*
X186704143Y-137353748D01*
X186690000Y-137339605D01*
X185889392Y-138140213D01*
X185958857Y-138382397D01*
X186099318Y-138432509D01*
X185899697Y-138514990D01*
X185506371Y-138907630D01*
X185293243Y-139420900D01*
X185292758Y-139976661D01*
X170306759Y-139976661D01*
X170307242Y-139423339D01*
X170095010Y-138909697D01*
X169702370Y-138516371D01*
X169494488Y-138430051D01*
X169700303Y-138345010D01*
X170093629Y-137952370D01*
X170306757Y-137439100D01*
X170307181Y-136952302D01*
X185280856Y-136952302D01*
X185308638Y-137507368D01*
X185467603Y-137891143D01*
X185709787Y-137960608D01*
X186510395Y-137160000D01*
X185709787Y-136359392D01*
X185467603Y-136428857D01*
X185280856Y-136952302D01*
X170307181Y-136952302D01*
X170307242Y-136883339D01*
X170095010Y-136369697D01*
X169905432Y-136179787D01*
X185889392Y-136179787D01*
X186690000Y-136980395D01*
X187490608Y-136179787D01*
X187421143Y-135937603D01*
X186897698Y-135750856D01*
X186342632Y-135778638D01*
X185958857Y-135937603D01*
X185889392Y-136179787D01*
X169905432Y-136179787D01*
X169702370Y-135976371D01*
X169189100Y-135763243D01*
X168633339Y-135762758D01*
X168119697Y-135974990D01*
X167726371Y-136367630D01*
X167513243Y-136880900D01*
X167512758Y-137436661D01*
X167724990Y-137950303D01*
X168117630Y-138343629D01*
X168325512Y-138429949D01*
X168119697Y-138514990D01*
X167959908Y-138674500D01*
X164925553Y-138674500D01*
X164909147Y-138649946D01*
X164579974Y-138430000D01*
X164909147Y-138210054D01*
X165231054Y-137728285D01*
X165344093Y-137160000D01*
X165231054Y-136591715D01*
X164909147Y-136109946D01*
X164427378Y-135788039D01*
X163859093Y-135675000D01*
X163800907Y-135675000D01*
X163232622Y-135788039D01*
X162750853Y-136109946D01*
X162428946Y-136591715D01*
X162315907Y-137160000D01*
X158190000Y-137160000D01*
X158190000Y-132207000D01*
X189230000Y-132207000D01*
X189279410Y-132196994D01*
X189321035Y-132168553D01*
X189348315Y-132126159D01*
X189357000Y-132080000D01*
X189357000Y-117584602D01*
X199118602Y-107823000D01*
X211328000Y-107823000D01*
X211377410Y-107812994D01*
X211419035Y-107784553D01*
X211446315Y-107742159D01*
X211455000Y-107696000D01*
X211455000Y-84382302D01*
X214490856Y-84382302D01*
X214518638Y-84937368D01*
X214677603Y-85321143D01*
X214919787Y-85390608D01*
X215720395Y-84590000D01*
X216079605Y-84590000D01*
X216880213Y-85390608D01*
X217122397Y-85321143D01*
X217309144Y-84797698D01*
X217281362Y-84242632D01*
X217122397Y-83858857D01*
X216880213Y-83789392D01*
X216079605Y-84590000D01*
X215720395Y-84590000D01*
X214919787Y-83789392D01*
X214677603Y-83858857D01*
X214490856Y-84382302D01*
X211455000Y-84382302D01*
X211455000Y-83609787D01*
X215099392Y-83609787D01*
X215900000Y-84410395D01*
X216700608Y-83609787D01*
X216631143Y-83367603D01*
X216107698Y-83180856D01*
X215552632Y-83208638D01*
X215168857Y-83367603D01*
X215099392Y-83609787D01*
X211455000Y-83609787D01*
X211455000Y-71830000D01*
X213149998Y-71830000D01*
X212060599Y-72919399D01*
G36*
X235842171Y-82368995D02*
X235846986Y-82376201D01*
X245416800Y-91946015D01*
X245416800Y-98040337D01*
X245384608Y-98072473D01*
X245241962Y-98416001D01*
X245241638Y-98787967D01*
X245383683Y-99131743D01*
X245646473Y-99394992D01*
X245990001Y-99537638D01*
X246128000Y-99537758D01*
X246128000Y-102155600D01*
X246185852Y-102446439D01*
X246350599Y-102693001D01*
X249804734Y-106147136D01*
X249729055Y-106527600D01*
X249843129Y-107101089D01*
X250167985Y-107587270D01*
X250477469Y-107794061D01*
X250061668Y-108165564D01*
X249807691Y-108692809D01*
X249805042Y-108708574D01*
X249926183Y-108940600D01*
X251285400Y-108940600D01*
X251285400Y-108920600D01*
X251539400Y-108920600D01*
X251539400Y-108940600D01*
X251559400Y-108940600D01*
X251559400Y-109194600D01*
X251539400Y-109194600D01*
X251539400Y-109214600D01*
X251285400Y-109214600D01*
X251285400Y-109194600D01*
X249926183Y-109194600D01*
X249805042Y-109426626D01*
X249807691Y-109442391D01*
X250061668Y-109969636D01*
X250477469Y-110341139D01*
X250167985Y-110547930D01*
X249843129Y-111034111D01*
X249729055Y-111607600D01*
X249843129Y-112181089D01*
X250167985Y-112667270D01*
X250482766Y-112877600D01*
X250167985Y-113087930D01*
X249980266Y-113368871D01*
X249899494Y-113384937D01*
X249792224Y-113456613D01*
X249631683Y-113563883D01*
X249631681Y-113563886D01*
X248336283Y-114859283D01*
X244539466Y-118656100D01*
X228247400Y-118656100D01*
X227931495Y-118718937D01*
X227663683Y-118897883D01*
X227663681Y-118897886D01*
X221376283Y-125185283D01*
X221197337Y-125453094D01*
X221187498Y-125502560D01*
X221110000Y-125502560D01*
X220874683Y-125546838D01*
X220658559Y-125685910D01*
X220513569Y-125898110D01*
X220462560Y-126150000D01*
X220462560Y-127850000D01*
X220506838Y-128085317D01*
X220645910Y-128301441D01*
X220858110Y-128446431D01*
X220925541Y-128460086D01*
X220880853Y-128489946D01*
X220558946Y-128971715D01*
X220445907Y-129540000D01*
X220558946Y-130108285D01*
X220880853Y-130590054D01*
X221210026Y-130810000D01*
X220880853Y-131029946D01*
X220558946Y-131511715D01*
X220445907Y-132080000D01*
X220558946Y-132648285D01*
X220880853Y-133130054D01*
X221210026Y-133350000D01*
X220880853Y-133569946D01*
X220558946Y-134051715D01*
X220445907Y-134620000D01*
X220558946Y-135188285D01*
X220880853Y-135670054D01*
X221210026Y-135890000D01*
X220880853Y-136109946D01*
X220558946Y-136591715D01*
X220445907Y-137160000D01*
X220558946Y-137728285D01*
X220880853Y-138210054D01*
X221210026Y-138430000D01*
X220880853Y-138649946D01*
X220558946Y-139131715D01*
X220445907Y-139700000D01*
X220558946Y-140268285D01*
X220880853Y-140750054D01*
X221221553Y-140977702D01*
X221078642Y-141044817D01*
X220688355Y-141473076D01*
X220518524Y-141883110D01*
X220639845Y-142113000D01*
X221833000Y-142113000D01*
X221833000Y-142093000D01*
X222087000Y-142093000D01*
X222087000Y-142113000D01*
X223280155Y-142113000D01*
X223401476Y-141883110D01*
X223231645Y-141473076D01*
X222841358Y-141044817D01*
X222698447Y-140977702D01*
X223039147Y-140750054D01*
X223232954Y-140460000D01*
X232385000Y-140460000D01*
X232675839Y-140402148D01*
X232922401Y-140237401D01*
X238557162Y-134602640D01*
X238729800Y-134602640D01*
X238965117Y-134558362D01*
X239055780Y-134500022D01*
X239273490Y-134590200D01*
X239414050Y-134590200D01*
X239572800Y-134431450D01*
X239572800Y-133332200D01*
X239826800Y-133332200D01*
X239826800Y-134431450D01*
X239985550Y-134590200D01*
X240126110Y-134590200D01*
X240334800Y-134503758D01*
X240543490Y-134590200D01*
X240684050Y-134590200D01*
X240842800Y-134431450D01*
X240842800Y-133332200D01*
X241096800Y-133332200D01*
X241096800Y-134431450D01*
X241255550Y-134590200D01*
X241396110Y-134590200D01*
X241604800Y-134503758D01*
X241813490Y-134590200D01*
X241954050Y-134590200D01*
X242112800Y-134431450D01*
X242112800Y-133332200D01*
X242366800Y-133332200D01*
X242366800Y-134431450D01*
X242525550Y-134590200D01*
X242666110Y-134590200D01*
X242899499Y-134493527D01*
X243078127Y-134314898D01*
X243174800Y-134081509D01*
X243174800Y-133490950D01*
X243016050Y-133332200D01*
X242366800Y-133332200D01*
X242112800Y-133332200D01*
X241096800Y-133332200D01*
X240842800Y-133332200D01*
X239826800Y-133332200D01*
X239572800Y-133332200D01*
X239552800Y-133332200D01*
X239552800Y-133078200D01*
X239572800Y-133078200D01*
X239572800Y-133058200D01*
X239826800Y-133058200D01*
X239826800Y-133078200D01*
X240842800Y-133078200D01*
X240842800Y-133058200D01*
X241096800Y-133058200D01*
X241096800Y-133078200D01*
X242112800Y-133078200D01*
X242112800Y-133058200D01*
X242366800Y-133058200D01*
X242366800Y-133078200D01*
X243016050Y-133078200D01*
X243174800Y-132919450D01*
X243174800Y-132328891D01*
X243091919Y-132128800D01*
X246027222Y-132128800D01*
X246318061Y-132070948D01*
X246564623Y-131906201D01*
X253290000Y-125180824D01*
X253290000Y-140041942D01*
X253180490Y-139871759D01*
X252968290Y-139726769D01*
X252716400Y-139675760D01*
X251016400Y-139675760D01*
X250781083Y-139720038D01*
X250564959Y-139859110D01*
X250419969Y-140071310D01*
X250368960Y-140323200D01*
X250368960Y-142023200D01*
X250413238Y-142258517D01*
X250552310Y-142474641D01*
X250764510Y-142619631D01*
X250831941Y-142633286D01*
X250787253Y-142663146D01*
X250465346Y-143144915D01*
X250352307Y-143713200D01*
X250465346Y-144281485D01*
X250787253Y-144763254D01*
X251269022Y-145085161D01*
X251837307Y-145198200D01*
X251895493Y-145198200D01*
X252463778Y-145085161D01*
X252945547Y-144763254D01*
X253267454Y-144281485D01*
X253290000Y-144168139D01*
X253290000Y-147169861D01*
X253267454Y-147056515D01*
X252945547Y-146574746D01*
X252463778Y-146252839D01*
X251895493Y-146139800D01*
X251837307Y-146139800D01*
X251269022Y-146252839D01*
X250787253Y-146574746D01*
X250465346Y-147056515D01*
X250352307Y-147624800D01*
X250465346Y-148193085D01*
X250787253Y-148674854D01*
X250828852Y-148702650D01*
X250781083Y-148711638D01*
X250564959Y-148850710D01*
X250419969Y-149062910D01*
X250368960Y-149314800D01*
X250368960Y-151014800D01*
X250413238Y-151250117D01*
X250552310Y-151466241D01*
X250764510Y-151611231D01*
X251016400Y-151662240D01*
X252716400Y-151662240D01*
X252951717Y-151617962D01*
X253167841Y-151478890D01*
X253290000Y-151300104D01*
X253290000Y-151690000D01*
X235452876Y-151690000D01*
X244819138Y-142323738D01*
X244821147Y-142320732D01*
X245041438Y-141991042D01*
X245119500Y-141598600D01*
X245119500Y-140961162D01*
X245409271Y-140527489D01*
X245523345Y-139954000D01*
X245409271Y-139380511D01*
X245084415Y-138894330D01*
X244769634Y-138684000D01*
X245084415Y-138473670D01*
X245409271Y-137987489D01*
X245523345Y-137414000D01*
X245409271Y-136840511D01*
X245084415Y-136354330D01*
X244598234Y-136029474D01*
X244024745Y-135915400D01*
X243655255Y-135915400D01*
X243081766Y-136029474D01*
X242595585Y-136354330D01*
X242270729Y-136840511D01*
X242156655Y-137414000D01*
X242237465Y-137820259D01*
X236232964Y-143824760D01*
X236010664Y-144157456D01*
X235971784Y-144352916D01*
X235882433Y-144352838D01*
X235538657Y-144494883D01*
X235275408Y-144757673D01*
X235218500Y-144894722D01*
X235023127Y-144699008D01*
X234679599Y-144556362D01*
X234307633Y-144556038D01*
X233963857Y-144698083D01*
X233700608Y-144960873D01*
X233590482Y-145226085D01*
X230667877Y-148148689D01*
X223187058Y-148148689D01*
X223361054Y-147888285D01*
X223474093Y-147320000D01*
X223361054Y-146751715D01*
X223039147Y-146269946D01*
X222709974Y-146050000D01*
X223039147Y-145830054D01*
X223361054Y-145348285D01*
X223474093Y-144780000D01*
X223361054Y-144211715D01*
X223039147Y-143729946D01*
X222698447Y-143502298D01*
X222841358Y-143435183D01*
X223231645Y-143006924D01*
X223401476Y-142596890D01*
X223280155Y-142367000D01*
X222087000Y-142367000D01*
X222087000Y-142387000D01*
X221833000Y-142387000D01*
X221833000Y-142367000D01*
X220639845Y-142367000D01*
X220518524Y-142596890D01*
X220688355Y-143006924D01*
X221078642Y-143435183D01*
X221221553Y-143502298D01*
X220880853Y-143729946D01*
X220558946Y-144211715D01*
X220445907Y-144780000D01*
X220558946Y-145348285D01*
X220880853Y-145830054D01*
X221210026Y-146050000D01*
X220880853Y-146269946D01*
X220558946Y-146751715D01*
X220445907Y-147320000D01*
X220464896Y-147415463D01*
X211775689Y-138726255D01*
X211775689Y-136228745D01*
X212097632Y-135906802D01*
X212115585Y-135933670D01*
X212601766Y-136258526D01*
X213175255Y-136372600D01*
X213544745Y-136372600D01*
X214118234Y-136258526D01*
X214604415Y-135933670D01*
X214929271Y-135447489D01*
X215043345Y-134874000D01*
X214929271Y-134300511D01*
X214604415Y-133814330D01*
X214118234Y-133489474D01*
X213544745Y-133375400D01*
X213175255Y-133375400D01*
X212601766Y-133489474D01*
X212115585Y-133814330D01*
X211958522Y-134049391D01*
X211647094Y-134111337D01*
X211379283Y-134290283D01*
X211194678Y-134474888D01*
X211194678Y-134371356D01*
X213943717Y-131622317D01*
X214122663Y-131354506D01*
X214163712Y-131148139D01*
X214604415Y-130853670D01*
X214929271Y-130367489D01*
X215043345Y-129794000D01*
X214929271Y-129220511D01*
X214604415Y-128734330D01*
X214118234Y-128409474D01*
X213544745Y-128295400D01*
X213175255Y-128295400D01*
X212601766Y-128409474D01*
X212115585Y-128734330D01*
X211790729Y-129220511D01*
X211676655Y-129794000D01*
X211790729Y-130367489D01*
X212115585Y-130853670D01*
X212272589Y-130958577D01*
X209785461Y-133445705D01*
X209606515Y-133713516D01*
X209586462Y-133814330D01*
X209543678Y-134029422D01*
X209543678Y-136434184D01*
X209194320Y-136122046D01*
X208641913Y-135928816D01*
X208407000Y-136073076D01*
X208407000Y-137287000D01*
X208427000Y-137287000D01*
X208427000Y-137541000D01*
X208407000Y-137541000D01*
X208407000Y-137561000D01*
X208153000Y-137561000D01*
X208153000Y-137541000D01*
X208133000Y-137541000D01*
X208133000Y-137287000D01*
X208153000Y-137287000D01*
X208153000Y-136073076D01*
X207918087Y-135928816D01*
X207698990Y-136005455D01*
X207698990Y-120395286D01*
X211000276Y-117094000D01*
X234536655Y-117094000D01*
X234650729Y-117667489D01*
X234975585Y-118153670D01*
X235461766Y-118478526D01*
X236035255Y-118592600D01*
X236404745Y-118592600D01*
X236978234Y-118478526D01*
X237464415Y-118153670D01*
X237490000Y-118115379D01*
X237515585Y-118153670D01*
X238001766Y-118478526D01*
X238575255Y-118592600D01*
X238944745Y-118592600D01*
X239518234Y-118478526D01*
X240004415Y-118153670D01*
X240329271Y-117667489D01*
X240443345Y-117094000D01*
X240329271Y-116520511D01*
X240004415Y-116034330D01*
X239518234Y-115709474D01*
X238944745Y-115595400D01*
X238575255Y-115595400D01*
X238001766Y-115709474D01*
X237515585Y-116034330D01*
X237490000Y-116072621D01*
X237464415Y-116034330D01*
X236978234Y-115709474D01*
X236404745Y-115595400D01*
X236035255Y-115595400D01*
X235461766Y-115709474D01*
X234975585Y-116034330D01*
X234650729Y-116520511D01*
X234536655Y-117094000D01*
X211000276Y-117094000D01*
X225621176Y-102473100D01*
X229825153Y-102473100D01*
X229847985Y-102507270D01*
X230162766Y-102717600D01*
X229847985Y-102927930D01*
X229523129Y-103414111D01*
X229409055Y-103987600D01*
X229523129Y-104561089D01*
X229847985Y-105047270D01*
X230162766Y-105257600D01*
X229847985Y-105467930D01*
X229523129Y-105954111D01*
X229409055Y-106527600D01*
X229523129Y-107101089D01*
X229847985Y-107587270D01*
X230334166Y-107912126D01*
X230907655Y-108026200D01*
X231277145Y-108026200D01*
X231850634Y-107912126D01*
X232336815Y-107587270D01*
X232661671Y-107101089D01*
X232775745Y-106527600D01*
X232661671Y-105954111D01*
X232336815Y-105467930D01*
X232022034Y-105257600D01*
X232336815Y-105047270D01*
X232661671Y-104561089D01*
X232775745Y-103987600D01*
X232661671Y-103414111D01*
X232336815Y-102927930D01*
X232022034Y-102717600D01*
X232336815Y-102507270D01*
X232661671Y-102021089D01*
X232775745Y-101447600D01*
X232661671Y-100874111D01*
X232336815Y-100387930D01*
X232022034Y-100177600D01*
X232336815Y-99967270D01*
X232661671Y-99481089D01*
X232775745Y-98907600D01*
X232661671Y-98334111D01*
X232336815Y-97847930D01*
X232022034Y-97637600D01*
X232336815Y-97427270D01*
X232661671Y-96941089D01*
X232775745Y-96367600D01*
X232661671Y-95794111D01*
X232336815Y-95307930D01*
X232022034Y-95097600D01*
X232336815Y-94887270D01*
X232661671Y-94401089D01*
X232775745Y-93827600D01*
X232661671Y-93254111D01*
X232336815Y-92767930D01*
X232022034Y-92557600D01*
X232336815Y-92347270D01*
X232661671Y-91861089D01*
X232775745Y-91287600D01*
X232661671Y-90714111D01*
X232336815Y-90227930D01*
X232022034Y-90017600D01*
X232336815Y-89807270D01*
X232661671Y-89321089D01*
X232775745Y-88747600D01*
X232661671Y-88174111D01*
X232336815Y-87687930D01*
X232022034Y-87477600D01*
X232336815Y-87267270D01*
X232661671Y-86781089D01*
X232775745Y-86207600D01*
X232661671Y-85634111D01*
X232336815Y-85147930D01*
X232022034Y-84937600D01*
X232336815Y-84727270D01*
X232661671Y-84241089D01*
X232775745Y-83667600D01*
X232661671Y-83094111D01*
X232336815Y-82607930D01*
X232022034Y-82397600D01*
X232336815Y-82187270D01*
X232661671Y-81701089D01*
X232775745Y-81127600D01*
X232661671Y-80554111D01*
X232336815Y-80067930D01*
X232022034Y-79857600D01*
X232336815Y-79647270D01*
X232650694Y-79177518D01*
X235842171Y-82368995D01*
X235842171Y-82368995D01*
G37*
X235842171Y-82368995D02*
X235846986Y-82376201D01*
X245416800Y-91946015D01*
X245416800Y-98040337D01*
X245384608Y-98072473D01*
X245241962Y-98416001D01*
X245241638Y-98787967D01*
X245383683Y-99131743D01*
X245646473Y-99394992D01*
X245990001Y-99537638D01*
X246128000Y-99537758D01*
X246128000Y-102155600D01*
X246185852Y-102446439D01*
X246350599Y-102693001D01*
X249804734Y-106147136D01*
X249729055Y-106527600D01*
X249843129Y-107101089D01*
X250167985Y-107587270D01*
X250477469Y-107794061D01*
X250061668Y-108165564D01*
X249807691Y-108692809D01*
X249805042Y-108708574D01*
X249926183Y-108940600D01*
X251285400Y-108940600D01*
X251285400Y-108920600D01*
X251539400Y-108920600D01*
X251539400Y-108940600D01*
X251559400Y-108940600D01*
X251559400Y-109194600D01*
X251539400Y-109194600D01*
X251539400Y-109214600D01*
X251285400Y-109214600D01*
X251285400Y-109194600D01*
X249926183Y-109194600D01*
X249805042Y-109426626D01*
X249807691Y-109442391D01*
X250061668Y-109969636D01*
X250477469Y-110341139D01*
X250167985Y-110547930D01*
X249843129Y-111034111D01*
X249729055Y-111607600D01*
X249843129Y-112181089D01*
X250167985Y-112667270D01*
X250482766Y-112877600D01*
X250167985Y-113087930D01*
X249980266Y-113368871D01*
X249899494Y-113384937D01*
X249792224Y-113456613D01*
X249631683Y-113563883D01*
X249631681Y-113563886D01*
X248336283Y-114859283D01*
X244539466Y-118656100D01*
X228247400Y-118656100D01*
X227931495Y-118718937D01*
X227663683Y-118897883D01*
X227663681Y-118897886D01*
X221376283Y-125185283D01*
X221197337Y-125453094D01*
X221187498Y-125502560D01*
X221110000Y-125502560D01*
X220874683Y-125546838D01*
X220658559Y-125685910D01*
X220513569Y-125898110D01*
X220462560Y-126150000D01*
X220462560Y-127850000D01*
X220506838Y-128085317D01*
X220645910Y-128301441D01*
X220858110Y-128446431D01*
X220925541Y-128460086D01*
X220880853Y-128489946D01*
X220558946Y-128971715D01*
X220445907Y-129540000D01*
X220558946Y-130108285D01*
X220880853Y-130590054D01*
X221210026Y-130810000D01*
X220880853Y-131029946D01*
X220558946Y-131511715D01*
X220445907Y-132080000D01*
X220558946Y-132648285D01*
X220880853Y-133130054D01*
X221210026Y-133350000D01*
X220880853Y-133569946D01*
X220558946Y-134051715D01*
X220445907Y-134620000D01*
X220558946Y-135188285D01*
X220880853Y-135670054D01*
X221210026Y-135890000D01*
X220880853Y-136109946D01*
X220558946Y-136591715D01*
X220445907Y-137160000D01*
X220558946Y-137728285D01*
X220880853Y-138210054D01*
X221210026Y-138430000D01*
X220880853Y-138649946D01*
X220558946Y-139131715D01*
X220445907Y-139700000D01*
X220558946Y-140268285D01*
X220880853Y-140750054D01*
X221221553Y-140977702D01*
X221078642Y-141044817D01*
X220688355Y-141473076D01*
X220518524Y-141883110D01*
X220639845Y-142113000D01*
X221833000Y-142113000D01*
X221833000Y-142093000D01*
X222087000Y-142093000D01*
X222087000Y-142113000D01*
X223280155Y-142113000D01*
X223401476Y-141883110D01*
X223231645Y-141473076D01*
X222841358Y-141044817D01*
X222698447Y-140977702D01*
X223039147Y-140750054D01*
X223232954Y-140460000D01*
X232385000Y-140460000D01*
X232675839Y-140402148D01*
X232922401Y-140237401D01*
X238557162Y-134602640D01*
X238729800Y-134602640D01*
X238965117Y-134558362D01*
X239055780Y-134500022D01*
X239273490Y-134590200D01*
X239414050Y-134590200D01*
X239572800Y-134431450D01*
X239572800Y-133332200D01*
X239826800Y-133332200D01*
X239826800Y-134431450D01*
X239985550Y-134590200D01*
X240126110Y-134590200D01*
X240334800Y-134503758D01*
X240543490Y-134590200D01*
X240684050Y-134590200D01*
X240842800Y-134431450D01*
X240842800Y-133332200D01*
X241096800Y-133332200D01*
X241096800Y-134431450D01*
X241255550Y-134590200D01*
X241396110Y-134590200D01*
X241604800Y-134503758D01*
X241813490Y-134590200D01*
X241954050Y-134590200D01*
X242112800Y-134431450D01*
X242112800Y-133332200D01*
X242366800Y-133332200D01*
X242366800Y-134431450D01*
X242525550Y-134590200D01*
X242666110Y-134590200D01*
X242899499Y-134493527D01*
X243078127Y-134314898D01*
X243174800Y-134081509D01*
X243174800Y-133490950D01*
X243016050Y-133332200D01*
X242366800Y-133332200D01*
X242112800Y-133332200D01*
X241096800Y-133332200D01*
X240842800Y-133332200D01*
X239826800Y-133332200D01*
X239572800Y-133332200D01*
X239552800Y-133332200D01*
X239552800Y-133078200D01*
X239572800Y-133078200D01*
X239572800Y-133058200D01*
X239826800Y-133058200D01*
X239826800Y-133078200D01*
X240842800Y-133078200D01*
X240842800Y-133058200D01*
X241096800Y-133058200D01*
X241096800Y-133078200D01*
X242112800Y-133078200D01*
X242112800Y-133058200D01*
X242366800Y-133058200D01*
X242366800Y-133078200D01*
X243016050Y-133078200D01*
X243174800Y-132919450D01*
X243174800Y-132328891D01*
X243091919Y-132128800D01*
X246027222Y-132128800D01*
X246318061Y-132070948D01*
X246564623Y-131906201D01*
X253290000Y-125180824D01*
X253290000Y-140041942D01*
X253180490Y-139871759D01*
X252968290Y-139726769D01*
X252716400Y-139675760D01*
X251016400Y-139675760D01*
X250781083Y-139720038D01*
X250564959Y-139859110D01*
X250419969Y-140071310D01*
X250368960Y-140323200D01*
X250368960Y-142023200D01*
X250413238Y-142258517D01*
X250552310Y-142474641D01*
X250764510Y-142619631D01*
X250831941Y-142633286D01*
X250787253Y-142663146D01*
X250465346Y-143144915D01*
X250352307Y-143713200D01*
X250465346Y-144281485D01*
X250787253Y-144763254D01*
X251269022Y-145085161D01*
X251837307Y-145198200D01*
X251895493Y-145198200D01*
X252463778Y-145085161D01*
X252945547Y-144763254D01*
X253267454Y-144281485D01*
X253290000Y-144168139D01*
X253290000Y-147169861D01*
X253267454Y-147056515D01*
X252945547Y-146574746D01*
X252463778Y-146252839D01*
X251895493Y-146139800D01*
X251837307Y-146139800D01*
X251269022Y-146252839D01*
X250787253Y-146574746D01*
X250465346Y-147056515D01*
X250352307Y-147624800D01*
X250465346Y-148193085D01*
X250787253Y-148674854D01*
X250828852Y-148702650D01*
X250781083Y-148711638D01*
X250564959Y-148850710D01*
X250419969Y-149062910D01*
X250368960Y-149314800D01*
X250368960Y-151014800D01*
X250413238Y-151250117D01*
X250552310Y-151466241D01*
X250764510Y-151611231D01*
X251016400Y-151662240D01*
X252716400Y-151662240D01*
X252951717Y-151617962D01*
X253167841Y-151478890D01*
X253290000Y-151300104D01*
X253290000Y-151690000D01*
X235452876Y-151690000D01*
X244819138Y-142323738D01*
X244821147Y-142320732D01*
X245041438Y-141991042D01*
X245119500Y-141598600D01*
X245119500Y-140961162D01*
X245409271Y-140527489D01*
X245523345Y-139954000D01*
X245409271Y-139380511D01*
X245084415Y-138894330D01*
X244769634Y-138684000D01*
X245084415Y-138473670D01*
X245409271Y-137987489D01*
X245523345Y-137414000D01*
X245409271Y-136840511D01*
X245084415Y-136354330D01*
X244598234Y-136029474D01*
X244024745Y-135915400D01*
X243655255Y-135915400D01*
X243081766Y-136029474D01*
X242595585Y-136354330D01*
X242270729Y-136840511D01*
X242156655Y-137414000D01*
X242237465Y-137820259D01*
X236232964Y-143824760D01*
X236010664Y-144157456D01*
X235971784Y-144352916D01*
X235882433Y-144352838D01*
X235538657Y-144494883D01*
X235275408Y-144757673D01*
X235218500Y-144894722D01*
X235023127Y-144699008D01*
X234679599Y-144556362D01*
X234307633Y-144556038D01*
X233963857Y-144698083D01*
X233700608Y-144960873D01*
X233590482Y-145226085D01*
X230667877Y-148148689D01*
X223187058Y-148148689D01*
X223361054Y-147888285D01*
X223474093Y-147320000D01*
X223361054Y-146751715D01*
X223039147Y-146269946D01*
X222709974Y-146050000D01*
X223039147Y-145830054D01*
X223361054Y-145348285D01*
X223474093Y-144780000D01*
X223361054Y-144211715D01*
X223039147Y-143729946D01*
X222698447Y-143502298D01*
X222841358Y-143435183D01*
X223231645Y-143006924D01*
X223401476Y-142596890D01*
X223280155Y-142367000D01*
X222087000Y-142367000D01*
X222087000Y-142387000D01*
X221833000Y-142387000D01*
X221833000Y-142367000D01*
X220639845Y-142367000D01*
X220518524Y-142596890D01*
X220688355Y-143006924D01*
X221078642Y-143435183D01*
X221221553Y-143502298D01*
X220880853Y-143729946D01*
X220558946Y-144211715D01*
X220445907Y-144780000D01*
X220558946Y-145348285D01*
X220880853Y-145830054D01*
X221210026Y-146050000D01*
X220880853Y-146269946D01*
X220558946Y-146751715D01*
X220445907Y-147320000D01*
X220464896Y-147415463D01*
X211775689Y-138726255D01*
X211775689Y-136228745D01*
X212097632Y-135906802D01*
X212115585Y-135933670D01*
X212601766Y-136258526D01*
X213175255Y-136372600D01*
X213544745Y-136372600D01*
X214118234Y-136258526D01*
X214604415Y-135933670D01*
X214929271Y-135447489D01*
X215043345Y-134874000D01*
X214929271Y-134300511D01*
X214604415Y-133814330D01*
X214118234Y-133489474D01*
X213544745Y-133375400D01*
X213175255Y-133375400D01*
X212601766Y-133489474D01*
X212115585Y-133814330D01*
X211958522Y-134049391D01*
X211647094Y-134111337D01*
X211379283Y-134290283D01*
X211194678Y-134474888D01*
X211194678Y-134371356D01*
X213943717Y-131622317D01*
X214122663Y-131354506D01*
X214163712Y-131148139D01*
X214604415Y-130853670D01*
X214929271Y-130367489D01*
X215043345Y-129794000D01*
X214929271Y-129220511D01*
X214604415Y-128734330D01*
X214118234Y-128409474D01*
X213544745Y-128295400D01*
X213175255Y-128295400D01*
X212601766Y-128409474D01*
X212115585Y-128734330D01*
X211790729Y-129220511D01*
X211676655Y-129794000D01*
X211790729Y-130367489D01*
X212115585Y-130853670D01*
X212272589Y-130958577D01*
X209785461Y-133445705D01*
X209606515Y-133713516D01*
X209586462Y-133814330D01*
X209543678Y-134029422D01*
X209543678Y-136434184D01*
X209194320Y-136122046D01*
X208641913Y-135928816D01*
X208407000Y-136073076D01*
X208407000Y-137287000D01*
X208427000Y-137287000D01*
X208427000Y-137541000D01*
X208407000Y-137541000D01*
X208407000Y-137561000D01*
X208153000Y-137561000D01*
X208153000Y-137541000D01*
X208133000Y-137541000D01*
X208133000Y-137287000D01*
X208153000Y-137287000D01*
X208153000Y-136073076D01*
X207918087Y-135928816D01*
X207698990Y-136005455D01*
X207698990Y-120395286D01*
X211000276Y-117094000D01*
X234536655Y-117094000D01*
X234650729Y-117667489D01*
X234975585Y-118153670D01*
X235461766Y-118478526D01*
X236035255Y-118592600D01*
X236404745Y-118592600D01*
X236978234Y-118478526D01*
X237464415Y-118153670D01*
X237490000Y-118115379D01*
X237515585Y-118153670D01*
X238001766Y-118478526D01*
X238575255Y-118592600D01*
X238944745Y-118592600D01*
X239518234Y-118478526D01*
X240004415Y-118153670D01*
X240329271Y-117667489D01*
X240443345Y-117094000D01*
X240329271Y-116520511D01*
X240004415Y-116034330D01*
X239518234Y-115709474D01*
X238944745Y-115595400D01*
X238575255Y-115595400D01*
X238001766Y-115709474D01*
X237515585Y-116034330D01*
X237490000Y-116072621D01*
X237464415Y-116034330D01*
X236978234Y-115709474D01*
X236404745Y-115595400D01*
X236035255Y-115595400D01*
X235461766Y-115709474D01*
X234975585Y-116034330D01*
X234650729Y-116520511D01*
X234536655Y-117094000D01*
X211000276Y-117094000D01*
X225621176Y-102473100D01*
X229825153Y-102473100D01*
X229847985Y-102507270D01*
X230162766Y-102717600D01*
X229847985Y-102927930D01*
X229523129Y-103414111D01*
X229409055Y-103987600D01*
X229523129Y-104561089D01*
X229847985Y-105047270D01*
X230162766Y-105257600D01*
X229847985Y-105467930D01*
X229523129Y-105954111D01*
X229409055Y-106527600D01*
X229523129Y-107101089D01*
X229847985Y-107587270D01*
X230334166Y-107912126D01*
X230907655Y-108026200D01*
X231277145Y-108026200D01*
X231850634Y-107912126D01*
X232336815Y-107587270D01*
X232661671Y-107101089D01*
X232775745Y-106527600D01*
X232661671Y-105954111D01*
X232336815Y-105467930D01*
X232022034Y-105257600D01*
X232336815Y-105047270D01*
X232661671Y-104561089D01*
X232775745Y-103987600D01*
X232661671Y-103414111D01*
X232336815Y-102927930D01*
X232022034Y-102717600D01*
X232336815Y-102507270D01*
X232661671Y-102021089D01*
X232775745Y-101447600D01*
X232661671Y-100874111D01*
X232336815Y-100387930D01*
X232022034Y-100177600D01*
X232336815Y-99967270D01*
X232661671Y-99481089D01*
X232775745Y-98907600D01*
X232661671Y-98334111D01*
X232336815Y-97847930D01*
X232022034Y-97637600D01*
X232336815Y-97427270D01*
X232661671Y-96941089D01*
X232775745Y-96367600D01*
X232661671Y-95794111D01*
X232336815Y-95307930D01*
X232022034Y-95097600D01*
X232336815Y-94887270D01*
X232661671Y-94401089D01*
X232775745Y-93827600D01*
X232661671Y-93254111D01*
X232336815Y-92767930D01*
X232022034Y-92557600D01*
X232336815Y-92347270D01*
X232661671Y-91861089D01*
X232775745Y-91287600D01*
X232661671Y-90714111D01*
X232336815Y-90227930D01*
X232022034Y-90017600D01*
X232336815Y-89807270D01*
X232661671Y-89321089D01*
X232775745Y-88747600D01*
X232661671Y-88174111D01*
X232336815Y-87687930D01*
X232022034Y-87477600D01*
X232336815Y-87267270D01*
X232661671Y-86781089D01*
X232775745Y-86207600D01*
X232661671Y-85634111D01*
X232336815Y-85147930D01*
X232022034Y-84937600D01*
X232336815Y-84727270D01*
X232661671Y-84241089D01*
X232775745Y-83667600D01*
X232661671Y-83094111D01*
X232336815Y-82607930D01*
X232022034Y-82397600D01*
X232336815Y-82187270D01*
X232661671Y-81701089D01*
X232775745Y-81127600D01*
X232661671Y-80554111D01*
X232336815Y-80067930D01*
X232022034Y-79857600D01*
X232336815Y-79647270D01*
X232650694Y-79177518D01*
X235842171Y-82368995D01*
G36*
X250482766Y-115417600D02*
X250167985Y-115627930D01*
X249843129Y-116114111D01*
X249729055Y-116687600D01*
X249843129Y-117261089D01*
X250167985Y-117747270D01*
X250654166Y-118072126D01*
X251227655Y-118186200D01*
X251597145Y-118186200D01*
X252042367Y-118097640D01*
X252042367Y-123006031D01*
X246928197Y-128120201D01*
X243174800Y-128120201D01*
X243174800Y-128090950D01*
X243016050Y-127932200D01*
X242366800Y-127932200D01*
X242366800Y-127952200D01*
X242112800Y-127952200D01*
X242112800Y-127932200D01*
X242092800Y-127932200D01*
X242092800Y-127678200D01*
X242112800Y-127678200D01*
X242112800Y-126578950D01*
X242366800Y-126578950D01*
X242366800Y-127678200D01*
X243016050Y-127678200D01*
X243174800Y-127519450D01*
X243174800Y-126928891D01*
X243078127Y-126695502D01*
X242899499Y-126516873D01*
X242666110Y-126420200D01*
X242525550Y-126420200D01*
X242366800Y-126578950D01*
X242112800Y-126578950D01*
X241954050Y-126420200D01*
X241813490Y-126420200D01*
X241596678Y-126510006D01*
X241521690Y-126458769D01*
X241269800Y-126407760D01*
X240669800Y-126407760D01*
X240434483Y-126452038D01*
X240335272Y-126515878D01*
X240251690Y-126458769D01*
X239999800Y-126407760D01*
X239399800Y-126407760D01*
X239164483Y-126452038D01*
X239065272Y-126515878D01*
X238981690Y-126458769D01*
X238729800Y-126407760D01*
X238557162Y-126407760D01*
X237392801Y-125243399D01*
X237146239Y-125078652D01*
X237017938Y-125053131D01*
X236953527Y-124988608D01*
X236609999Y-124845962D01*
X236384037Y-124845765D01*
X240922702Y-120307100D01*
X244881400Y-120307100D01*
X245197306Y-120244263D01*
X245465117Y-120065317D01*
X250261008Y-115269426D01*
X250482766Y-115417600D01*
X250482766Y-115417600D01*
G37*
X250482766Y-115417600D02*
X250167985Y-115627930D01*
X249843129Y-116114111D01*
X249729055Y-116687600D01*
X249843129Y-117261089D01*
X250167985Y-117747270D01*
X250654166Y-118072126D01*
X251227655Y-118186200D01*
X251597145Y-118186200D01*
X252042367Y-118097640D01*
X252042367Y-123006031D01*
X246928197Y-128120201D01*
X243174800Y-128120201D01*
X243174800Y-128090950D01*
X243016050Y-127932200D01*
X242366800Y-127932200D01*
X242366800Y-127952200D01*
X242112800Y-127952200D01*
X242112800Y-127932200D01*
X242092800Y-127932200D01*
X242092800Y-127678200D01*
X242112800Y-127678200D01*
X242112800Y-126578950D01*
X242366800Y-126578950D01*
X242366800Y-127678200D01*
X243016050Y-127678200D01*
X243174800Y-127519450D01*
X243174800Y-126928891D01*
X243078127Y-126695502D01*
X242899499Y-126516873D01*
X242666110Y-126420200D01*
X242525550Y-126420200D01*
X242366800Y-126578950D01*
X242112800Y-126578950D01*
X241954050Y-126420200D01*
X241813490Y-126420200D01*
X241596678Y-126510006D01*
X241521690Y-126458769D01*
X241269800Y-126407760D01*
X240669800Y-126407760D01*
X240434483Y-126452038D01*
X240335272Y-126515878D01*
X240251690Y-126458769D01*
X239999800Y-126407760D01*
X239399800Y-126407760D01*
X239164483Y-126452038D01*
X239065272Y-126515878D01*
X238981690Y-126458769D01*
X238729800Y-126407760D01*
X238557162Y-126407760D01*
X237392801Y-125243399D01*
X237146239Y-125078652D01*
X237017938Y-125053131D01*
X236953527Y-124988608D01*
X236609999Y-124845962D01*
X236384037Y-124845765D01*
X240922702Y-120307100D01*
X244881400Y-120307100D01*
X245197306Y-120244263D01*
X245465117Y-120065317D01*
X250261008Y-115269426D01*
X250482766Y-115417600D01*
G36*
X253290000Y-81577998D02*
X253053248Y-81341246D01*
X253095745Y-81127600D01*
X252981671Y-80554111D01*
X252656815Y-80067930D01*
X252342034Y-79857600D01*
X252656815Y-79647270D01*
X252981671Y-79161089D01*
X253095745Y-78587600D01*
X252981671Y-78014111D01*
X252656815Y-77527930D01*
X252170634Y-77203074D01*
X251597145Y-77089000D01*
X251227655Y-77089000D01*
X250654166Y-77203074D01*
X250167985Y-77527930D01*
X249843129Y-78014111D01*
X249729055Y-78587600D01*
X249843129Y-79161089D01*
X250167985Y-79647270D01*
X250482766Y-79857600D01*
X250167985Y-80067930D01*
X249843129Y-80554111D01*
X249729055Y-81127600D01*
X249843129Y-81701089D01*
X250167985Y-82187270D01*
X250482766Y-82397600D01*
X250167985Y-82607930D01*
X249843129Y-83094111D01*
X249729055Y-83667600D01*
X249843129Y-84241089D01*
X250167985Y-84727270D01*
X250482766Y-84937600D01*
X250167985Y-85147930D01*
X249843129Y-85634111D01*
X249729055Y-86207600D01*
X249843129Y-86781089D01*
X250167985Y-87267270D01*
X250482766Y-87477600D01*
X250167985Y-87687930D01*
X249843129Y-88174111D01*
X249729055Y-88747600D01*
X249843129Y-89321089D01*
X250167985Y-89807270D01*
X250482766Y-90017600D01*
X250167985Y-90227930D01*
X249843129Y-90714111D01*
X249774905Y-91057099D01*
X248999200Y-90281394D01*
X248999200Y-76563331D01*
X249090641Y-76504490D01*
X249186190Y-76364650D01*
X249200873Y-76400098D01*
X249379501Y-76578727D01*
X249612890Y-76675400D01*
X249853450Y-76675400D01*
X250012200Y-76516650D01*
X250012200Y-75717400D01*
X250266200Y-75717400D01*
X250266200Y-76516650D01*
X250424950Y-76675400D01*
X250665510Y-76675400D01*
X250898899Y-76578727D01*
X251077527Y-76400098D01*
X251174200Y-76166709D01*
X251174200Y-75876150D01*
X251015450Y-75717400D01*
X250266200Y-75717400D01*
X250012200Y-75717400D01*
X249992200Y-75717400D01*
X249992200Y-75463400D01*
X250012200Y-75463400D01*
X250012200Y-74664150D01*
X250266200Y-74664150D01*
X250266200Y-75463400D01*
X251015450Y-75463400D01*
X251174200Y-75304650D01*
X251174200Y-75014091D01*
X251077527Y-74780702D01*
X250898899Y-74602073D01*
X250665510Y-74505400D01*
X250424950Y-74505400D01*
X250266200Y-74664150D01*
X250012200Y-74664150D01*
X249926188Y-74578138D01*
X250040641Y-74504490D01*
X250185631Y-74292290D01*
X250236640Y-74040400D01*
X250236640Y-73140400D01*
X250192362Y-72905083D01*
X250053290Y-72688959D01*
X249841090Y-72543969D01*
X249589200Y-72492960D01*
X248789200Y-72492960D01*
X248559738Y-72536136D01*
X247853602Y-71830000D01*
X253290000Y-71830000D01*
X253290000Y-81577998D01*
X253290000Y-81577998D01*
G37*
X253290000Y-81577998D02*
X253053248Y-81341246D01*
X253095745Y-81127600D01*
X252981671Y-80554111D01*
X252656815Y-80067930D01*
X252342034Y-79857600D01*
X252656815Y-79647270D01*
X252981671Y-79161089D01*
X253095745Y-78587600D01*
X252981671Y-78014111D01*
X252656815Y-77527930D01*
X252170634Y-77203074D01*
X251597145Y-77089000D01*
X251227655Y-77089000D01*
X250654166Y-77203074D01*
X250167985Y-77527930D01*
X249843129Y-78014111D01*
X249729055Y-78587600D01*
X249843129Y-79161089D01*
X250167985Y-79647270D01*
X250482766Y-79857600D01*
X250167985Y-80067930D01*
X249843129Y-80554111D01*
X249729055Y-81127600D01*
X249843129Y-81701089D01*
X250167985Y-82187270D01*
X250482766Y-82397600D01*
X250167985Y-82607930D01*
X249843129Y-83094111D01*
X249729055Y-83667600D01*
X249843129Y-84241089D01*
X250167985Y-84727270D01*
X250482766Y-84937600D01*
X250167985Y-85147930D01*
X249843129Y-85634111D01*
X249729055Y-86207600D01*
X249843129Y-86781089D01*
X250167985Y-87267270D01*
X250482766Y-87477600D01*
X250167985Y-87687930D01*
X249843129Y-88174111D01*
X249729055Y-88747600D01*
X249843129Y-89321089D01*
X250167985Y-89807270D01*
X250482766Y-90017600D01*
X250167985Y-90227930D01*
X249843129Y-90714111D01*
X249774905Y-91057099D01*
X248999200Y-90281394D01*
X248999200Y-76563331D01*
X249090641Y-76504490D01*
X249186190Y-76364650D01*
X249200873Y-76400098D01*
X249379501Y-76578727D01*
X249612890Y-76675400D01*
X249853450Y-76675400D01*
X250012200Y-76516650D01*
X250012200Y-75717400D01*
X250266200Y-75717400D01*
X250266200Y-76516650D01*
X250424950Y-76675400D01*
X250665510Y-76675400D01*
X250898899Y-76578727D01*
X251077527Y-76400098D01*
X251174200Y-76166709D01*
X251174200Y-75876150D01*
X251015450Y-75717400D01*
X250266200Y-75717400D01*
X250012200Y-75717400D01*
X249992200Y-75717400D01*
X249992200Y-75463400D01*
X250012200Y-75463400D01*
X250012200Y-74664150D01*
X250266200Y-74664150D01*
X250266200Y-75463400D01*
X251015450Y-75463400D01*
X251174200Y-75304650D01*
X251174200Y-75014091D01*
X251077527Y-74780702D01*
X250898899Y-74602073D01*
X250665510Y-74505400D01*
X250424950Y-74505400D01*
X250266200Y-74664150D01*
X250012200Y-74664150D01*
X249926188Y-74578138D01*
X250040641Y-74504490D01*
X250185631Y-74292290D01*
X250236640Y-74040400D01*
X250236640Y-73140400D01*
X250192362Y-72905083D01*
X250053290Y-72688959D01*
X249841090Y-72543969D01*
X249589200Y-72492960D01*
X248789200Y-72492960D01*
X248559738Y-72536136D01*
X247853602Y-71830000D01*
X253290000Y-71830000D01*
X253290000Y-81577998D01*
G36*
X248001799Y-74127801D02*
X248180698Y-74247337D01*
X248186038Y-74275717D01*
X248325110Y-74491841D01*
X248326748Y-74492960D01*
X247839200Y-74492960D01*
X247603883Y-74537238D01*
X247387759Y-74676310D01*
X247242769Y-74888510D01*
X247191760Y-75140400D01*
X247191760Y-76040400D01*
X247236038Y-76275717D01*
X247375110Y-76491841D01*
X247479200Y-76562963D01*
X247479200Y-89686398D01*
X244970800Y-87177998D01*
X244970800Y-76547331D01*
X245062241Y-76488490D01*
X245157790Y-76348650D01*
X245172473Y-76384098D01*
X245351101Y-76562727D01*
X245584490Y-76659400D01*
X245825050Y-76659400D01*
X245983800Y-76500650D01*
X245983800Y-75701400D01*
X246237800Y-75701400D01*
X246237800Y-76500650D01*
X246396550Y-76659400D01*
X246637110Y-76659400D01*
X246870499Y-76562727D01*
X247049127Y-76384098D01*
X247145800Y-76150709D01*
X247145800Y-75860150D01*
X246987050Y-75701400D01*
X246237800Y-75701400D01*
X245983800Y-75701400D01*
X245963800Y-75701400D01*
X245963800Y-75447400D01*
X245983800Y-75447400D01*
X245983800Y-74648150D01*
X246237800Y-74648150D01*
X246237800Y-75447400D01*
X246987050Y-75447400D01*
X247145800Y-75288650D01*
X247145800Y-74998091D01*
X247049127Y-74764702D01*
X246870499Y-74586073D01*
X246637110Y-74489400D01*
X246396550Y-74489400D01*
X246237800Y-74648150D01*
X245983800Y-74648150D01*
X245897788Y-74562138D01*
X246012241Y-74488490D01*
X246157231Y-74276290D01*
X246208240Y-74024400D01*
X246208240Y-73124400D01*
X246184381Y-72997600D01*
X246871598Y-72997600D01*
X248001799Y-74127801D01*
X248001799Y-74127801D01*
G37*
X248001799Y-74127801D02*
X248180698Y-74247337D01*
X248186038Y-74275717D01*
X248325110Y-74491841D01*
X248326748Y-74492960D01*
X247839200Y-74492960D01*
X247603883Y-74537238D01*
X247387759Y-74676310D01*
X247242769Y-74888510D01*
X247191760Y-75140400D01*
X247191760Y-76040400D01*
X247236038Y-76275717D01*
X247375110Y-76491841D01*
X247479200Y-76562963D01*
X247479200Y-89686398D01*
X244970800Y-87177998D01*
X244970800Y-76547331D01*
X245062241Y-76488490D01*
X245157790Y-76348650D01*
X245172473Y-76384098D01*
X245351101Y-76562727D01*
X245584490Y-76659400D01*
X245825050Y-76659400D01*
X245983800Y-76500650D01*
X245983800Y-75701400D01*
X246237800Y-75701400D01*
X246237800Y-76500650D01*
X246396550Y-76659400D01*
X246637110Y-76659400D01*
X246870499Y-76562727D01*
X247049127Y-76384098D01*
X247145800Y-76150709D01*
X247145800Y-75860150D01*
X246987050Y-75701400D01*
X246237800Y-75701400D01*
X245983800Y-75701400D01*
X245963800Y-75701400D01*
X245963800Y-75447400D01*
X245983800Y-75447400D01*
X245983800Y-74648150D01*
X246237800Y-74648150D01*
X246237800Y-75447400D01*
X246987050Y-75447400D01*
X247145800Y-75288650D01*
X247145800Y-74998091D01*
X247049127Y-74764702D01*
X246870499Y-74586073D01*
X246637110Y-74489400D01*
X246396550Y-74489400D01*
X246237800Y-74648150D01*
X245983800Y-74648150D01*
X245897788Y-74562138D01*
X246012241Y-74488490D01*
X246157231Y-74276290D01*
X246208240Y-74024400D01*
X246208240Y-73124400D01*
X246184381Y-72997600D01*
X246871598Y-72997600D01*
X248001799Y-74127801D01*
G36*
X243163360Y-76024400D02*
X243207638Y-76259717D01*
X243346710Y-76475841D01*
X243450800Y-76546963D01*
X243450800Y-87107208D01*
X237371800Y-81028208D01*
X237322022Y-80994948D01*
X237663343Y-80853917D01*
X237926592Y-80591127D01*
X238069238Y-80247599D01*
X238069279Y-80200723D01*
X240633401Y-77636601D01*
X240798148Y-77390039D01*
X240856000Y-77099200D01*
X240856000Y-76547331D01*
X240947441Y-76488490D01*
X241042990Y-76348650D01*
X241057673Y-76384098D01*
X241236301Y-76562727D01*
X241469690Y-76659400D01*
X241710250Y-76659400D01*
X241869000Y-76500650D01*
X241869000Y-75701400D01*
X242123000Y-75701400D01*
X242123000Y-76500650D01*
X242281750Y-76659400D01*
X242522310Y-76659400D01*
X242755699Y-76562727D01*
X242934327Y-76384098D01*
X243031000Y-76150709D01*
X243031000Y-75860150D01*
X242872250Y-75701400D01*
X242123000Y-75701400D01*
X241869000Y-75701400D01*
X241849000Y-75701400D01*
X241849000Y-75447400D01*
X241869000Y-75447400D01*
X241869000Y-75427400D01*
X242123000Y-75427400D01*
X242123000Y-75447400D01*
X242872250Y-75447400D01*
X243031000Y-75288650D01*
X243031000Y-75283600D01*
X243163360Y-75283600D01*
X243163360Y-76024400D01*
X243163360Y-76024400D01*
G37*
X243163360Y-76024400D02*
X243207638Y-76259717D01*
X243346710Y-76475841D01*
X243450800Y-76546963D01*
X243450800Y-87107208D01*
X237371800Y-81028208D01*
X237322022Y-80994948D01*
X237663343Y-80853917D01*
X237926592Y-80591127D01*
X238069238Y-80247599D01*
X238069279Y-80200723D01*
X240633401Y-77636601D01*
X240798148Y-77390039D01*
X240856000Y-77099200D01*
X240856000Y-76547331D01*
X240947441Y-76488490D01*
X241042990Y-76348650D01*
X241057673Y-76384098D01*
X241236301Y-76562727D01*
X241469690Y-76659400D01*
X241710250Y-76659400D01*
X241869000Y-76500650D01*
X241869000Y-75701400D01*
X242123000Y-75701400D01*
X242123000Y-76500650D01*
X242281750Y-76659400D01*
X242522310Y-76659400D01*
X242755699Y-76562727D01*
X242934327Y-76384098D01*
X243031000Y-76150709D01*
X243031000Y-75860150D01*
X242872250Y-75701400D01*
X242123000Y-75701400D01*
X241869000Y-75701400D01*
X241849000Y-75701400D01*
X241849000Y-75447400D01*
X241869000Y-75447400D01*
X241869000Y-75427400D01*
X242123000Y-75427400D01*
X242123000Y-75447400D01*
X242872250Y-75447400D01*
X243031000Y-75288650D01*
X243031000Y-75283600D01*
X243163360Y-75283600D01*
X243163360Y-76024400D01*
M02*
