G04 #@! TF.FileFunction,Copper,L2,Bot,Signal*
%FSLAX46Y46*%
G04 Gerber Fmt 4.6, Leading zero omitted, Abs format (unit mm)*
G04 Created by KiCad (PCBNEW 4.0.6) date 06/19/17 16:27:19*
%MOMM*%
%LPD*%
G01*
G04 APERTURE LIST*
%ADD10C,0.100000*%
%ADD11R,3.500000X1.000000*%
%ADD12R,3.400000X1.500000*%
%ADD13O,2.032000X1.727200*%
%ADD14R,1.700000X1.700000*%
%ADD15O,1.700000X1.700000*%
%ADD16C,1.524000*%
%ADD17O,1.727200X2.032000*%
%ADD18C,0.600000*%
%ADD19C,0.250000*%
%ADD20C,0.381000*%
%ADD21C,0.781000*%
%ADD22C,0.254000*%
G04 APERTURE END LIST*
D10*
D11*
X182046600Y-145881600D03*
X182046600Y-143881600D03*
D12*
X176296600Y-148231600D03*
X176296600Y-141531600D03*
D13*
X243840000Y-139954000D03*
X243840000Y-137414000D03*
X208280000Y-137414000D03*
X208280000Y-139954000D03*
X213360000Y-134874000D03*
X213360000Y-129794000D03*
X238760000Y-117094000D03*
X236220000Y-117094000D03*
D14*
X163830000Y-142240000D03*
D15*
X163830000Y-139700000D03*
X163830000Y-137160000D03*
D14*
X163830000Y-111760000D03*
D15*
X163830000Y-109220000D03*
X163830000Y-106680000D03*
D14*
X163830000Y-96520000D03*
D15*
X163830000Y-93980000D03*
X163830000Y-91440000D03*
D14*
X163830000Y-127000000D03*
D15*
X163830000Y-124460000D03*
X163830000Y-121920000D03*
D14*
X163830000Y-81280000D03*
D15*
X163830000Y-78740000D03*
X163830000Y-76200000D03*
D16*
X215900000Y-84590000D03*
X215900000Y-87130000D03*
X215900000Y-89670000D03*
X215900000Y-79510000D03*
X215900000Y-76970000D03*
X215900000Y-74430000D03*
X198120000Y-89670000D03*
X198120000Y-87130000D03*
X198120000Y-84590000D03*
X198120000Y-79510000D03*
X198120000Y-76970000D03*
X198120000Y-74430000D03*
D13*
X251412400Y-116687600D03*
X251412400Y-114147600D03*
X251412400Y-111607600D03*
X251412400Y-109067600D03*
X231092400Y-106527600D03*
X251412400Y-106527600D03*
X231092400Y-103987600D03*
X251412400Y-103987600D03*
X231092400Y-101447600D03*
X251412400Y-101447600D03*
X231092400Y-98907600D03*
X251412400Y-98907600D03*
X231092400Y-96367600D03*
X251412400Y-96367600D03*
X231092400Y-93827600D03*
X251412400Y-93827600D03*
X231092400Y-91287600D03*
X251412400Y-91287600D03*
X231092400Y-88747600D03*
X251412400Y-88747600D03*
X231092400Y-86207600D03*
X251412400Y-86207600D03*
X231092400Y-83667600D03*
X251412400Y-83667600D03*
X231092400Y-81127600D03*
X251412400Y-81127600D03*
X231092400Y-78587600D03*
X251412400Y-78587600D03*
D16*
X186690000Y-111760000D03*
X186690000Y-109220000D03*
X186690000Y-106680000D03*
X168910000Y-111760000D03*
X168910000Y-109220000D03*
X168910000Y-106680000D03*
X186690000Y-96520000D03*
X186690000Y-93980000D03*
X186690000Y-91440000D03*
X168910000Y-96520000D03*
X168910000Y-93980000D03*
X168910000Y-91440000D03*
X186690000Y-127000000D03*
X186690000Y-124460000D03*
X186690000Y-121920000D03*
X168910000Y-127000000D03*
X168910000Y-124460000D03*
X168910000Y-121920000D03*
X186690000Y-81280000D03*
X186690000Y-78740000D03*
X186690000Y-76200000D03*
X168910000Y-81280000D03*
X168910000Y-78740000D03*
X168910000Y-76200000D03*
D17*
X200660000Y-148590000D03*
X198120000Y-148590000D03*
X195580000Y-148590000D03*
X203200000Y-146050000D03*
X203200000Y-143510000D03*
X200660000Y-140970000D03*
X198120000Y-140970000D03*
X195580000Y-140970000D03*
D16*
X186690000Y-142240000D03*
X186690000Y-139700000D03*
X186690000Y-137160000D03*
X168910000Y-142240000D03*
X168910000Y-139700000D03*
X168910000Y-137160000D03*
D14*
X221960000Y-127000000D03*
D15*
X221960000Y-129540000D03*
X221960000Y-132080000D03*
X221960000Y-134620000D03*
X221960000Y-137160000D03*
X221960000Y-139700000D03*
X221960000Y-142240000D03*
X221960000Y-144780000D03*
X221960000Y-147320000D03*
D14*
X251866400Y-150164800D03*
D15*
X251866400Y-147624800D03*
D14*
X251866400Y-141173200D03*
D15*
X251866400Y-143713200D03*
D18*
X246837200Y-133197600D03*
X246075200Y-128016000D03*
X246278400Y-86614000D03*
X250342400Y-76657200D03*
X246380000Y-76758800D03*
X242163600Y-76758800D03*
X240665000Y-113030000D03*
X242570000Y-111125000D03*
X243205000Y-115570000D03*
X245110000Y-113665000D03*
X218440000Y-92075000D03*
X246176800Y-98602800D03*
X198374000Y-103428800D03*
X198374000Y-105156000D03*
X202133200Y-92854179D03*
X193512705Y-96637010D03*
X205148139Y-100054963D03*
X190754000Y-98450400D03*
X205130400Y-96012000D03*
X205892400Y-93878400D03*
X206849600Y-83159600D03*
X203962000Y-124968000D03*
X231597200Y-130962400D03*
X201872011Y-124517989D03*
X236423200Y-125780800D03*
X207721200Y-86571200D03*
X234492800Y-145491200D03*
X236067600Y-145288000D03*
X248818400Y-92100400D03*
X237134400Y-80060800D03*
D19*
X246075200Y-128016000D02*
X246837200Y-128778000D01*
X246837200Y-128778000D02*
X246837200Y-133197600D01*
X246380000Y-76758800D02*
X250240800Y-76758800D01*
X250240800Y-76758800D02*
X250342400Y-76657200D01*
X246430800Y-76708000D02*
X246380000Y-76758800D01*
X242163600Y-76758800D02*
X246380000Y-76758800D01*
X245110000Y-113665000D02*
X242570000Y-111125000D01*
X240665000Y-113030000D02*
X243205000Y-115570000D01*
X218440000Y-92075000D02*
X216535000Y-90170000D01*
X216535000Y-90170000D02*
X215900000Y-90170000D01*
D20*
X221960000Y-127000000D02*
X196392800Y-127000000D01*
X196392800Y-127000000D02*
X188315600Y-135077200D01*
X188315600Y-135077200D02*
X170992800Y-135077200D01*
X170992800Y-135077200D02*
X168910000Y-137160000D01*
D21*
X251612400Y-114147600D02*
X251460000Y-114147600D01*
X251460000Y-114147600D02*
X240941389Y-103628989D01*
X240941389Y-103628989D02*
X240912978Y-103628989D01*
X221750000Y-73660000D02*
X215900000Y-79510000D01*
X240912978Y-103628989D02*
X239518989Y-102235000D01*
X239518989Y-102235000D02*
X239518989Y-80768989D01*
X239518989Y-80768989D02*
X232410000Y-73660000D01*
X232410000Y-73660000D02*
X221750000Y-73660000D01*
D19*
X250146400Y-103987600D02*
X246184000Y-100025200D01*
X246176800Y-98602800D02*
X246176800Y-99027064D01*
X246176800Y-99027064D02*
X246184000Y-99034264D01*
X246184000Y-99034264D02*
X246184000Y-100025200D01*
X251412400Y-103987600D02*
X250146400Y-103987600D01*
X198374000Y-105156000D02*
X198374000Y-103428800D01*
D20*
X202133200Y-92429915D02*
X202133200Y-92854179D01*
X202133200Y-83523200D02*
X202133200Y-92429915D01*
X198120000Y-79510000D02*
X202133200Y-83523200D01*
X168910000Y-76200000D02*
X171450000Y-73660000D01*
X171450000Y-73660000D02*
X192270000Y-73660000D01*
X192270000Y-73660000D02*
X198120000Y-79510000D01*
X171450000Y-88900000D02*
X171450000Y-104140000D01*
X171450000Y-104140000D02*
X171450000Y-119380000D01*
X168910000Y-106680000D02*
X171450000Y-104140000D01*
X171450000Y-119380000D02*
X168910000Y-121920000D01*
X171450000Y-88900000D02*
X168910000Y-91440000D01*
X171450000Y-78740000D02*
X171450000Y-88900000D01*
X168910000Y-76200000D02*
X171450000Y-78740000D01*
D21*
X231140000Y-101447600D02*
X231292400Y-101447600D01*
D19*
X251460000Y-101447600D02*
X251612400Y-101447600D01*
X198120000Y-148590000D02*
X198120000Y-148742400D01*
X198120000Y-148742400D02*
X199308610Y-149931010D01*
X199308610Y-149931010D02*
X227106590Y-149931010D01*
X227106590Y-149931010D02*
X240080800Y-136956800D01*
X240080800Y-136956800D02*
X240080800Y-126339600D01*
X240080800Y-126339600D02*
X228346000Y-114604800D01*
X228346000Y-114604800D02*
X228346000Y-84023200D01*
X228346000Y-83921600D02*
X228346000Y-84023200D01*
X231092400Y-81127600D02*
X229826400Y-81127600D01*
X229826400Y-81127600D02*
X228346000Y-82608000D01*
X228346000Y-82608000D02*
X228346000Y-84023200D01*
X231292400Y-81127600D02*
X231140000Y-81127600D01*
X200660000Y-148590000D02*
X226923600Y-148590000D01*
X227812600Y-147701000D02*
X226923600Y-148590000D01*
X227812600Y-114909600D02*
X227812600Y-81715000D01*
X239522000Y-135991600D02*
X239522000Y-126619000D01*
X239522000Y-126619000D02*
X227812600Y-114909600D01*
X227812600Y-147701000D02*
X239522000Y-135991600D01*
X227812600Y-81715000D02*
X230940000Y-78587600D01*
X230940000Y-78587600D02*
X231092400Y-78587600D01*
X231140000Y-78587600D02*
X231292400Y-78587600D01*
D21*
X182046600Y-145881600D02*
X203031600Y-145881600D01*
X203031600Y-145881600D02*
X203200000Y-146050000D01*
X203200000Y-145897600D02*
X203200000Y-146050000D01*
X203200000Y-143510000D02*
X201555400Y-143510000D01*
X201555400Y-143510000D02*
X201183800Y-143881600D01*
X201183800Y-143881600D02*
X184577600Y-143881600D01*
X184577600Y-143881600D02*
X182046600Y-143881600D01*
D19*
X185267600Y-104882115D02*
X193212706Y-96937009D01*
X193212706Y-96937009D02*
X193512705Y-96637010D01*
X185267600Y-110337600D02*
X185267600Y-104882115D01*
X186690000Y-111760000D02*
X185267600Y-110337600D01*
X186690000Y-109220000D02*
X195983102Y-109220000D01*
X195983102Y-109220000D02*
X204848140Y-100354962D01*
X204848140Y-100354962D02*
X205148139Y-100054963D01*
X184759600Y-104444800D02*
X184759600Y-125069600D01*
X184759600Y-125069600D02*
X186690000Y-127000000D01*
X190754000Y-98450400D02*
X184759600Y-104444800D01*
X203149200Y-94030800D02*
X204830401Y-95712001D01*
X186690000Y-93980000D02*
X203098400Y-93980000D01*
X203098400Y-93980000D02*
X203149200Y-94030800D01*
X205130400Y-96012000D02*
X204830401Y-95712001D01*
X205892400Y-93878400D02*
X205493189Y-93479189D01*
X205493189Y-93479189D02*
X199701989Y-93479189D01*
X199701989Y-93479189D02*
X192684400Y-86461600D01*
X192684400Y-86461600D02*
X192684400Y-84734400D01*
X192684400Y-84734400D02*
X186690000Y-78740000D01*
X206849600Y-83159600D02*
X198120000Y-74430000D01*
X226027064Y-124968000D02*
X203962000Y-124968000D01*
X231597200Y-130962400D02*
X231597200Y-130538136D01*
X231597200Y-130538136D02*
X226027064Y-124968000D01*
X234860390Y-124217990D02*
X202172010Y-124217990D01*
X236423200Y-125780800D02*
X234860390Y-124217990D01*
X202172010Y-124217990D02*
X201872011Y-124517989D01*
X207721200Y-86571200D02*
X198120000Y-76970000D01*
D20*
X234492800Y-145491200D02*
X239166400Y-150164800D01*
X239166400Y-150164800D02*
X251866400Y-150164800D01*
X236067600Y-145288000D02*
X238404400Y-147624800D01*
X238404400Y-147624800D02*
X251866400Y-147624800D01*
X251866400Y-141173200D02*
X251866400Y-132588000D01*
X251866400Y-132588000D02*
X236372400Y-117094000D01*
X236372400Y-117094000D02*
X236220000Y-117094000D01*
X253542800Y-130479800D02*
X253542800Y-142036800D01*
X253542800Y-142036800D02*
X251866400Y-143713200D01*
X238760000Y-117094000D02*
X240157000Y-117094000D01*
X240157000Y-117094000D02*
X253542800Y-130479800D01*
D19*
X248818400Y-92100400D02*
X248818400Y-92499600D01*
X248818400Y-92499600D02*
X250146400Y-93827600D01*
X250146400Y-93827600D02*
X251412400Y-93827600D01*
X233527600Y-83667600D02*
X231092400Y-83667600D01*
X237134400Y-80060800D02*
X233527600Y-83667600D01*
D22*
G36*
X210185000Y-106553000D02*
X199724904Y-106553000D01*
X205287819Y-100990085D01*
X205333306Y-100990125D01*
X205677082Y-100848080D01*
X205940331Y-100585290D01*
X206082977Y-100241762D01*
X206083301Y-99869796D01*
X205941256Y-99526020D01*
X205678466Y-99262771D01*
X205334938Y-99120125D01*
X204962972Y-99119801D01*
X204619196Y-99261846D01*
X204355947Y-99524636D01*
X204213301Y-99868164D01*
X204213260Y-99915040D01*
X197575300Y-106553000D01*
X188468000Y-106553000D01*
X188418590Y-106563006D01*
X188376965Y-106591447D01*
X188349685Y-106633841D01*
X188341000Y-106680000D01*
X188341000Y-108460000D01*
X187887531Y-108460000D01*
X187875010Y-108429697D01*
X187482370Y-108036371D01*
X187290273Y-107956605D01*
X187421143Y-107902397D01*
X187490608Y-107660213D01*
X186690000Y-106859605D01*
X186675858Y-106873748D01*
X186496253Y-106694143D01*
X186510395Y-106680000D01*
X186869605Y-106680000D01*
X187670213Y-107480608D01*
X187912397Y-107411143D01*
X188099144Y-106887698D01*
X188071362Y-106332632D01*
X187912397Y-105948857D01*
X187670213Y-105879392D01*
X186869605Y-106680000D01*
X186510395Y-106680000D01*
X186496253Y-106665858D01*
X186675858Y-106486253D01*
X186690000Y-106500395D01*
X187490608Y-105699787D01*
X187421143Y-105457603D01*
X186897698Y-105270856D01*
X186342632Y-105298638D01*
X186027600Y-105429129D01*
X186027600Y-105196917D01*
X193652385Y-97572132D01*
X193697872Y-97572172D01*
X194041648Y-97430127D01*
X194304897Y-97167337D01*
X194447543Y-96823809D01*
X194447867Y-96451843D01*
X194305822Y-96108067D01*
X194043032Y-95844818D01*
X193699504Y-95702172D01*
X193327538Y-95701848D01*
X192983762Y-95843893D01*
X192720513Y-96106683D01*
X192577867Y-96450211D01*
X192577826Y-96497087D01*
X191350458Y-97724455D01*
X191284327Y-97658208D01*
X190940799Y-97515562D01*
X190568833Y-97515238D01*
X190225057Y-97657283D01*
X189961808Y-97920073D01*
X189819162Y-98263601D01*
X189819121Y-98310477D01*
X184222199Y-103907399D01*
X184057452Y-104153961D01*
X183999600Y-104444800D01*
X183999600Y-125069600D01*
X184057452Y-125360439D01*
X184222199Y-125607001D01*
X185305817Y-126690619D01*
X185293243Y-126720900D01*
X185292758Y-127276661D01*
X185504990Y-127790303D01*
X185897630Y-128183629D01*
X186410900Y-128396757D01*
X186966661Y-128397242D01*
X187480303Y-128185010D01*
X187873629Y-127792370D01*
X188086757Y-127279100D01*
X188087242Y-126723339D01*
X187875010Y-126209697D01*
X187482370Y-125816371D01*
X187274488Y-125730051D01*
X187480303Y-125645010D01*
X187873629Y-125252370D01*
X188086757Y-124739100D01*
X188087242Y-124183339D01*
X187875010Y-123669697D01*
X187482370Y-123276371D01*
X187290273Y-123196605D01*
X187421143Y-123142397D01*
X187490608Y-122900213D01*
X186690000Y-122099605D01*
X185889392Y-122900213D01*
X185958857Y-123142397D01*
X186099318Y-123192509D01*
X185899697Y-123274990D01*
X185519600Y-123654424D01*
X185519600Y-122666057D01*
X185709787Y-122720608D01*
X186510395Y-121920000D01*
X186869605Y-121920000D01*
X187670213Y-122720608D01*
X187912397Y-122651143D01*
X188099144Y-122127698D01*
X188071362Y-121572632D01*
X187912397Y-121188857D01*
X187670213Y-121119392D01*
X186869605Y-121920000D01*
X186510395Y-121920000D01*
X185709787Y-121119392D01*
X185519600Y-121173943D01*
X185519600Y-120939787D01*
X185889392Y-120939787D01*
X186690000Y-121740395D01*
X187490608Y-120939787D01*
X187421143Y-120697603D01*
X186897698Y-120510856D01*
X186342632Y-120538638D01*
X185958857Y-120697603D01*
X185889392Y-120939787D01*
X185519600Y-120939787D01*
X185519600Y-112564939D01*
X185897630Y-112943629D01*
X186410900Y-113156757D01*
X186966661Y-113157242D01*
X187480303Y-112945010D01*
X187873629Y-112552370D01*
X188086757Y-112039100D01*
X188087242Y-111483339D01*
X187875010Y-110969697D01*
X187482370Y-110576371D01*
X187274488Y-110490051D01*
X187480303Y-110405010D01*
X187873629Y-110012370D01*
X187887070Y-109980000D01*
X188341000Y-109980000D01*
X188341000Y-130937000D01*
X158190000Y-130937000D01*
X158190000Y-121920000D01*
X162315907Y-121920000D01*
X162428946Y-122488285D01*
X162750853Y-122970054D01*
X163080026Y-123190000D01*
X162750853Y-123409946D01*
X162428946Y-123891715D01*
X162315907Y-124460000D01*
X162428946Y-125028285D01*
X162750853Y-125510054D01*
X162792452Y-125537850D01*
X162744683Y-125546838D01*
X162528559Y-125685910D01*
X162383569Y-125898110D01*
X162332560Y-126150000D01*
X162332560Y-127850000D01*
X162376838Y-128085317D01*
X162515910Y-128301441D01*
X162728110Y-128446431D01*
X162980000Y-128497440D01*
X164680000Y-128497440D01*
X164915317Y-128453162D01*
X165131441Y-128314090D01*
X165276431Y-128101890D01*
X165327440Y-127850000D01*
X165327440Y-126150000D01*
X165283162Y-125914683D01*
X165144090Y-125698559D01*
X164931890Y-125553569D01*
X164864459Y-125539914D01*
X164909147Y-125510054D01*
X165231054Y-125028285D01*
X165344093Y-124460000D01*
X165231054Y-123891715D01*
X164909147Y-123409946D01*
X164579974Y-123190000D01*
X164909147Y-122970054D01*
X165231054Y-122488285D01*
X165344093Y-121920000D01*
X165231054Y-121351715D01*
X164909147Y-120869946D01*
X164427378Y-120548039D01*
X163859093Y-120435000D01*
X163800907Y-120435000D01*
X163232622Y-120548039D01*
X162750853Y-120869946D01*
X162428946Y-121351715D01*
X162315907Y-121920000D01*
X158190000Y-121920000D01*
X158190000Y-106680000D01*
X162315907Y-106680000D01*
X162428946Y-107248285D01*
X162750853Y-107730054D01*
X163080026Y-107950000D01*
X162750853Y-108169946D01*
X162428946Y-108651715D01*
X162315907Y-109220000D01*
X162428946Y-109788285D01*
X162750853Y-110270054D01*
X162792452Y-110297850D01*
X162744683Y-110306838D01*
X162528559Y-110445910D01*
X162383569Y-110658110D01*
X162332560Y-110910000D01*
X162332560Y-112610000D01*
X162376838Y-112845317D01*
X162515910Y-113061441D01*
X162728110Y-113206431D01*
X162980000Y-113257440D01*
X164680000Y-113257440D01*
X164915317Y-113213162D01*
X165131441Y-113074090D01*
X165276431Y-112861890D01*
X165327440Y-112610000D01*
X165327440Y-110910000D01*
X165283162Y-110674683D01*
X165144090Y-110458559D01*
X164931890Y-110313569D01*
X164864459Y-110299914D01*
X164909147Y-110270054D01*
X165231054Y-109788285D01*
X165344093Y-109220000D01*
X165231054Y-108651715D01*
X164909147Y-108169946D01*
X164579974Y-107950000D01*
X164909147Y-107730054D01*
X165231054Y-107248285D01*
X165344093Y-106680000D01*
X165231054Y-106111715D01*
X164909147Y-105629946D01*
X164427378Y-105308039D01*
X163859093Y-105195000D01*
X163800907Y-105195000D01*
X163232622Y-105308039D01*
X162750853Y-105629946D01*
X162428946Y-106111715D01*
X162315907Y-106680000D01*
X158190000Y-106680000D01*
X158190000Y-91440000D01*
X162315907Y-91440000D01*
X162428946Y-92008285D01*
X162750853Y-92490054D01*
X163080026Y-92710000D01*
X162750853Y-92929946D01*
X162428946Y-93411715D01*
X162315907Y-93980000D01*
X162428946Y-94548285D01*
X162750853Y-95030054D01*
X162792452Y-95057850D01*
X162744683Y-95066838D01*
X162528559Y-95205910D01*
X162383569Y-95418110D01*
X162332560Y-95670000D01*
X162332560Y-97370000D01*
X162376838Y-97605317D01*
X162515910Y-97821441D01*
X162728110Y-97966431D01*
X162980000Y-98017440D01*
X164680000Y-98017440D01*
X164915317Y-97973162D01*
X165131441Y-97834090D01*
X165276431Y-97621890D01*
X165327440Y-97370000D01*
X165327440Y-95670000D01*
X165283162Y-95434683D01*
X165144090Y-95218559D01*
X164931890Y-95073569D01*
X164864459Y-95059914D01*
X164909147Y-95030054D01*
X165231054Y-94548285D01*
X165344093Y-93980000D01*
X165231054Y-93411715D01*
X164909147Y-92929946D01*
X164579974Y-92710000D01*
X164909147Y-92490054D01*
X165231054Y-92008285D01*
X165344093Y-91440000D01*
X165231054Y-90871715D01*
X164909147Y-90389946D01*
X164427378Y-90068039D01*
X163859093Y-89955000D01*
X163800907Y-89955000D01*
X163232622Y-90068039D01*
X162750853Y-90389946D01*
X162428946Y-90871715D01*
X162315907Y-91440000D01*
X158190000Y-91440000D01*
X158190000Y-76200000D01*
X162315907Y-76200000D01*
X162428946Y-76768285D01*
X162750853Y-77250054D01*
X163080026Y-77470000D01*
X162750853Y-77689946D01*
X162428946Y-78171715D01*
X162315907Y-78740000D01*
X162428946Y-79308285D01*
X162750853Y-79790054D01*
X162792452Y-79817850D01*
X162744683Y-79826838D01*
X162528559Y-79965910D01*
X162383569Y-80178110D01*
X162332560Y-80430000D01*
X162332560Y-82130000D01*
X162376838Y-82365317D01*
X162515910Y-82581441D01*
X162728110Y-82726431D01*
X162980000Y-82777440D01*
X164680000Y-82777440D01*
X164915317Y-82733162D01*
X165131441Y-82594090D01*
X165276431Y-82381890D01*
X165327440Y-82130000D01*
X165327440Y-80430000D01*
X165283162Y-80194683D01*
X165144090Y-79978559D01*
X164931890Y-79833569D01*
X164864459Y-79819914D01*
X164909147Y-79790054D01*
X165231054Y-79308285D01*
X165344093Y-78740000D01*
X165231054Y-78171715D01*
X164909147Y-77689946D01*
X164579974Y-77470000D01*
X164909147Y-77250054D01*
X165231054Y-76768285D01*
X165289061Y-76476661D01*
X167512758Y-76476661D01*
X167724990Y-76990303D01*
X168117630Y-77383629D01*
X168325512Y-77469949D01*
X168119697Y-77554990D01*
X167726371Y-77947630D01*
X167513243Y-78460900D01*
X167512758Y-79016661D01*
X167724990Y-79530303D01*
X168117630Y-79923629D01*
X168325512Y-80009949D01*
X168119697Y-80094990D01*
X167726371Y-80487630D01*
X167513243Y-81000900D01*
X167512758Y-81556661D01*
X167724990Y-82070303D01*
X168117630Y-82463629D01*
X168630900Y-82676757D01*
X169186661Y-82677242D01*
X169700303Y-82465010D01*
X170093629Y-82072370D01*
X170306757Y-81559100D01*
X170307242Y-81003339D01*
X170095010Y-80489697D01*
X169702370Y-80096371D01*
X169494488Y-80010051D01*
X169700303Y-79925010D01*
X170093629Y-79532370D01*
X170306757Y-79019100D01*
X170306979Y-78764412D01*
X170624500Y-79081933D01*
X170624500Y-88558067D01*
X169139367Y-90043200D01*
X168633339Y-90042758D01*
X168119697Y-90254990D01*
X167726371Y-90647630D01*
X167513243Y-91160900D01*
X167512758Y-91716661D01*
X167724990Y-92230303D01*
X168117630Y-92623629D01*
X168325512Y-92709949D01*
X168119697Y-92794990D01*
X167726371Y-93187630D01*
X167513243Y-93700900D01*
X167512758Y-94256661D01*
X167724990Y-94770303D01*
X168117630Y-95163629D01*
X168325512Y-95249949D01*
X168119697Y-95334990D01*
X167726371Y-95727630D01*
X167513243Y-96240900D01*
X167512758Y-96796661D01*
X167724990Y-97310303D01*
X168117630Y-97703629D01*
X168630900Y-97916757D01*
X169186661Y-97917242D01*
X169700303Y-97705010D01*
X170093629Y-97312370D01*
X170306757Y-96799100D01*
X170307242Y-96243339D01*
X170095010Y-95729697D01*
X169702370Y-95336371D01*
X169494488Y-95250051D01*
X169700303Y-95165010D01*
X170093629Y-94772370D01*
X170306757Y-94259100D01*
X170307242Y-93703339D01*
X170095010Y-93189697D01*
X169702370Y-92796371D01*
X169494488Y-92710051D01*
X169700303Y-92625010D01*
X170093629Y-92232370D01*
X170306757Y-91719100D01*
X170307201Y-91210233D01*
X170624500Y-90892934D01*
X170624500Y-103798067D01*
X169139367Y-105283200D01*
X168633339Y-105282758D01*
X168119697Y-105494990D01*
X167726371Y-105887630D01*
X167513243Y-106400900D01*
X167512758Y-106956661D01*
X167724990Y-107470303D01*
X168117630Y-107863629D01*
X168325512Y-107949949D01*
X168119697Y-108034990D01*
X167726371Y-108427630D01*
X167513243Y-108940900D01*
X167512758Y-109496661D01*
X167724990Y-110010303D01*
X168117630Y-110403629D01*
X168325512Y-110489949D01*
X168119697Y-110574990D01*
X167726371Y-110967630D01*
X167513243Y-111480900D01*
X167512758Y-112036661D01*
X167724990Y-112550303D01*
X168117630Y-112943629D01*
X168630900Y-113156757D01*
X169186661Y-113157242D01*
X169700303Y-112945010D01*
X170093629Y-112552370D01*
X170306757Y-112039100D01*
X170307242Y-111483339D01*
X170095010Y-110969697D01*
X169702370Y-110576371D01*
X169494488Y-110490051D01*
X169700303Y-110405010D01*
X170093629Y-110012370D01*
X170306757Y-109499100D01*
X170307242Y-108943339D01*
X170095010Y-108429697D01*
X169702370Y-108036371D01*
X169494488Y-107950051D01*
X169700303Y-107865010D01*
X170093629Y-107472370D01*
X170306757Y-106959100D01*
X170307201Y-106450233D01*
X170624500Y-106132934D01*
X170624500Y-119038067D01*
X169139367Y-120523200D01*
X168633339Y-120522758D01*
X168119697Y-120734990D01*
X167726371Y-121127630D01*
X167513243Y-121640900D01*
X167512758Y-122196661D01*
X167724990Y-122710303D01*
X168117630Y-123103629D01*
X168325512Y-123189949D01*
X168119697Y-123274990D01*
X167726371Y-123667630D01*
X167513243Y-124180900D01*
X167512758Y-124736661D01*
X167724990Y-125250303D01*
X168117630Y-125643629D01*
X168325512Y-125729949D01*
X168119697Y-125814990D01*
X167726371Y-126207630D01*
X167513243Y-126720900D01*
X167512758Y-127276661D01*
X167724990Y-127790303D01*
X168117630Y-128183629D01*
X168630900Y-128396757D01*
X169186661Y-128397242D01*
X169700303Y-128185010D01*
X170093629Y-127792370D01*
X170306757Y-127279100D01*
X170307242Y-126723339D01*
X170095010Y-126209697D01*
X169702370Y-125816371D01*
X169494488Y-125730051D01*
X169700303Y-125645010D01*
X170093629Y-125252370D01*
X170306757Y-124739100D01*
X170307242Y-124183339D01*
X170095010Y-123669697D01*
X169702370Y-123276371D01*
X169494488Y-123190051D01*
X169700303Y-123105010D01*
X170093629Y-122712370D01*
X170306757Y-122199100D01*
X170307201Y-121690233D01*
X172033714Y-119963719D01*
X172033717Y-119963717D01*
X172212663Y-119695905D01*
X172275500Y-119380000D01*
X172275500Y-91232302D01*
X185280856Y-91232302D01*
X185308638Y-91787368D01*
X185467603Y-92171143D01*
X185709787Y-92240608D01*
X186510395Y-91440000D01*
X186869605Y-91440000D01*
X187670213Y-92240608D01*
X187912397Y-92171143D01*
X188099144Y-91647698D01*
X188071362Y-91092632D01*
X187912397Y-90708857D01*
X187670213Y-90639392D01*
X186869605Y-91440000D01*
X186510395Y-91440000D01*
X185709787Y-90639392D01*
X185467603Y-90708857D01*
X185280856Y-91232302D01*
X172275500Y-91232302D01*
X172275500Y-90459787D01*
X185889392Y-90459787D01*
X186690000Y-91260395D01*
X187490608Y-90459787D01*
X187421143Y-90217603D01*
X186897698Y-90030856D01*
X186342632Y-90058638D01*
X185958857Y-90217603D01*
X185889392Y-90459787D01*
X172275500Y-90459787D01*
X172275500Y-78740000D01*
X172212663Y-78424095D01*
X172033717Y-78156283D01*
X172033714Y-78156281D01*
X170306800Y-76429367D01*
X170307181Y-75992302D01*
X185280856Y-75992302D01*
X185308638Y-76547368D01*
X185467603Y-76931143D01*
X185709787Y-77000608D01*
X186510395Y-76200000D01*
X186869605Y-76200000D01*
X187670213Y-77000608D01*
X187912397Y-76931143D01*
X188099144Y-76407698D01*
X188071362Y-75852632D01*
X187912397Y-75468857D01*
X187670213Y-75399392D01*
X186869605Y-76200000D01*
X186510395Y-76200000D01*
X185709787Y-75399392D01*
X185467603Y-75468857D01*
X185280856Y-75992302D01*
X170307181Y-75992302D01*
X170307201Y-75970233D01*
X171057646Y-75219787D01*
X185889392Y-75219787D01*
X186690000Y-76020395D01*
X187490608Y-75219787D01*
X187421143Y-74977603D01*
X186897698Y-74790856D01*
X186342632Y-74818638D01*
X185958857Y-74977603D01*
X185889392Y-75219787D01*
X171057646Y-75219787D01*
X171791933Y-74485500D01*
X191928066Y-74485500D01*
X196723200Y-79280633D01*
X196722758Y-79786661D01*
X196934990Y-80300303D01*
X197327630Y-80693629D01*
X197840900Y-80906757D01*
X198349767Y-80907201D01*
X201307700Y-83865134D01*
X201307700Y-92404066D01*
X201198362Y-92667380D01*
X201198317Y-92719189D01*
X200016791Y-92719189D01*
X198364816Y-91067214D01*
X198396661Y-91067242D01*
X198910303Y-90855010D01*
X199303629Y-90462370D01*
X199516757Y-89949100D01*
X199517242Y-89393339D01*
X199305010Y-88879697D01*
X198912370Y-88486371D01*
X198704488Y-88400051D01*
X198910303Y-88315010D01*
X199303629Y-87922370D01*
X199516757Y-87409100D01*
X199517242Y-86853339D01*
X199305010Y-86339697D01*
X198912370Y-85946371D01*
X198720273Y-85866605D01*
X198851143Y-85812397D01*
X198920608Y-85570213D01*
X198120000Y-84769605D01*
X197319392Y-85570213D01*
X197388857Y-85812397D01*
X197529318Y-85862509D01*
X197329697Y-85944990D01*
X196936371Y-86337630D01*
X196723243Y-86850900D01*
X196722758Y-87406661D01*
X196934990Y-87920303D01*
X197327630Y-88313629D01*
X197535512Y-88399949D01*
X197329697Y-88484990D01*
X196936371Y-88877630D01*
X196723243Y-89390900D01*
X196723213Y-89425611D01*
X193444400Y-86146798D01*
X193444400Y-84734400D01*
X193386548Y-84443561D01*
X193345617Y-84382302D01*
X196710856Y-84382302D01*
X196738638Y-84937368D01*
X196897603Y-85321143D01*
X197139787Y-85390608D01*
X197940395Y-84590000D01*
X198299605Y-84590000D01*
X199100213Y-85390608D01*
X199342397Y-85321143D01*
X199529144Y-84797698D01*
X199501362Y-84242632D01*
X199342397Y-83858857D01*
X199100213Y-83789392D01*
X198299605Y-84590000D01*
X197940395Y-84590000D01*
X197139787Y-83789392D01*
X196897603Y-83858857D01*
X196710856Y-84382302D01*
X193345617Y-84382302D01*
X193221801Y-84196999D01*
X192634589Y-83609787D01*
X197319392Y-83609787D01*
X198120000Y-84410395D01*
X198920608Y-83609787D01*
X198851143Y-83367603D01*
X198327698Y-83180856D01*
X197772632Y-83208638D01*
X197388857Y-83367603D01*
X197319392Y-83609787D01*
X192634589Y-83609787D01*
X188074183Y-79049381D01*
X188086757Y-79019100D01*
X188087242Y-78463339D01*
X187875010Y-77949697D01*
X187482370Y-77556371D01*
X187290273Y-77476605D01*
X187421143Y-77422397D01*
X187490608Y-77180213D01*
X186690000Y-76379605D01*
X185889392Y-77180213D01*
X185958857Y-77422397D01*
X186099318Y-77472509D01*
X185899697Y-77554990D01*
X185506371Y-77947630D01*
X185293243Y-78460900D01*
X185292758Y-79016661D01*
X185504990Y-79530303D01*
X185897630Y-79923629D01*
X186105512Y-80009949D01*
X185899697Y-80094990D01*
X185506371Y-80487630D01*
X185293243Y-81000900D01*
X185292758Y-81556661D01*
X185504990Y-82070303D01*
X185897630Y-82463629D01*
X186410900Y-82676757D01*
X186966661Y-82677242D01*
X187480303Y-82465010D01*
X187873629Y-82072370D01*
X188086757Y-81559100D01*
X188087060Y-81211862D01*
X191924400Y-85049202D01*
X191924400Y-86461600D01*
X191982252Y-86752439D01*
X192146999Y-86999001D01*
X198367998Y-93220000D01*
X187887531Y-93220000D01*
X187875010Y-93189697D01*
X187482370Y-92796371D01*
X187290273Y-92716605D01*
X187421143Y-92662397D01*
X187490608Y-92420213D01*
X186690000Y-91619605D01*
X185889392Y-92420213D01*
X185958857Y-92662397D01*
X186099318Y-92712509D01*
X185899697Y-92794990D01*
X185506371Y-93187630D01*
X185293243Y-93700900D01*
X185292758Y-94256661D01*
X185504990Y-94770303D01*
X185897630Y-95163629D01*
X186105512Y-95249949D01*
X185899697Y-95334990D01*
X185506371Y-95727630D01*
X185293243Y-96240900D01*
X185292758Y-96796661D01*
X185504990Y-97310303D01*
X185897630Y-97703629D01*
X186410900Y-97916757D01*
X186966661Y-97917242D01*
X187480303Y-97705010D01*
X187873629Y-97312370D01*
X188086757Y-96799100D01*
X188087242Y-96243339D01*
X187875010Y-95729697D01*
X187482370Y-95336371D01*
X187274488Y-95250051D01*
X187480303Y-95165010D01*
X187873629Y-94772370D01*
X187887070Y-94740000D01*
X202783598Y-94740000D01*
X204195278Y-96151680D01*
X204195238Y-96197167D01*
X204337283Y-96540943D01*
X204600073Y-96804192D01*
X204943601Y-96946838D01*
X205315567Y-96947162D01*
X205659343Y-96805117D01*
X205922592Y-96542327D01*
X206065238Y-96198799D01*
X206065562Y-95826833D01*
X205923517Y-95483057D01*
X205660727Y-95219808D01*
X205317199Y-95077162D01*
X205270323Y-95077121D01*
X204432391Y-94239189D01*
X205029803Y-94239189D01*
X205099283Y-94407343D01*
X205362073Y-94670592D01*
X205705601Y-94813238D01*
X206077567Y-94813562D01*
X206421343Y-94671517D01*
X206684592Y-94408727D01*
X206827238Y-94065199D01*
X206827562Y-93693233D01*
X206685517Y-93349457D01*
X206422727Y-93086208D01*
X206079199Y-92943562D01*
X206032323Y-92943521D01*
X206030590Y-92941788D01*
X205784028Y-92777041D01*
X205493189Y-92719189D01*
X203068318Y-92719189D01*
X203068362Y-92669012D01*
X202958700Y-92403609D01*
X202958700Y-83523205D01*
X202958701Y-83523200D01*
X202895863Y-83207294D01*
X202716917Y-82939483D01*
X199516800Y-79739366D01*
X199517060Y-79441862D01*
X206786078Y-86710880D01*
X206786038Y-86756367D01*
X206928083Y-87100143D01*
X207190873Y-87363392D01*
X207534401Y-87506038D01*
X207906367Y-87506362D01*
X208250143Y-87364317D01*
X208513392Y-87101527D01*
X208656038Y-86757999D01*
X208656362Y-86386033D01*
X208514317Y-86042257D01*
X208251527Y-85779008D01*
X207907999Y-85636362D01*
X207861123Y-85636321D01*
X199504183Y-77279381D01*
X199516757Y-77249100D01*
X199517060Y-76901862D01*
X205914478Y-83299280D01*
X205914438Y-83344767D01*
X206056483Y-83688543D01*
X206319273Y-83951792D01*
X206662801Y-84094438D01*
X207034767Y-84094762D01*
X207378543Y-83952717D01*
X207641792Y-83689927D01*
X207784438Y-83346399D01*
X207784762Y-82974433D01*
X207642717Y-82630657D01*
X207379927Y-82367408D01*
X207036399Y-82224762D01*
X206989523Y-82224721D01*
X199504183Y-74739381D01*
X199516757Y-74709100D01*
X199517242Y-74153339D01*
X199305010Y-73639697D01*
X198912370Y-73246371D01*
X198399100Y-73033243D01*
X197843339Y-73032758D01*
X197329697Y-73244990D01*
X196936371Y-73637630D01*
X196723243Y-74150900D01*
X196722758Y-74706661D01*
X196934990Y-75220303D01*
X197327630Y-75613629D01*
X197535512Y-75699949D01*
X197329697Y-75784990D01*
X196936371Y-76177630D01*
X196723243Y-76690900D01*
X196723021Y-76945587D01*
X192853717Y-73076283D01*
X192585906Y-72897337D01*
X192270000Y-72834500D01*
X171450000Y-72834500D01*
X171134095Y-72897337D01*
X170866283Y-73076283D01*
X170866281Y-73076286D01*
X169139367Y-74803200D01*
X168633339Y-74802758D01*
X168119697Y-75014990D01*
X167726371Y-75407630D01*
X167513243Y-75920900D01*
X167512758Y-76476661D01*
X165289061Y-76476661D01*
X165344093Y-76200000D01*
X165231054Y-75631715D01*
X164909147Y-75149946D01*
X164427378Y-74828039D01*
X163859093Y-74715000D01*
X163800907Y-74715000D01*
X163232622Y-74828039D01*
X162750853Y-75149946D01*
X162428946Y-75631715D01*
X162315907Y-76200000D01*
X158190000Y-76200000D01*
X158190000Y-71830000D01*
X210185000Y-71830000D01*
X210185000Y-106553000D01*
X210185000Y-106553000D01*
G37*
X210185000Y-106553000D02*
X199724904Y-106553000D01*
X205287819Y-100990085D01*
X205333306Y-100990125D01*
X205677082Y-100848080D01*
X205940331Y-100585290D01*
X206082977Y-100241762D01*
X206083301Y-99869796D01*
X205941256Y-99526020D01*
X205678466Y-99262771D01*
X205334938Y-99120125D01*
X204962972Y-99119801D01*
X204619196Y-99261846D01*
X204355947Y-99524636D01*
X204213301Y-99868164D01*
X204213260Y-99915040D01*
X197575300Y-106553000D01*
X188468000Y-106553000D01*
X188418590Y-106563006D01*
X188376965Y-106591447D01*
X188349685Y-106633841D01*
X188341000Y-106680000D01*
X188341000Y-108460000D01*
X187887531Y-108460000D01*
X187875010Y-108429697D01*
X187482370Y-108036371D01*
X187290273Y-107956605D01*
X187421143Y-107902397D01*
X187490608Y-107660213D01*
X186690000Y-106859605D01*
X186675858Y-106873748D01*
X186496253Y-106694143D01*
X186510395Y-106680000D01*
X186869605Y-106680000D01*
X187670213Y-107480608D01*
X187912397Y-107411143D01*
X188099144Y-106887698D01*
X188071362Y-106332632D01*
X187912397Y-105948857D01*
X187670213Y-105879392D01*
X186869605Y-106680000D01*
X186510395Y-106680000D01*
X186496253Y-106665858D01*
X186675858Y-106486253D01*
X186690000Y-106500395D01*
X187490608Y-105699787D01*
X187421143Y-105457603D01*
X186897698Y-105270856D01*
X186342632Y-105298638D01*
X186027600Y-105429129D01*
X186027600Y-105196917D01*
X193652385Y-97572132D01*
X193697872Y-97572172D01*
X194041648Y-97430127D01*
X194304897Y-97167337D01*
X194447543Y-96823809D01*
X194447867Y-96451843D01*
X194305822Y-96108067D01*
X194043032Y-95844818D01*
X193699504Y-95702172D01*
X193327538Y-95701848D01*
X192983762Y-95843893D01*
X192720513Y-96106683D01*
X192577867Y-96450211D01*
X192577826Y-96497087D01*
X191350458Y-97724455D01*
X191284327Y-97658208D01*
X190940799Y-97515562D01*
X190568833Y-97515238D01*
X190225057Y-97657283D01*
X189961808Y-97920073D01*
X189819162Y-98263601D01*
X189819121Y-98310477D01*
X184222199Y-103907399D01*
X184057452Y-104153961D01*
X183999600Y-104444800D01*
X183999600Y-125069600D01*
X184057452Y-125360439D01*
X184222199Y-125607001D01*
X185305817Y-126690619D01*
X185293243Y-126720900D01*
X185292758Y-127276661D01*
X185504990Y-127790303D01*
X185897630Y-128183629D01*
X186410900Y-128396757D01*
X186966661Y-128397242D01*
X187480303Y-128185010D01*
X187873629Y-127792370D01*
X188086757Y-127279100D01*
X188087242Y-126723339D01*
X187875010Y-126209697D01*
X187482370Y-125816371D01*
X187274488Y-125730051D01*
X187480303Y-125645010D01*
X187873629Y-125252370D01*
X188086757Y-124739100D01*
X188087242Y-124183339D01*
X187875010Y-123669697D01*
X187482370Y-123276371D01*
X187290273Y-123196605D01*
X187421143Y-123142397D01*
X187490608Y-122900213D01*
X186690000Y-122099605D01*
X185889392Y-122900213D01*
X185958857Y-123142397D01*
X186099318Y-123192509D01*
X185899697Y-123274990D01*
X185519600Y-123654424D01*
X185519600Y-122666057D01*
X185709787Y-122720608D01*
X186510395Y-121920000D01*
X186869605Y-121920000D01*
X187670213Y-122720608D01*
X187912397Y-122651143D01*
X188099144Y-122127698D01*
X188071362Y-121572632D01*
X187912397Y-121188857D01*
X187670213Y-121119392D01*
X186869605Y-121920000D01*
X186510395Y-121920000D01*
X185709787Y-121119392D01*
X185519600Y-121173943D01*
X185519600Y-120939787D01*
X185889392Y-120939787D01*
X186690000Y-121740395D01*
X187490608Y-120939787D01*
X187421143Y-120697603D01*
X186897698Y-120510856D01*
X186342632Y-120538638D01*
X185958857Y-120697603D01*
X185889392Y-120939787D01*
X185519600Y-120939787D01*
X185519600Y-112564939D01*
X185897630Y-112943629D01*
X186410900Y-113156757D01*
X186966661Y-113157242D01*
X187480303Y-112945010D01*
X187873629Y-112552370D01*
X188086757Y-112039100D01*
X188087242Y-111483339D01*
X187875010Y-110969697D01*
X187482370Y-110576371D01*
X187274488Y-110490051D01*
X187480303Y-110405010D01*
X187873629Y-110012370D01*
X187887070Y-109980000D01*
X188341000Y-109980000D01*
X188341000Y-130937000D01*
X158190000Y-130937000D01*
X158190000Y-121920000D01*
X162315907Y-121920000D01*
X162428946Y-122488285D01*
X162750853Y-122970054D01*
X163080026Y-123190000D01*
X162750853Y-123409946D01*
X162428946Y-123891715D01*
X162315907Y-124460000D01*
X162428946Y-125028285D01*
X162750853Y-125510054D01*
X162792452Y-125537850D01*
X162744683Y-125546838D01*
X162528559Y-125685910D01*
X162383569Y-125898110D01*
X162332560Y-126150000D01*
X162332560Y-127850000D01*
X162376838Y-128085317D01*
X162515910Y-128301441D01*
X162728110Y-128446431D01*
X162980000Y-128497440D01*
X164680000Y-128497440D01*
X164915317Y-128453162D01*
X165131441Y-128314090D01*
X165276431Y-128101890D01*
X165327440Y-127850000D01*
X165327440Y-126150000D01*
X165283162Y-125914683D01*
X165144090Y-125698559D01*
X164931890Y-125553569D01*
X164864459Y-125539914D01*
X164909147Y-125510054D01*
X165231054Y-125028285D01*
X165344093Y-124460000D01*
X165231054Y-123891715D01*
X164909147Y-123409946D01*
X164579974Y-123190000D01*
X164909147Y-122970054D01*
X165231054Y-122488285D01*
X165344093Y-121920000D01*
X165231054Y-121351715D01*
X164909147Y-120869946D01*
X164427378Y-120548039D01*
X163859093Y-120435000D01*
X163800907Y-120435000D01*
X163232622Y-120548039D01*
X162750853Y-120869946D01*
X162428946Y-121351715D01*
X162315907Y-121920000D01*
X158190000Y-121920000D01*
X158190000Y-106680000D01*
X162315907Y-106680000D01*
X162428946Y-107248285D01*
X162750853Y-107730054D01*
X163080026Y-107950000D01*
X162750853Y-108169946D01*
X162428946Y-108651715D01*
X162315907Y-109220000D01*
X162428946Y-109788285D01*
X162750853Y-110270054D01*
X162792452Y-110297850D01*
X162744683Y-110306838D01*
X162528559Y-110445910D01*
X162383569Y-110658110D01*
X162332560Y-110910000D01*
X162332560Y-112610000D01*
X162376838Y-112845317D01*
X162515910Y-113061441D01*
X162728110Y-113206431D01*
X162980000Y-113257440D01*
X164680000Y-113257440D01*
X164915317Y-113213162D01*
X165131441Y-113074090D01*
X165276431Y-112861890D01*
X165327440Y-112610000D01*
X165327440Y-110910000D01*
X165283162Y-110674683D01*
X165144090Y-110458559D01*
X164931890Y-110313569D01*
X164864459Y-110299914D01*
X164909147Y-110270054D01*
X165231054Y-109788285D01*
X165344093Y-109220000D01*
X165231054Y-108651715D01*
X164909147Y-108169946D01*
X164579974Y-107950000D01*
X164909147Y-107730054D01*
X165231054Y-107248285D01*
X165344093Y-106680000D01*
X165231054Y-106111715D01*
X164909147Y-105629946D01*
X164427378Y-105308039D01*
X163859093Y-105195000D01*
X163800907Y-105195000D01*
X163232622Y-105308039D01*
X162750853Y-105629946D01*
X162428946Y-106111715D01*
X162315907Y-106680000D01*
X158190000Y-106680000D01*
X158190000Y-91440000D01*
X162315907Y-91440000D01*
X162428946Y-92008285D01*
X162750853Y-92490054D01*
X163080026Y-92710000D01*
X162750853Y-92929946D01*
X162428946Y-93411715D01*
X162315907Y-93980000D01*
X162428946Y-94548285D01*
X162750853Y-95030054D01*
X162792452Y-95057850D01*
X162744683Y-95066838D01*
X162528559Y-95205910D01*
X162383569Y-95418110D01*
X162332560Y-95670000D01*
X162332560Y-97370000D01*
X162376838Y-97605317D01*
X162515910Y-97821441D01*
X162728110Y-97966431D01*
X162980000Y-98017440D01*
X164680000Y-98017440D01*
X164915317Y-97973162D01*
X165131441Y-97834090D01*
X165276431Y-97621890D01*
X165327440Y-97370000D01*
X165327440Y-95670000D01*
X165283162Y-95434683D01*
X165144090Y-95218559D01*
X164931890Y-95073569D01*
X164864459Y-95059914D01*
X164909147Y-95030054D01*
X165231054Y-94548285D01*
X165344093Y-93980000D01*
X165231054Y-93411715D01*
X164909147Y-92929946D01*
X164579974Y-92710000D01*
X164909147Y-92490054D01*
X165231054Y-92008285D01*
X165344093Y-91440000D01*
X165231054Y-90871715D01*
X164909147Y-90389946D01*
X164427378Y-90068039D01*
X163859093Y-89955000D01*
X163800907Y-89955000D01*
X163232622Y-90068039D01*
X162750853Y-90389946D01*
X162428946Y-90871715D01*
X162315907Y-91440000D01*
X158190000Y-91440000D01*
X158190000Y-76200000D01*
X162315907Y-76200000D01*
X162428946Y-76768285D01*
X162750853Y-77250054D01*
X163080026Y-77470000D01*
X162750853Y-77689946D01*
X162428946Y-78171715D01*
X162315907Y-78740000D01*
X162428946Y-79308285D01*
X162750853Y-79790054D01*
X162792452Y-79817850D01*
X162744683Y-79826838D01*
X162528559Y-79965910D01*
X162383569Y-80178110D01*
X162332560Y-80430000D01*
X162332560Y-82130000D01*
X162376838Y-82365317D01*
X162515910Y-82581441D01*
X162728110Y-82726431D01*
X162980000Y-82777440D01*
X164680000Y-82777440D01*
X164915317Y-82733162D01*
X165131441Y-82594090D01*
X165276431Y-82381890D01*
X165327440Y-82130000D01*
X165327440Y-80430000D01*
X165283162Y-80194683D01*
X165144090Y-79978559D01*
X164931890Y-79833569D01*
X164864459Y-79819914D01*
X164909147Y-79790054D01*
X165231054Y-79308285D01*
X165344093Y-78740000D01*
X165231054Y-78171715D01*
X164909147Y-77689946D01*
X164579974Y-77470000D01*
X164909147Y-77250054D01*
X165231054Y-76768285D01*
X165289061Y-76476661D01*
X167512758Y-76476661D01*
X167724990Y-76990303D01*
X168117630Y-77383629D01*
X168325512Y-77469949D01*
X168119697Y-77554990D01*
X167726371Y-77947630D01*
X167513243Y-78460900D01*
X167512758Y-79016661D01*
X167724990Y-79530303D01*
X168117630Y-79923629D01*
X168325512Y-80009949D01*
X168119697Y-80094990D01*
X167726371Y-80487630D01*
X167513243Y-81000900D01*
X167512758Y-81556661D01*
X167724990Y-82070303D01*
X168117630Y-82463629D01*
X168630900Y-82676757D01*
X169186661Y-82677242D01*
X169700303Y-82465010D01*
X170093629Y-82072370D01*
X170306757Y-81559100D01*
X170307242Y-81003339D01*
X170095010Y-80489697D01*
X169702370Y-80096371D01*
X169494488Y-80010051D01*
X169700303Y-79925010D01*
X170093629Y-79532370D01*
X170306757Y-79019100D01*
X170306979Y-78764412D01*
X170624500Y-79081933D01*
X170624500Y-88558067D01*
X169139367Y-90043200D01*
X168633339Y-90042758D01*
X168119697Y-90254990D01*
X167726371Y-90647630D01*
X167513243Y-91160900D01*
X167512758Y-91716661D01*
X167724990Y-92230303D01*
X168117630Y-92623629D01*
X168325512Y-92709949D01*
X168119697Y-92794990D01*
X167726371Y-93187630D01*
X167513243Y-93700900D01*
X167512758Y-94256661D01*
X167724990Y-94770303D01*
X168117630Y-95163629D01*
X168325512Y-95249949D01*
X168119697Y-95334990D01*
X167726371Y-95727630D01*
X167513243Y-96240900D01*
X167512758Y-96796661D01*
X167724990Y-97310303D01*
X168117630Y-97703629D01*
X168630900Y-97916757D01*
X169186661Y-97917242D01*
X169700303Y-97705010D01*
X170093629Y-97312370D01*
X170306757Y-96799100D01*
X170307242Y-96243339D01*
X170095010Y-95729697D01*
X169702370Y-95336371D01*
X169494488Y-95250051D01*
X169700303Y-95165010D01*
X170093629Y-94772370D01*
X170306757Y-94259100D01*
X170307242Y-93703339D01*
X170095010Y-93189697D01*
X169702370Y-92796371D01*
X169494488Y-92710051D01*
X169700303Y-92625010D01*
X170093629Y-92232370D01*
X170306757Y-91719100D01*
X170307201Y-91210233D01*
X170624500Y-90892934D01*
X170624500Y-103798067D01*
X169139367Y-105283200D01*
X168633339Y-105282758D01*
X168119697Y-105494990D01*
X167726371Y-105887630D01*
X167513243Y-106400900D01*
X167512758Y-106956661D01*
X167724990Y-107470303D01*
X168117630Y-107863629D01*
X168325512Y-107949949D01*
X168119697Y-108034990D01*
X167726371Y-108427630D01*
X167513243Y-108940900D01*
X167512758Y-109496661D01*
X167724990Y-110010303D01*
X168117630Y-110403629D01*
X168325512Y-110489949D01*
X168119697Y-110574990D01*
X167726371Y-110967630D01*
X167513243Y-111480900D01*
X167512758Y-112036661D01*
X167724990Y-112550303D01*
X168117630Y-112943629D01*
X168630900Y-113156757D01*
X169186661Y-113157242D01*
X169700303Y-112945010D01*
X170093629Y-112552370D01*
X170306757Y-112039100D01*
X170307242Y-111483339D01*
X170095010Y-110969697D01*
X169702370Y-110576371D01*
X169494488Y-110490051D01*
X169700303Y-110405010D01*
X170093629Y-110012370D01*
X170306757Y-109499100D01*
X170307242Y-108943339D01*
X170095010Y-108429697D01*
X169702370Y-108036371D01*
X169494488Y-107950051D01*
X169700303Y-107865010D01*
X170093629Y-107472370D01*
X170306757Y-106959100D01*
X170307201Y-106450233D01*
X170624500Y-106132934D01*
X170624500Y-119038067D01*
X169139367Y-120523200D01*
X168633339Y-120522758D01*
X168119697Y-120734990D01*
X167726371Y-121127630D01*
X167513243Y-121640900D01*
X167512758Y-122196661D01*
X167724990Y-122710303D01*
X168117630Y-123103629D01*
X168325512Y-123189949D01*
X168119697Y-123274990D01*
X167726371Y-123667630D01*
X167513243Y-124180900D01*
X167512758Y-124736661D01*
X167724990Y-125250303D01*
X168117630Y-125643629D01*
X168325512Y-125729949D01*
X168119697Y-125814990D01*
X167726371Y-126207630D01*
X167513243Y-126720900D01*
X167512758Y-127276661D01*
X167724990Y-127790303D01*
X168117630Y-128183629D01*
X168630900Y-128396757D01*
X169186661Y-128397242D01*
X169700303Y-128185010D01*
X170093629Y-127792370D01*
X170306757Y-127279100D01*
X170307242Y-126723339D01*
X170095010Y-126209697D01*
X169702370Y-125816371D01*
X169494488Y-125730051D01*
X169700303Y-125645010D01*
X170093629Y-125252370D01*
X170306757Y-124739100D01*
X170307242Y-124183339D01*
X170095010Y-123669697D01*
X169702370Y-123276371D01*
X169494488Y-123190051D01*
X169700303Y-123105010D01*
X170093629Y-122712370D01*
X170306757Y-122199100D01*
X170307201Y-121690233D01*
X172033714Y-119963719D01*
X172033717Y-119963717D01*
X172212663Y-119695905D01*
X172275500Y-119380000D01*
X172275500Y-91232302D01*
X185280856Y-91232302D01*
X185308638Y-91787368D01*
X185467603Y-92171143D01*
X185709787Y-92240608D01*
X186510395Y-91440000D01*
X186869605Y-91440000D01*
X187670213Y-92240608D01*
X187912397Y-92171143D01*
X188099144Y-91647698D01*
X188071362Y-91092632D01*
X187912397Y-90708857D01*
X187670213Y-90639392D01*
X186869605Y-91440000D01*
X186510395Y-91440000D01*
X185709787Y-90639392D01*
X185467603Y-90708857D01*
X185280856Y-91232302D01*
X172275500Y-91232302D01*
X172275500Y-90459787D01*
X185889392Y-90459787D01*
X186690000Y-91260395D01*
X187490608Y-90459787D01*
X187421143Y-90217603D01*
X186897698Y-90030856D01*
X186342632Y-90058638D01*
X185958857Y-90217603D01*
X185889392Y-90459787D01*
X172275500Y-90459787D01*
X172275500Y-78740000D01*
X172212663Y-78424095D01*
X172033717Y-78156283D01*
X172033714Y-78156281D01*
X170306800Y-76429367D01*
X170307181Y-75992302D01*
X185280856Y-75992302D01*
X185308638Y-76547368D01*
X185467603Y-76931143D01*
X185709787Y-77000608D01*
X186510395Y-76200000D01*
X186869605Y-76200000D01*
X187670213Y-77000608D01*
X187912397Y-76931143D01*
X188099144Y-76407698D01*
X188071362Y-75852632D01*
X187912397Y-75468857D01*
X187670213Y-75399392D01*
X186869605Y-76200000D01*
X186510395Y-76200000D01*
X185709787Y-75399392D01*
X185467603Y-75468857D01*
X185280856Y-75992302D01*
X170307181Y-75992302D01*
X170307201Y-75970233D01*
X171057646Y-75219787D01*
X185889392Y-75219787D01*
X186690000Y-76020395D01*
X187490608Y-75219787D01*
X187421143Y-74977603D01*
X186897698Y-74790856D01*
X186342632Y-74818638D01*
X185958857Y-74977603D01*
X185889392Y-75219787D01*
X171057646Y-75219787D01*
X171791933Y-74485500D01*
X191928066Y-74485500D01*
X196723200Y-79280633D01*
X196722758Y-79786661D01*
X196934990Y-80300303D01*
X197327630Y-80693629D01*
X197840900Y-80906757D01*
X198349767Y-80907201D01*
X201307700Y-83865134D01*
X201307700Y-92404066D01*
X201198362Y-92667380D01*
X201198317Y-92719189D01*
X200016791Y-92719189D01*
X198364816Y-91067214D01*
X198396661Y-91067242D01*
X198910303Y-90855010D01*
X199303629Y-90462370D01*
X199516757Y-89949100D01*
X199517242Y-89393339D01*
X199305010Y-88879697D01*
X198912370Y-88486371D01*
X198704488Y-88400051D01*
X198910303Y-88315010D01*
X199303629Y-87922370D01*
X199516757Y-87409100D01*
X199517242Y-86853339D01*
X199305010Y-86339697D01*
X198912370Y-85946371D01*
X198720273Y-85866605D01*
X198851143Y-85812397D01*
X198920608Y-85570213D01*
X198120000Y-84769605D01*
X197319392Y-85570213D01*
X197388857Y-85812397D01*
X197529318Y-85862509D01*
X197329697Y-85944990D01*
X196936371Y-86337630D01*
X196723243Y-86850900D01*
X196722758Y-87406661D01*
X196934990Y-87920303D01*
X197327630Y-88313629D01*
X197535512Y-88399949D01*
X197329697Y-88484990D01*
X196936371Y-88877630D01*
X196723243Y-89390900D01*
X196723213Y-89425611D01*
X193444400Y-86146798D01*
X193444400Y-84734400D01*
X193386548Y-84443561D01*
X193345617Y-84382302D01*
X196710856Y-84382302D01*
X196738638Y-84937368D01*
X196897603Y-85321143D01*
X197139787Y-85390608D01*
X197940395Y-84590000D01*
X198299605Y-84590000D01*
X199100213Y-85390608D01*
X199342397Y-85321143D01*
X199529144Y-84797698D01*
X199501362Y-84242632D01*
X199342397Y-83858857D01*
X199100213Y-83789392D01*
X198299605Y-84590000D01*
X197940395Y-84590000D01*
X197139787Y-83789392D01*
X196897603Y-83858857D01*
X196710856Y-84382302D01*
X193345617Y-84382302D01*
X193221801Y-84196999D01*
X192634589Y-83609787D01*
X197319392Y-83609787D01*
X198120000Y-84410395D01*
X198920608Y-83609787D01*
X198851143Y-83367603D01*
X198327698Y-83180856D01*
X197772632Y-83208638D01*
X197388857Y-83367603D01*
X197319392Y-83609787D01*
X192634589Y-83609787D01*
X188074183Y-79049381D01*
X188086757Y-79019100D01*
X188087242Y-78463339D01*
X187875010Y-77949697D01*
X187482370Y-77556371D01*
X187290273Y-77476605D01*
X187421143Y-77422397D01*
X187490608Y-77180213D01*
X186690000Y-76379605D01*
X185889392Y-77180213D01*
X185958857Y-77422397D01*
X186099318Y-77472509D01*
X185899697Y-77554990D01*
X185506371Y-77947630D01*
X185293243Y-78460900D01*
X185292758Y-79016661D01*
X185504990Y-79530303D01*
X185897630Y-79923629D01*
X186105512Y-80009949D01*
X185899697Y-80094990D01*
X185506371Y-80487630D01*
X185293243Y-81000900D01*
X185292758Y-81556661D01*
X185504990Y-82070303D01*
X185897630Y-82463629D01*
X186410900Y-82676757D01*
X186966661Y-82677242D01*
X187480303Y-82465010D01*
X187873629Y-82072370D01*
X188086757Y-81559100D01*
X188087060Y-81211862D01*
X191924400Y-85049202D01*
X191924400Y-86461600D01*
X191982252Y-86752439D01*
X192146999Y-86999001D01*
X198367998Y-93220000D01*
X187887531Y-93220000D01*
X187875010Y-93189697D01*
X187482370Y-92796371D01*
X187290273Y-92716605D01*
X187421143Y-92662397D01*
X187490608Y-92420213D01*
X186690000Y-91619605D01*
X185889392Y-92420213D01*
X185958857Y-92662397D01*
X186099318Y-92712509D01*
X185899697Y-92794990D01*
X185506371Y-93187630D01*
X185293243Y-93700900D01*
X185292758Y-94256661D01*
X185504990Y-94770303D01*
X185897630Y-95163629D01*
X186105512Y-95249949D01*
X185899697Y-95334990D01*
X185506371Y-95727630D01*
X185293243Y-96240900D01*
X185292758Y-96796661D01*
X185504990Y-97310303D01*
X185897630Y-97703629D01*
X186410900Y-97916757D01*
X186966661Y-97917242D01*
X187480303Y-97705010D01*
X187873629Y-97312370D01*
X188086757Y-96799100D01*
X188087242Y-96243339D01*
X187875010Y-95729697D01*
X187482370Y-95336371D01*
X187274488Y-95250051D01*
X187480303Y-95165010D01*
X187873629Y-94772370D01*
X187887070Y-94740000D01*
X202783598Y-94740000D01*
X204195278Y-96151680D01*
X204195238Y-96197167D01*
X204337283Y-96540943D01*
X204600073Y-96804192D01*
X204943601Y-96946838D01*
X205315567Y-96947162D01*
X205659343Y-96805117D01*
X205922592Y-96542327D01*
X206065238Y-96198799D01*
X206065562Y-95826833D01*
X205923517Y-95483057D01*
X205660727Y-95219808D01*
X205317199Y-95077162D01*
X205270323Y-95077121D01*
X204432391Y-94239189D01*
X205029803Y-94239189D01*
X205099283Y-94407343D01*
X205362073Y-94670592D01*
X205705601Y-94813238D01*
X206077567Y-94813562D01*
X206421343Y-94671517D01*
X206684592Y-94408727D01*
X206827238Y-94065199D01*
X206827562Y-93693233D01*
X206685517Y-93349457D01*
X206422727Y-93086208D01*
X206079199Y-92943562D01*
X206032323Y-92943521D01*
X206030590Y-92941788D01*
X205784028Y-92777041D01*
X205493189Y-92719189D01*
X203068318Y-92719189D01*
X203068362Y-92669012D01*
X202958700Y-92403609D01*
X202958700Y-83523205D01*
X202958701Y-83523200D01*
X202895863Y-83207294D01*
X202716917Y-82939483D01*
X199516800Y-79739366D01*
X199517060Y-79441862D01*
X206786078Y-86710880D01*
X206786038Y-86756367D01*
X206928083Y-87100143D01*
X207190873Y-87363392D01*
X207534401Y-87506038D01*
X207906367Y-87506362D01*
X208250143Y-87364317D01*
X208513392Y-87101527D01*
X208656038Y-86757999D01*
X208656362Y-86386033D01*
X208514317Y-86042257D01*
X208251527Y-85779008D01*
X207907999Y-85636362D01*
X207861123Y-85636321D01*
X199504183Y-77279381D01*
X199516757Y-77249100D01*
X199517060Y-76901862D01*
X205914478Y-83299280D01*
X205914438Y-83344767D01*
X206056483Y-83688543D01*
X206319273Y-83951792D01*
X206662801Y-84094438D01*
X207034767Y-84094762D01*
X207378543Y-83952717D01*
X207641792Y-83689927D01*
X207784438Y-83346399D01*
X207784762Y-82974433D01*
X207642717Y-82630657D01*
X207379927Y-82367408D01*
X207036399Y-82224762D01*
X206989523Y-82224721D01*
X199504183Y-74739381D01*
X199516757Y-74709100D01*
X199517242Y-74153339D01*
X199305010Y-73639697D01*
X198912370Y-73246371D01*
X198399100Y-73033243D01*
X197843339Y-73032758D01*
X197329697Y-73244990D01*
X196936371Y-73637630D01*
X196723243Y-74150900D01*
X196722758Y-74706661D01*
X196934990Y-75220303D01*
X197327630Y-75613629D01*
X197535512Y-75699949D01*
X197329697Y-75784990D01*
X196936371Y-76177630D01*
X196723243Y-76690900D01*
X196723021Y-76945587D01*
X192853717Y-73076283D01*
X192585906Y-72897337D01*
X192270000Y-72834500D01*
X171450000Y-72834500D01*
X171134095Y-72897337D01*
X170866283Y-73076283D01*
X170866281Y-73076286D01*
X169139367Y-74803200D01*
X168633339Y-74802758D01*
X168119697Y-75014990D01*
X167726371Y-75407630D01*
X167513243Y-75920900D01*
X167512758Y-76476661D01*
X165289061Y-76476661D01*
X165344093Y-76200000D01*
X165231054Y-75631715D01*
X164909147Y-75149946D01*
X164427378Y-74828039D01*
X163859093Y-74715000D01*
X163800907Y-74715000D01*
X163232622Y-74828039D01*
X162750853Y-75149946D01*
X162428946Y-75631715D01*
X162315907Y-76200000D01*
X158190000Y-76200000D01*
X158190000Y-71830000D01*
X210185000Y-71830000D01*
X210185000Y-106553000D01*
G36*
X253290000Y-129059566D02*
X240740717Y-116510283D01*
X240472906Y-116331337D01*
X240161478Y-116269391D01*
X240004415Y-116034330D01*
X239518234Y-115709474D01*
X238944745Y-115595400D01*
X238575255Y-115595400D01*
X238001766Y-115709474D01*
X237515585Y-116034330D01*
X237490000Y-116072621D01*
X237464415Y-116034330D01*
X236978234Y-115709474D01*
X236404745Y-115595400D01*
X236035255Y-115595400D01*
X235461766Y-115709474D01*
X234975585Y-116034330D01*
X234650729Y-116520511D01*
X234536655Y-117094000D01*
X234650729Y-117667489D01*
X234975585Y-118153670D01*
X235461766Y-118478526D01*
X236035255Y-118592600D01*
X236404745Y-118592600D01*
X236653988Y-118543022D01*
X251040900Y-132929934D01*
X251040900Y-139675760D01*
X251016400Y-139675760D01*
X250781083Y-139720038D01*
X250564959Y-139859110D01*
X250419969Y-140071310D01*
X250368960Y-140323200D01*
X250368960Y-142023200D01*
X250413238Y-142258517D01*
X250552310Y-142474641D01*
X250764510Y-142619631D01*
X250831941Y-142633286D01*
X250787253Y-142663146D01*
X250465346Y-143144915D01*
X250352307Y-143713200D01*
X250465346Y-144281485D01*
X250787253Y-144763254D01*
X251269022Y-145085161D01*
X251837307Y-145198200D01*
X251895493Y-145198200D01*
X252463778Y-145085161D01*
X252945547Y-144763254D01*
X253267454Y-144281485D01*
X253290000Y-144168139D01*
X253290000Y-147169861D01*
X253267454Y-147056515D01*
X252945547Y-146574746D01*
X252463778Y-146252839D01*
X251895493Y-146139800D01*
X251837307Y-146139800D01*
X251269022Y-146252839D01*
X250787253Y-146574746D01*
X250637211Y-146799300D01*
X238746333Y-146799300D01*
X236969594Y-145022560D01*
X236860717Y-144759057D01*
X236597927Y-144495808D01*
X236254399Y-144353162D01*
X235882433Y-144352838D01*
X235538657Y-144494883D01*
X235275408Y-144757673D01*
X235218500Y-144894722D01*
X235023127Y-144699008D01*
X234679599Y-144556362D01*
X234307633Y-144556038D01*
X233963857Y-144698083D01*
X233700608Y-144960873D01*
X233557962Y-145304401D01*
X233557638Y-145676367D01*
X233699683Y-146020143D01*
X233962473Y-146283392D01*
X234227684Y-146393518D01*
X238582681Y-150748514D01*
X238582683Y-150748517D01*
X238850495Y-150927463D01*
X239166400Y-150990301D01*
X239166405Y-150990300D01*
X250368960Y-150990300D01*
X250368960Y-151014800D01*
X250413238Y-151250117D01*
X250552310Y-151466241D01*
X250764510Y-151611231D01*
X251016400Y-151662240D01*
X252716400Y-151662240D01*
X252951717Y-151617962D01*
X253167841Y-151478890D01*
X253290000Y-151300104D01*
X253290000Y-151690000D01*
X158190000Y-151690000D01*
X158190000Y-147481600D01*
X173949160Y-147481600D01*
X173949160Y-148981600D01*
X173993438Y-149216917D01*
X174132510Y-149433041D01*
X174344710Y-149578031D01*
X174596600Y-149629040D01*
X177996600Y-149629040D01*
X178231917Y-149584762D01*
X178448041Y-149445690D01*
X178593031Y-149233490D01*
X178644040Y-148981600D01*
X178644040Y-147481600D01*
X178599762Y-147246283D01*
X178460690Y-147030159D01*
X178248490Y-146885169D01*
X177996600Y-146834160D01*
X174596600Y-146834160D01*
X174361283Y-146878438D01*
X174145159Y-147017510D01*
X174000169Y-147229710D01*
X173949160Y-147481600D01*
X158190000Y-147481600D01*
X158190000Y-137160000D01*
X162315907Y-137160000D01*
X162428946Y-137728285D01*
X162750853Y-138210054D01*
X163080026Y-138430000D01*
X162750853Y-138649946D01*
X162428946Y-139131715D01*
X162315907Y-139700000D01*
X162428946Y-140268285D01*
X162750853Y-140750054D01*
X162792452Y-140777850D01*
X162744683Y-140786838D01*
X162528559Y-140925910D01*
X162383569Y-141138110D01*
X162332560Y-141390000D01*
X162332560Y-143090000D01*
X162376838Y-143325317D01*
X162515910Y-143541441D01*
X162728110Y-143686431D01*
X162980000Y-143737440D01*
X164680000Y-143737440D01*
X164915317Y-143693162D01*
X165131441Y-143554090D01*
X165276431Y-143341890D01*
X165327440Y-143090000D01*
X165327440Y-141390000D01*
X165283162Y-141154683D01*
X165144090Y-140938559D01*
X164931890Y-140793569D01*
X164864459Y-140779914D01*
X164909147Y-140750054D01*
X165231054Y-140268285D01*
X165344093Y-139700000D01*
X165231054Y-139131715D01*
X164909147Y-138649946D01*
X164579974Y-138430000D01*
X164909147Y-138210054D01*
X165231054Y-137728285D01*
X165289061Y-137436661D01*
X167512758Y-137436661D01*
X167724990Y-137950303D01*
X168117630Y-138343629D01*
X168325512Y-138429949D01*
X168119697Y-138514990D01*
X167726371Y-138907630D01*
X167513243Y-139420900D01*
X167512758Y-139976661D01*
X167724990Y-140490303D01*
X168117630Y-140883629D01*
X168325512Y-140969949D01*
X168119697Y-141054990D01*
X167726371Y-141447630D01*
X167513243Y-141960900D01*
X167512758Y-142516661D01*
X167724990Y-143030303D01*
X168117630Y-143423629D01*
X168630900Y-143636757D01*
X169186661Y-143637242D01*
X169700303Y-143425010D01*
X170093629Y-143032370D01*
X170306757Y-142519100D01*
X170307242Y-141963339D01*
X170095010Y-141449697D01*
X169702370Y-141056371D01*
X169494488Y-140970051D01*
X169700303Y-140885010D01*
X169803893Y-140781600D01*
X173949160Y-140781600D01*
X173949160Y-142281600D01*
X173993438Y-142516917D01*
X174132510Y-142733041D01*
X174344710Y-142878031D01*
X174596600Y-142929040D01*
X177996600Y-142929040D01*
X178231917Y-142884762D01*
X178448041Y-142745690D01*
X178593031Y-142533490D01*
X178644040Y-142281600D01*
X178644040Y-140781600D01*
X178599762Y-140546283D01*
X178460690Y-140330159D01*
X178248490Y-140185169D01*
X177996600Y-140134160D01*
X174596600Y-140134160D01*
X174361283Y-140178438D01*
X174145159Y-140317510D01*
X174000169Y-140529710D01*
X173949160Y-140781600D01*
X169803893Y-140781600D01*
X170093629Y-140492370D01*
X170306757Y-139979100D01*
X170307242Y-139423339D01*
X170095010Y-138909697D01*
X169702370Y-138516371D01*
X169494488Y-138430051D01*
X169700303Y-138345010D01*
X170093629Y-137952370D01*
X170306757Y-137439100D01*
X170307181Y-136952302D01*
X185280856Y-136952302D01*
X185308638Y-137507368D01*
X185467603Y-137891143D01*
X185709787Y-137960608D01*
X186510395Y-137160000D01*
X186869605Y-137160000D01*
X187670213Y-137960608D01*
X187912397Y-137891143D01*
X188099144Y-137367698D01*
X188083492Y-137054974D01*
X206672642Y-137054974D01*
X206793783Y-137287000D01*
X208153000Y-137287000D01*
X208153000Y-136073076D01*
X208407000Y-136073076D01*
X208407000Y-137287000D01*
X209766217Y-137287000D01*
X209887358Y-137054974D01*
X209884709Y-137039209D01*
X209630732Y-136511964D01*
X209194320Y-136122046D01*
X208641913Y-135928816D01*
X208407000Y-136073076D01*
X208153000Y-136073076D01*
X207918087Y-135928816D01*
X207365680Y-136122046D01*
X206929268Y-136511964D01*
X206675291Y-137039209D01*
X206672642Y-137054974D01*
X188083492Y-137054974D01*
X188071362Y-136812632D01*
X187912397Y-136428857D01*
X187670213Y-136359392D01*
X186869605Y-137160000D01*
X186510395Y-137160000D01*
X185709787Y-136359392D01*
X185467603Y-136428857D01*
X185280856Y-136952302D01*
X170307181Y-136952302D01*
X170307201Y-136930233D01*
X171334734Y-135902700D01*
X186043120Y-135902700D01*
X185958857Y-135937603D01*
X185889392Y-136179787D01*
X186690000Y-136980395D01*
X187490608Y-136179787D01*
X187421143Y-135937603D01*
X187323311Y-135902700D01*
X188315600Y-135902700D01*
X188631506Y-135839863D01*
X188899317Y-135660917D01*
X189686233Y-134874000D01*
X211676655Y-134874000D01*
X211790729Y-135447489D01*
X212115585Y-135933670D01*
X212601766Y-136258526D01*
X213175255Y-136372600D01*
X213544745Y-136372600D01*
X214118234Y-136258526D01*
X214604415Y-135933670D01*
X214929271Y-135447489D01*
X215043345Y-134874000D01*
X214929271Y-134300511D01*
X214604415Y-133814330D01*
X214118234Y-133489474D01*
X213544745Y-133375400D01*
X213175255Y-133375400D01*
X212601766Y-133489474D01*
X212115585Y-133814330D01*
X211790729Y-134300511D01*
X211676655Y-134874000D01*
X189686233Y-134874000D01*
X194766233Y-129794000D01*
X211676655Y-129794000D01*
X211790729Y-130367489D01*
X212115585Y-130853670D01*
X212601766Y-131178526D01*
X213175255Y-131292600D01*
X213544745Y-131292600D01*
X214118234Y-131178526D01*
X214604415Y-130853670D01*
X214929271Y-130367489D01*
X215043345Y-129794000D01*
X214929271Y-129220511D01*
X214604415Y-128734330D01*
X214118234Y-128409474D01*
X213544745Y-128295400D01*
X213175255Y-128295400D01*
X212601766Y-128409474D01*
X212115585Y-128734330D01*
X211790729Y-129220511D01*
X211676655Y-129794000D01*
X194766233Y-129794000D01*
X196734733Y-127825500D01*
X220462560Y-127825500D01*
X220462560Y-127850000D01*
X220506838Y-128085317D01*
X220645910Y-128301441D01*
X220858110Y-128446431D01*
X220925541Y-128460086D01*
X220880853Y-128489946D01*
X220558946Y-128971715D01*
X220445907Y-129540000D01*
X220558946Y-130108285D01*
X220880853Y-130590054D01*
X221210026Y-130810000D01*
X220880853Y-131029946D01*
X220558946Y-131511715D01*
X220445907Y-132080000D01*
X220558946Y-132648285D01*
X220880853Y-133130054D01*
X221210026Y-133350000D01*
X220880853Y-133569946D01*
X220558946Y-134051715D01*
X220445907Y-134620000D01*
X220558946Y-135188285D01*
X220880853Y-135670054D01*
X221210026Y-135890000D01*
X220880853Y-136109946D01*
X220558946Y-136591715D01*
X220445907Y-137160000D01*
X220558946Y-137728285D01*
X220880853Y-138210054D01*
X221210026Y-138430000D01*
X220880853Y-138649946D01*
X220558946Y-139131715D01*
X220445907Y-139700000D01*
X220558946Y-140268285D01*
X220880853Y-140750054D01*
X221221553Y-140977702D01*
X221078642Y-141044817D01*
X220688355Y-141473076D01*
X220518524Y-141883110D01*
X220639845Y-142113000D01*
X221833000Y-142113000D01*
X221833000Y-142093000D01*
X222087000Y-142093000D01*
X222087000Y-142113000D01*
X223280155Y-142113000D01*
X223401476Y-141883110D01*
X223231645Y-141473076D01*
X222841358Y-141044817D01*
X222698447Y-140977702D01*
X223039147Y-140750054D01*
X223361054Y-140268285D01*
X223474093Y-139700000D01*
X223361054Y-139131715D01*
X223039147Y-138649946D01*
X222709974Y-138430000D01*
X223039147Y-138210054D01*
X223361054Y-137728285D01*
X223474093Y-137160000D01*
X223361054Y-136591715D01*
X223039147Y-136109946D01*
X222709974Y-135890000D01*
X223039147Y-135670054D01*
X223361054Y-135188285D01*
X223474093Y-134620000D01*
X223361054Y-134051715D01*
X223039147Y-133569946D01*
X222709974Y-133350000D01*
X223039147Y-133130054D01*
X223361054Y-132648285D01*
X223474093Y-132080000D01*
X223361054Y-131511715D01*
X223039147Y-131029946D01*
X222709974Y-130810000D01*
X223039147Y-130590054D01*
X223361054Y-130108285D01*
X223474093Y-129540000D01*
X223361054Y-128971715D01*
X223039147Y-128489946D01*
X222997548Y-128462150D01*
X223045317Y-128453162D01*
X223261441Y-128314090D01*
X223406431Y-128101890D01*
X223457440Y-127850000D01*
X223457440Y-126150000D01*
X223413162Y-125914683D01*
X223293035Y-125728000D01*
X225712262Y-125728000D01*
X230690969Y-130706707D01*
X230662362Y-130775601D01*
X230662038Y-131147567D01*
X230804083Y-131491343D01*
X231066873Y-131754592D01*
X231410401Y-131897238D01*
X231782367Y-131897562D01*
X232126143Y-131755517D01*
X232389392Y-131492727D01*
X232532038Y-131149199D01*
X232532362Y-130777233D01*
X232390317Y-130433457D01*
X232322955Y-130365978D01*
X232299348Y-130247297D01*
X232134601Y-130000735D01*
X227111856Y-124977990D01*
X234545588Y-124977990D01*
X235488078Y-125920480D01*
X235488038Y-125965967D01*
X235630083Y-126309743D01*
X235892873Y-126572992D01*
X236236401Y-126715638D01*
X236608367Y-126715962D01*
X236952143Y-126573917D01*
X237215392Y-126311127D01*
X237358038Y-125967599D01*
X237358362Y-125595633D01*
X237312263Y-125484065D01*
X238762000Y-126933802D01*
X238762000Y-135676798D01*
X226608798Y-147830000D01*
X223372648Y-147830000D01*
X223474093Y-147320000D01*
X223361054Y-146751715D01*
X223039147Y-146269946D01*
X222709974Y-146050000D01*
X223039147Y-145830054D01*
X223361054Y-145348285D01*
X223474093Y-144780000D01*
X223361054Y-144211715D01*
X223039147Y-143729946D01*
X222698447Y-143502298D01*
X222841358Y-143435183D01*
X223231645Y-143006924D01*
X223401476Y-142596890D01*
X223280155Y-142367000D01*
X222087000Y-142367000D01*
X222087000Y-142387000D01*
X221833000Y-142387000D01*
X221833000Y-142367000D01*
X220639845Y-142367000D01*
X220518524Y-142596890D01*
X220688355Y-143006924D01*
X221078642Y-143435183D01*
X221221553Y-143502298D01*
X220880853Y-143729946D01*
X220558946Y-144211715D01*
X220445907Y-144780000D01*
X220558946Y-145348285D01*
X220880853Y-145830054D01*
X221210026Y-146050000D01*
X220880853Y-146269946D01*
X220558946Y-146751715D01*
X220445907Y-147320000D01*
X220547352Y-147830000D01*
X202043346Y-147830000D01*
X201719670Y-147345585D01*
X201233489Y-147020729D01*
X200662237Y-146907100D01*
X201881534Y-146907100D01*
X202140330Y-147294415D01*
X202626511Y-147619271D01*
X203200000Y-147733345D01*
X203773489Y-147619271D01*
X204259670Y-147294415D01*
X204584526Y-146808234D01*
X204698600Y-146234745D01*
X204698600Y-145865255D01*
X204584526Y-145291766D01*
X204259670Y-144805585D01*
X204221379Y-144780000D01*
X204259670Y-144754415D01*
X204584526Y-144268234D01*
X204698600Y-143694745D01*
X204698600Y-143325255D01*
X204584526Y-142751766D01*
X204259670Y-142265585D01*
X203773489Y-141940729D01*
X203200000Y-141826655D01*
X202626511Y-141940729D01*
X202140330Y-142265585D01*
X201994056Y-142484500D01*
X201555400Y-142484500D01*
X201162958Y-142562562D01*
X201001208Y-142670640D01*
X200830262Y-142784862D01*
X200759024Y-142856100D01*
X187946823Y-142856100D01*
X188086757Y-142519100D01*
X188087242Y-141963339D01*
X187875010Y-141449697D01*
X187482370Y-141056371D01*
X187274488Y-140970051D01*
X187480303Y-140885010D01*
X187580232Y-140785255D01*
X194081400Y-140785255D01*
X194081400Y-141154745D01*
X194195474Y-141728234D01*
X194520330Y-142214415D01*
X195006511Y-142539271D01*
X195580000Y-142653345D01*
X196153489Y-142539271D01*
X196639670Y-142214415D01*
X196846461Y-141904931D01*
X197217964Y-142320732D01*
X197745209Y-142574709D01*
X197760974Y-142577358D01*
X197993000Y-142456217D01*
X197993000Y-141097000D01*
X197973000Y-141097000D01*
X197973000Y-140843000D01*
X197993000Y-140843000D01*
X197993000Y-139483783D01*
X198247000Y-139483783D01*
X198247000Y-140843000D01*
X198267000Y-140843000D01*
X198267000Y-141097000D01*
X198247000Y-141097000D01*
X198247000Y-142456217D01*
X198479026Y-142577358D01*
X198494791Y-142574709D01*
X199022036Y-142320732D01*
X199393539Y-141904931D01*
X199600330Y-142214415D01*
X200086511Y-142539271D01*
X200660000Y-142653345D01*
X201233489Y-142539271D01*
X201719670Y-142214415D01*
X202044526Y-141728234D01*
X202158600Y-141154745D01*
X202158600Y-140785255D01*
X202044526Y-140211766D01*
X201872293Y-139954000D01*
X206596655Y-139954000D01*
X206710729Y-140527489D01*
X207035585Y-141013670D01*
X207521766Y-141338526D01*
X208095255Y-141452600D01*
X208464745Y-141452600D01*
X209038234Y-141338526D01*
X209524415Y-141013670D01*
X209849271Y-140527489D01*
X209963345Y-139954000D01*
X209849271Y-139380511D01*
X209524415Y-138894330D01*
X209214931Y-138687539D01*
X209630732Y-138316036D01*
X209884709Y-137788791D01*
X209887358Y-137773026D01*
X209766217Y-137541000D01*
X208407000Y-137541000D01*
X208407000Y-137561000D01*
X208153000Y-137561000D01*
X208153000Y-137541000D01*
X206793783Y-137541000D01*
X206672642Y-137773026D01*
X206675291Y-137788791D01*
X206929268Y-138316036D01*
X207345069Y-138687539D01*
X207035585Y-138894330D01*
X206710729Y-139380511D01*
X206596655Y-139954000D01*
X201872293Y-139954000D01*
X201719670Y-139725585D01*
X201233489Y-139400729D01*
X200660000Y-139286655D01*
X200086511Y-139400729D01*
X199600330Y-139725585D01*
X199393539Y-140035069D01*
X199022036Y-139619268D01*
X198494791Y-139365291D01*
X198479026Y-139362642D01*
X198247000Y-139483783D01*
X197993000Y-139483783D01*
X197760974Y-139362642D01*
X197745209Y-139365291D01*
X197217964Y-139619268D01*
X196846461Y-140035069D01*
X196639670Y-139725585D01*
X196153489Y-139400729D01*
X195580000Y-139286655D01*
X195006511Y-139400729D01*
X194520330Y-139725585D01*
X194195474Y-140211766D01*
X194081400Y-140785255D01*
X187580232Y-140785255D01*
X187873629Y-140492370D01*
X188086757Y-139979100D01*
X188087242Y-139423339D01*
X187875010Y-138909697D01*
X187482370Y-138516371D01*
X187290273Y-138436605D01*
X187421143Y-138382397D01*
X187490608Y-138140213D01*
X186690000Y-137339605D01*
X185889392Y-138140213D01*
X185958857Y-138382397D01*
X186099318Y-138432509D01*
X185899697Y-138514990D01*
X185506371Y-138907630D01*
X185293243Y-139420900D01*
X185292758Y-139976661D01*
X185504990Y-140490303D01*
X185897630Y-140883629D01*
X186105512Y-140969949D01*
X185899697Y-141054990D01*
X185506371Y-141447630D01*
X185293243Y-141960900D01*
X185292758Y-142516661D01*
X185433011Y-142856100D01*
X184152301Y-142856100D01*
X184048490Y-142785169D01*
X183796600Y-142734160D01*
X180296600Y-142734160D01*
X180061283Y-142778438D01*
X179845159Y-142917510D01*
X179700169Y-143129710D01*
X179649160Y-143381600D01*
X179649160Y-144381600D01*
X179693438Y-144616917D01*
X179832510Y-144833041D01*
X179902311Y-144880734D01*
X179845159Y-144917510D01*
X179700169Y-145129710D01*
X179649160Y-145381600D01*
X179649160Y-146381600D01*
X179693438Y-146616917D01*
X179832510Y-146833041D01*
X180044710Y-146978031D01*
X180296600Y-147029040D01*
X183796600Y-147029040D01*
X184031917Y-146984762D01*
X184152607Y-146907100D01*
X195577763Y-146907100D01*
X195006511Y-147020729D01*
X194520330Y-147345585D01*
X194195474Y-147831766D01*
X194081400Y-148405255D01*
X194081400Y-148774745D01*
X194195474Y-149348234D01*
X194520330Y-149834415D01*
X195006511Y-150159271D01*
X195580000Y-150273345D01*
X196153489Y-150159271D01*
X196639670Y-149834415D01*
X196850000Y-149519634D01*
X197060330Y-149834415D01*
X197546511Y-150159271D01*
X198120000Y-150273345D01*
X198500464Y-150197666D01*
X198771209Y-150468411D01*
X199017770Y-150633158D01*
X199308610Y-150691010D01*
X227106590Y-150691010D01*
X227397429Y-150633158D01*
X227643991Y-150468411D01*
X240618201Y-137494201D01*
X240671789Y-137414000D01*
X242156655Y-137414000D01*
X242270729Y-137987489D01*
X242595585Y-138473670D01*
X242910366Y-138684000D01*
X242595585Y-138894330D01*
X242270729Y-139380511D01*
X242156655Y-139954000D01*
X242270729Y-140527489D01*
X242595585Y-141013670D01*
X243081766Y-141338526D01*
X243655255Y-141452600D01*
X244024745Y-141452600D01*
X244598234Y-141338526D01*
X245084415Y-141013670D01*
X245409271Y-140527489D01*
X245523345Y-139954000D01*
X245409271Y-139380511D01*
X245084415Y-138894330D01*
X244769634Y-138684000D01*
X245084415Y-138473670D01*
X245409271Y-137987489D01*
X245523345Y-137414000D01*
X245409271Y-136840511D01*
X245084415Y-136354330D01*
X244598234Y-136029474D01*
X244024745Y-135915400D01*
X243655255Y-135915400D01*
X243081766Y-136029474D01*
X242595585Y-136354330D01*
X242270729Y-136840511D01*
X242156655Y-137414000D01*
X240671789Y-137414000D01*
X240782948Y-137247639D01*
X240840800Y-136956800D01*
X240840800Y-126339600D01*
X240834861Y-126309743D01*
X240782948Y-126048760D01*
X240618201Y-125802199D01*
X229106000Y-114289998D01*
X229106000Y-82922802D01*
X229845400Y-82183402D01*
X229847985Y-82187270D01*
X230162766Y-82397600D01*
X229847985Y-82607930D01*
X229523129Y-83094111D01*
X229409055Y-83667600D01*
X229523129Y-84241089D01*
X229847985Y-84727270D01*
X230162766Y-84937600D01*
X229847985Y-85147930D01*
X229523129Y-85634111D01*
X229409055Y-86207600D01*
X229523129Y-86781089D01*
X229847985Y-87267270D01*
X230162766Y-87477600D01*
X229847985Y-87687930D01*
X229523129Y-88174111D01*
X229409055Y-88747600D01*
X229523129Y-89321089D01*
X229847985Y-89807270D01*
X230162766Y-90017600D01*
X229847985Y-90227930D01*
X229523129Y-90714111D01*
X229409055Y-91287600D01*
X229523129Y-91861089D01*
X229847985Y-92347270D01*
X230162766Y-92557600D01*
X229847985Y-92767930D01*
X229523129Y-93254111D01*
X229409055Y-93827600D01*
X229523129Y-94401089D01*
X229847985Y-94887270D01*
X230162766Y-95097600D01*
X229847985Y-95307930D01*
X229523129Y-95794111D01*
X229409055Y-96367600D01*
X229523129Y-96941089D01*
X229847985Y-97427270D01*
X230162766Y-97637600D01*
X229847985Y-97847930D01*
X229523129Y-98334111D01*
X229409055Y-98907600D01*
X229523129Y-99481089D01*
X229847985Y-99967270D01*
X230162766Y-100177600D01*
X229847985Y-100387930D01*
X229523129Y-100874111D01*
X229409055Y-101447600D01*
X229523129Y-102021089D01*
X229847985Y-102507270D01*
X230162766Y-102717600D01*
X229847985Y-102927930D01*
X229523129Y-103414111D01*
X229409055Y-103987600D01*
X229523129Y-104561089D01*
X229847985Y-105047270D01*
X230162766Y-105257600D01*
X229847985Y-105467930D01*
X229523129Y-105954111D01*
X229409055Y-106527600D01*
X229523129Y-107101089D01*
X229847985Y-107587270D01*
X230334166Y-107912126D01*
X230907655Y-108026200D01*
X231277145Y-108026200D01*
X231850634Y-107912126D01*
X232336815Y-107587270D01*
X232661671Y-107101089D01*
X232775745Y-106527600D01*
X232661671Y-105954111D01*
X232336815Y-105467930D01*
X232022034Y-105257600D01*
X232336815Y-105047270D01*
X232661671Y-104561089D01*
X232775745Y-103987600D01*
X232661671Y-103414111D01*
X232336815Y-102927930D01*
X232022034Y-102717600D01*
X232336815Y-102507270D01*
X232661671Y-102021089D01*
X232775745Y-101447600D01*
X232661671Y-100874111D01*
X232336815Y-100387930D01*
X232022034Y-100177600D01*
X232336815Y-99967270D01*
X232661671Y-99481089D01*
X232775745Y-98907600D01*
X232661671Y-98334111D01*
X232336815Y-97847930D01*
X232022034Y-97637600D01*
X232336815Y-97427270D01*
X232661671Y-96941089D01*
X232775745Y-96367600D01*
X232661671Y-95794111D01*
X232336815Y-95307930D01*
X232022034Y-95097600D01*
X232336815Y-94887270D01*
X232661671Y-94401089D01*
X232775745Y-93827600D01*
X232661671Y-93254111D01*
X232336815Y-92767930D01*
X232022034Y-92557600D01*
X232336815Y-92347270D01*
X232661671Y-91861089D01*
X232775745Y-91287600D01*
X232661671Y-90714111D01*
X232336815Y-90227930D01*
X232022034Y-90017600D01*
X232336815Y-89807270D01*
X232661671Y-89321089D01*
X232775745Y-88747600D01*
X232661671Y-88174111D01*
X232336815Y-87687930D01*
X232022034Y-87477600D01*
X232336815Y-87267270D01*
X232661671Y-86781089D01*
X232775745Y-86207600D01*
X232661671Y-85634111D01*
X232336815Y-85147930D01*
X232022034Y-84937600D01*
X232336815Y-84727270D01*
X232537048Y-84427600D01*
X233527600Y-84427600D01*
X233818439Y-84369748D01*
X234065001Y-84205001D01*
X237274080Y-80995922D01*
X237319567Y-80995962D01*
X237663343Y-80853917D01*
X237908706Y-80608982D01*
X238493489Y-81193765D01*
X238493489Y-102235000D01*
X238571551Y-102627442D01*
X238747921Y-102891399D01*
X238793851Y-102960138D01*
X240187840Y-104354127D01*
X240273461Y-104411337D01*
X249775621Y-113913497D01*
X249729055Y-114147600D01*
X249843129Y-114721089D01*
X250167985Y-115207270D01*
X250482766Y-115417600D01*
X250167985Y-115627930D01*
X249843129Y-116114111D01*
X249729055Y-116687600D01*
X249843129Y-117261089D01*
X250167985Y-117747270D01*
X250654166Y-118072126D01*
X251227655Y-118186200D01*
X251597145Y-118186200D01*
X252170634Y-118072126D01*
X252656815Y-117747270D01*
X252981671Y-117261089D01*
X253095745Y-116687600D01*
X252981671Y-116114111D01*
X252656815Y-115627930D01*
X252342034Y-115417600D01*
X252656815Y-115207270D01*
X252981671Y-114721089D01*
X253095745Y-114147600D01*
X252981671Y-113574111D01*
X252656815Y-113087930D01*
X252342034Y-112877600D01*
X252656815Y-112667270D01*
X252981671Y-112181089D01*
X253095745Y-111607600D01*
X252981671Y-111034111D01*
X252656815Y-110547930D01*
X252347331Y-110341139D01*
X252763132Y-109969636D01*
X253017109Y-109442391D01*
X253019758Y-109426626D01*
X252898617Y-109194600D01*
X251539400Y-109194600D01*
X251539400Y-109214600D01*
X251285400Y-109214600D01*
X251285400Y-109194600D01*
X249926183Y-109194600D01*
X249805042Y-109426626D01*
X249807691Y-109442391D01*
X250061668Y-109969636D01*
X250477469Y-110341139D01*
X250167985Y-110547930D01*
X249843129Y-111034111D01*
X249835440Y-111072764D01*
X241666527Y-102903851D01*
X241647891Y-102891399D01*
X241580906Y-102846641D01*
X240544489Y-101810224D01*
X240544489Y-98787967D01*
X245241638Y-98787967D01*
X245383683Y-99131743D01*
X245424000Y-99172130D01*
X245424000Y-100025200D01*
X245481852Y-100316039D01*
X245646599Y-100562601D01*
X249608999Y-104525001D01*
X249855561Y-104689748D01*
X249940368Y-104706617D01*
X250167985Y-105047270D01*
X250482766Y-105257600D01*
X250167985Y-105467930D01*
X249843129Y-105954111D01*
X249729055Y-106527600D01*
X249843129Y-107101089D01*
X250167985Y-107587270D01*
X250477469Y-107794061D01*
X250061668Y-108165564D01*
X249807691Y-108692809D01*
X249805042Y-108708574D01*
X249926183Y-108940600D01*
X251285400Y-108940600D01*
X251285400Y-108920600D01*
X251539400Y-108920600D01*
X251539400Y-108940600D01*
X252898617Y-108940600D01*
X253019758Y-108708574D01*
X253017109Y-108692809D01*
X252763132Y-108165564D01*
X252347331Y-107794061D01*
X252656815Y-107587270D01*
X252981671Y-107101089D01*
X253095745Y-106527600D01*
X252981671Y-105954111D01*
X252656815Y-105467930D01*
X252342034Y-105257600D01*
X252656815Y-105047270D01*
X252981671Y-104561089D01*
X253095745Y-103987600D01*
X252981671Y-103414111D01*
X252656815Y-102927930D01*
X252342034Y-102717600D01*
X252656815Y-102507270D01*
X252981671Y-102021089D01*
X253095745Y-101447600D01*
X252981671Y-100874111D01*
X252656815Y-100387930D01*
X252342034Y-100177600D01*
X252656815Y-99967270D01*
X252981671Y-99481089D01*
X253095745Y-98907600D01*
X252981671Y-98334111D01*
X252656815Y-97847930D01*
X252342034Y-97637600D01*
X252656815Y-97427270D01*
X252981671Y-96941089D01*
X253095745Y-96367600D01*
X252981671Y-95794111D01*
X252656815Y-95307930D01*
X252342034Y-95097600D01*
X252656815Y-94887270D01*
X252981671Y-94401089D01*
X253095745Y-93827600D01*
X252981671Y-93254111D01*
X252656815Y-92767930D01*
X252342034Y-92557600D01*
X252656815Y-92347270D01*
X252981671Y-91861089D01*
X253095745Y-91287600D01*
X252981671Y-90714111D01*
X252656815Y-90227930D01*
X252342034Y-90017600D01*
X252656815Y-89807270D01*
X252981671Y-89321089D01*
X253095745Y-88747600D01*
X252981671Y-88174111D01*
X252656815Y-87687930D01*
X252342034Y-87477600D01*
X252656815Y-87267270D01*
X252981671Y-86781089D01*
X253095745Y-86207600D01*
X252981671Y-85634111D01*
X252656815Y-85147930D01*
X252342034Y-84937600D01*
X252656815Y-84727270D01*
X252981671Y-84241089D01*
X253095745Y-83667600D01*
X252981671Y-83094111D01*
X252656815Y-82607930D01*
X252342034Y-82397600D01*
X252656815Y-82187270D01*
X252981671Y-81701089D01*
X253095745Y-81127600D01*
X252981671Y-80554111D01*
X252656815Y-80067930D01*
X252342034Y-79857600D01*
X252656815Y-79647270D01*
X252981671Y-79161089D01*
X253095745Y-78587600D01*
X252981671Y-78014111D01*
X252656815Y-77527930D01*
X252170634Y-77203074D01*
X251597145Y-77089000D01*
X251227655Y-77089000D01*
X250654166Y-77203074D01*
X250167985Y-77527930D01*
X249843129Y-78014111D01*
X249729055Y-78587600D01*
X249843129Y-79161089D01*
X250167985Y-79647270D01*
X250482766Y-79857600D01*
X250167985Y-80067930D01*
X249843129Y-80554111D01*
X249729055Y-81127600D01*
X249843129Y-81701089D01*
X250167985Y-82187270D01*
X250482766Y-82397600D01*
X250167985Y-82607930D01*
X249843129Y-83094111D01*
X249729055Y-83667600D01*
X249843129Y-84241089D01*
X250167985Y-84727270D01*
X250482766Y-84937600D01*
X250167985Y-85147930D01*
X249843129Y-85634111D01*
X249729055Y-86207600D01*
X249843129Y-86781089D01*
X250167985Y-87267270D01*
X250482766Y-87477600D01*
X250167985Y-87687930D01*
X249843129Y-88174111D01*
X249729055Y-88747600D01*
X249843129Y-89321089D01*
X250167985Y-89807270D01*
X250482766Y-90017600D01*
X250167985Y-90227930D01*
X249843129Y-90714111D01*
X249729055Y-91287600D01*
X249843129Y-91861089D01*
X250167985Y-92347270D01*
X250482766Y-92557600D01*
X250167985Y-92767930D01*
X250165400Y-92771798D01*
X249731985Y-92338383D01*
X249753238Y-92287199D01*
X249753562Y-91915233D01*
X249611517Y-91571457D01*
X249348727Y-91308208D01*
X249005199Y-91165562D01*
X248633233Y-91165238D01*
X248289457Y-91307283D01*
X248026208Y-91570073D01*
X247883562Y-91913601D01*
X247883238Y-92285567D01*
X248025283Y-92629343D01*
X248098871Y-92703060D01*
X248116252Y-92790439D01*
X248280999Y-93037001D01*
X249608999Y-94365001D01*
X249855561Y-94529748D01*
X249940368Y-94546617D01*
X250167985Y-94887270D01*
X250482766Y-95097600D01*
X250167985Y-95307930D01*
X249843129Y-95794111D01*
X249729055Y-96367600D01*
X249843129Y-96941089D01*
X250167985Y-97427270D01*
X250482766Y-97637600D01*
X250167985Y-97847930D01*
X249843129Y-98334111D01*
X249729055Y-98907600D01*
X249843129Y-99481089D01*
X250167985Y-99967270D01*
X250482766Y-100177600D01*
X250167985Y-100387930D01*
X249843129Y-100874111D01*
X249729055Y-101447600D01*
X249843129Y-102021089D01*
X250167985Y-102507270D01*
X250482766Y-102717600D01*
X250167985Y-102927930D01*
X250165400Y-102931798D01*
X246944000Y-99710398D01*
X246944000Y-99158075D01*
X246968992Y-99133127D01*
X247111638Y-98789599D01*
X247111962Y-98417633D01*
X246969917Y-98073857D01*
X246707127Y-97810608D01*
X246363599Y-97667962D01*
X245991633Y-97667638D01*
X245647857Y-97809683D01*
X245384608Y-98072473D01*
X245241962Y-98416001D01*
X245241638Y-98787967D01*
X240544489Y-98787967D01*
X240544489Y-80768989D01*
X240466427Y-80376547D01*
X240244127Y-80043851D01*
X233135138Y-72934862D01*
X232984935Y-72834500D01*
X232802442Y-72712562D01*
X232410000Y-72634500D01*
X221750000Y-72634500D01*
X221357558Y-72712562D01*
X221024862Y-72934862D01*
X217288220Y-76671504D01*
X217085010Y-76179697D01*
X216692370Y-75786371D01*
X216484488Y-75700051D01*
X216690303Y-75615010D01*
X217083629Y-75222370D01*
X217296757Y-74709100D01*
X217297242Y-74153339D01*
X217085010Y-73639697D01*
X216692370Y-73246371D01*
X216179100Y-73033243D01*
X215623339Y-73032758D01*
X215109697Y-73244990D01*
X214716371Y-73637630D01*
X214503243Y-74150900D01*
X214502758Y-74706661D01*
X214714990Y-75220303D01*
X215107630Y-75613629D01*
X215315512Y-75699949D01*
X215109697Y-75784990D01*
X214716371Y-76177630D01*
X214503243Y-76690900D01*
X214502758Y-77246661D01*
X214714990Y-77760303D01*
X215107630Y-78153629D01*
X215315512Y-78239949D01*
X215109697Y-78324990D01*
X214716371Y-78717630D01*
X214503243Y-79230900D01*
X214502758Y-79786661D01*
X214714990Y-80300303D01*
X215107630Y-80693629D01*
X215620900Y-80906757D01*
X216176661Y-80907242D01*
X216690303Y-80695010D01*
X217083629Y-80302370D01*
X217296757Y-79789100D01*
X217296954Y-79563322D01*
X222174776Y-74685500D01*
X231985224Y-74685500D01*
X236586415Y-79286691D01*
X236342208Y-79530473D01*
X236199562Y-79874001D01*
X236199521Y-79920877D01*
X233212798Y-82907600D01*
X232537048Y-82907600D01*
X232336815Y-82607930D01*
X232022034Y-82397600D01*
X232336815Y-82187270D01*
X232661671Y-81701089D01*
X232775745Y-81127600D01*
X232661671Y-80554111D01*
X232336815Y-80067930D01*
X232022034Y-79857600D01*
X232336815Y-79647270D01*
X232661671Y-79161089D01*
X232775745Y-78587600D01*
X232661671Y-78014111D01*
X232336815Y-77527930D01*
X231850634Y-77203074D01*
X231277145Y-77089000D01*
X230907655Y-77089000D01*
X230334166Y-77203074D01*
X229847985Y-77527930D01*
X229523129Y-78014111D01*
X229409055Y-78587600D01*
X229484734Y-78968063D01*
X227275199Y-81177599D01*
X227110452Y-81424161D01*
X227052600Y-81715000D01*
X227052600Y-114909600D01*
X227110452Y-115200439D01*
X227275199Y-115447001D01*
X236719721Y-124891523D01*
X236609999Y-124845962D01*
X236563123Y-124845921D01*
X235397791Y-123680589D01*
X235151229Y-123515842D01*
X234860390Y-123457990D01*
X202172010Y-123457990D01*
X201881171Y-123515842D01*
X201780798Y-123582909D01*
X201686844Y-123582827D01*
X201343068Y-123724872D01*
X201079819Y-123987662D01*
X200937173Y-124331190D01*
X200936849Y-124703156D01*
X201078894Y-125046932D01*
X201341684Y-125310181D01*
X201685212Y-125452827D01*
X202057178Y-125453151D01*
X202400954Y-125311106D01*
X202664203Y-125048316D01*
X202693405Y-124977990D01*
X203026991Y-124977990D01*
X203026838Y-125153167D01*
X203168883Y-125496943D01*
X203431673Y-125760192D01*
X203775201Y-125902838D01*
X204147167Y-125903162D01*
X204490943Y-125761117D01*
X204524118Y-125728000D01*
X220629800Y-125728000D01*
X220513569Y-125898110D01*
X220462560Y-126150000D01*
X220462560Y-126174500D01*
X196392805Y-126174500D01*
X196392800Y-126174499D01*
X196076895Y-126237337D01*
X195809083Y-126416283D01*
X195809081Y-126416286D01*
X187973666Y-134251700D01*
X170992800Y-134251700D01*
X170676894Y-134314537D01*
X170409083Y-134493483D01*
X169139366Y-135763200D01*
X168633339Y-135762758D01*
X168119697Y-135974990D01*
X167726371Y-136367630D01*
X167513243Y-136880900D01*
X167512758Y-137436661D01*
X165289061Y-137436661D01*
X165344093Y-137160000D01*
X165231054Y-136591715D01*
X164909147Y-136109946D01*
X164427378Y-135788039D01*
X163859093Y-135675000D01*
X163800907Y-135675000D01*
X163232622Y-135788039D01*
X162750853Y-136109946D01*
X162428946Y-136591715D01*
X162315907Y-137160000D01*
X158190000Y-137160000D01*
X158190000Y-132205864D01*
X189230203Y-132156200D01*
X189279597Y-132146115D01*
X189321176Y-132117608D01*
X189348388Y-132075170D01*
X189357000Y-132029200D01*
X189357000Y-109980000D01*
X195983102Y-109980000D01*
X196273941Y-109922148D01*
X196520503Y-109757401D01*
X198454904Y-107823000D01*
X211328000Y-107823000D01*
X211377410Y-107812994D01*
X211419035Y-107784553D01*
X211446315Y-107742159D01*
X211455000Y-107696000D01*
X211455000Y-87406661D01*
X214502758Y-87406661D01*
X214714990Y-87920303D01*
X215107630Y-88313629D01*
X215315512Y-88399949D01*
X215109697Y-88484990D01*
X214716371Y-88877630D01*
X214503243Y-89390900D01*
X214502758Y-89946661D01*
X214714990Y-90460303D01*
X215107630Y-90853629D01*
X215620900Y-91066757D01*
X216176661Y-91067242D01*
X216304584Y-91014386D01*
X217504878Y-92214680D01*
X217504838Y-92260167D01*
X217646883Y-92603943D01*
X217909673Y-92867192D01*
X218253201Y-93009838D01*
X218625167Y-93010162D01*
X218968943Y-92868117D01*
X219232192Y-92605327D01*
X219374838Y-92261799D01*
X219375162Y-91889833D01*
X219233117Y-91546057D01*
X218970327Y-91282808D01*
X218626799Y-91140162D01*
X218579923Y-91140121D01*
X217296837Y-89857035D01*
X217297242Y-89393339D01*
X217085010Y-88879697D01*
X216692370Y-88486371D01*
X216484488Y-88400051D01*
X216690303Y-88315010D01*
X217083629Y-87922370D01*
X217296757Y-87409100D01*
X217297242Y-86853339D01*
X217085010Y-86339697D01*
X216692370Y-85946371D01*
X216500273Y-85866605D01*
X216631143Y-85812397D01*
X216700608Y-85570213D01*
X215900000Y-84769605D01*
X215099392Y-85570213D01*
X215168857Y-85812397D01*
X215309318Y-85862509D01*
X215109697Y-85944990D01*
X214716371Y-86337630D01*
X214503243Y-86850900D01*
X214502758Y-87406661D01*
X211455000Y-87406661D01*
X211455000Y-84382302D01*
X214490856Y-84382302D01*
X214518638Y-84937368D01*
X214677603Y-85321143D01*
X214919787Y-85390608D01*
X215720395Y-84590000D01*
X216079605Y-84590000D01*
X216880213Y-85390608D01*
X217122397Y-85321143D01*
X217309144Y-84797698D01*
X217281362Y-84242632D01*
X217122397Y-83858857D01*
X216880213Y-83789392D01*
X216079605Y-84590000D01*
X215720395Y-84590000D01*
X214919787Y-83789392D01*
X214677603Y-83858857D01*
X214490856Y-84382302D01*
X211455000Y-84382302D01*
X211455000Y-83609787D01*
X215099392Y-83609787D01*
X215900000Y-84410395D01*
X216700608Y-83609787D01*
X216631143Y-83367603D01*
X216107698Y-83180856D01*
X215552632Y-83208638D01*
X215168857Y-83367603D01*
X215099392Y-83609787D01*
X211455000Y-83609787D01*
X211455000Y-71830000D01*
X253290000Y-71830000D01*
X253290000Y-129059566D01*
X253290000Y-129059566D01*
G37*
X253290000Y-129059566D02*
X240740717Y-116510283D01*
X240472906Y-116331337D01*
X240161478Y-116269391D01*
X240004415Y-116034330D01*
X239518234Y-115709474D01*
X238944745Y-115595400D01*
X238575255Y-115595400D01*
X238001766Y-115709474D01*
X237515585Y-116034330D01*
X237490000Y-116072621D01*
X237464415Y-116034330D01*
X236978234Y-115709474D01*
X236404745Y-115595400D01*
X236035255Y-115595400D01*
X235461766Y-115709474D01*
X234975585Y-116034330D01*
X234650729Y-116520511D01*
X234536655Y-117094000D01*
X234650729Y-117667489D01*
X234975585Y-118153670D01*
X235461766Y-118478526D01*
X236035255Y-118592600D01*
X236404745Y-118592600D01*
X236653988Y-118543022D01*
X251040900Y-132929934D01*
X251040900Y-139675760D01*
X251016400Y-139675760D01*
X250781083Y-139720038D01*
X250564959Y-139859110D01*
X250419969Y-140071310D01*
X250368960Y-140323200D01*
X250368960Y-142023200D01*
X250413238Y-142258517D01*
X250552310Y-142474641D01*
X250764510Y-142619631D01*
X250831941Y-142633286D01*
X250787253Y-142663146D01*
X250465346Y-143144915D01*
X250352307Y-143713200D01*
X250465346Y-144281485D01*
X250787253Y-144763254D01*
X251269022Y-145085161D01*
X251837307Y-145198200D01*
X251895493Y-145198200D01*
X252463778Y-145085161D01*
X252945547Y-144763254D01*
X253267454Y-144281485D01*
X253290000Y-144168139D01*
X253290000Y-147169861D01*
X253267454Y-147056515D01*
X252945547Y-146574746D01*
X252463778Y-146252839D01*
X251895493Y-146139800D01*
X251837307Y-146139800D01*
X251269022Y-146252839D01*
X250787253Y-146574746D01*
X250637211Y-146799300D01*
X238746333Y-146799300D01*
X236969594Y-145022560D01*
X236860717Y-144759057D01*
X236597927Y-144495808D01*
X236254399Y-144353162D01*
X235882433Y-144352838D01*
X235538657Y-144494883D01*
X235275408Y-144757673D01*
X235218500Y-144894722D01*
X235023127Y-144699008D01*
X234679599Y-144556362D01*
X234307633Y-144556038D01*
X233963857Y-144698083D01*
X233700608Y-144960873D01*
X233557962Y-145304401D01*
X233557638Y-145676367D01*
X233699683Y-146020143D01*
X233962473Y-146283392D01*
X234227684Y-146393518D01*
X238582681Y-150748514D01*
X238582683Y-150748517D01*
X238850495Y-150927463D01*
X239166400Y-150990301D01*
X239166405Y-150990300D01*
X250368960Y-150990300D01*
X250368960Y-151014800D01*
X250413238Y-151250117D01*
X250552310Y-151466241D01*
X250764510Y-151611231D01*
X251016400Y-151662240D01*
X252716400Y-151662240D01*
X252951717Y-151617962D01*
X253167841Y-151478890D01*
X253290000Y-151300104D01*
X253290000Y-151690000D01*
X158190000Y-151690000D01*
X158190000Y-147481600D01*
X173949160Y-147481600D01*
X173949160Y-148981600D01*
X173993438Y-149216917D01*
X174132510Y-149433041D01*
X174344710Y-149578031D01*
X174596600Y-149629040D01*
X177996600Y-149629040D01*
X178231917Y-149584762D01*
X178448041Y-149445690D01*
X178593031Y-149233490D01*
X178644040Y-148981600D01*
X178644040Y-147481600D01*
X178599762Y-147246283D01*
X178460690Y-147030159D01*
X178248490Y-146885169D01*
X177996600Y-146834160D01*
X174596600Y-146834160D01*
X174361283Y-146878438D01*
X174145159Y-147017510D01*
X174000169Y-147229710D01*
X173949160Y-147481600D01*
X158190000Y-147481600D01*
X158190000Y-137160000D01*
X162315907Y-137160000D01*
X162428946Y-137728285D01*
X162750853Y-138210054D01*
X163080026Y-138430000D01*
X162750853Y-138649946D01*
X162428946Y-139131715D01*
X162315907Y-139700000D01*
X162428946Y-140268285D01*
X162750853Y-140750054D01*
X162792452Y-140777850D01*
X162744683Y-140786838D01*
X162528559Y-140925910D01*
X162383569Y-141138110D01*
X162332560Y-141390000D01*
X162332560Y-143090000D01*
X162376838Y-143325317D01*
X162515910Y-143541441D01*
X162728110Y-143686431D01*
X162980000Y-143737440D01*
X164680000Y-143737440D01*
X164915317Y-143693162D01*
X165131441Y-143554090D01*
X165276431Y-143341890D01*
X165327440Y-143090000D01*
X165327440Y-141390000D01*
X165283162Y-141154683D01*
X165144090Y-140938559D01*
X164931890Y-140793569D01*
X164864459Y-140779914D01*
X164909147Y-140750054D01*
X165231054Y-140268285D01*
X165344093Y-139700000D01*
X165231054Y-139131715D01*
X164909147Y-138649946D01*
X164579974Y-138430000D01*
X164909147Y-138210054D01*
X165231054Y-137728285D01*
X165289061Y-137436661D01*
X167512758Y-137436661D01*
X167724990Y-137950303D01*
X168117630Y-138343629D01*
X168325512Y-138429949D01*
X168119697Y-138514990D01*
X167726371Y-138907630D01*
X167513243Y-139420900D01*
X167512758Y-139976661D01*
X167724990Y-140490303D01*
X168117630Y-140883629D01*
X168325512Y-140969949D01*
X168119697Y-141054990D01*
X167726371Y-141447630D01*
X167513243Y-141960900D01*
X167512758Y-142516661D01*
X167724990Y-143030303D01*
X168117630Y-143423629D01*
X168630900Y-143636757D01*
X169186661Y-143637242D01*
X169700303Y-143425010D01*
X170093629Y-143032370D01*
X170306757Y-142519100D01*
X170307242Y-141963339D01*
X170095010Y-141449697D01*
X169702370Y-141056371D01*
X169494488Y-140970051D01*
X169700303Y-140885010D01*
X169803893Y-140781600D01*
X173949160Y-140781600D01*
X173949160Y-142281600D01*
X173993438Y-142516917D01*
X174132510Y-142733041D01*
X174344710Y-142878031D01*
X174596600Y-142929040D01*
X177996600Y-142929040D01*
X178231917Y-142884762D01*
X178448041Y-142745690D01*
X178593031Y-142533490D01*
X178644040Y-142281600D01*
X178644040Y-140781600D01*
X178599762Y-140546283D01*
X178460690Y-140330159D01*
X178248490Y-140185169D01*
X177996600Y-140134160D01*
X174596600Y-140134160D01*
X174361283Y-140178438D01*
X174145159Y-140317510D01*
X174000169Y-140529710D01*
X173949160Y-140781600D01*
X169803893Y-140781600D01*
X170093629Y-140492370D01*
X170306757Y-139979100D01*
X170307242Y-139423339D01*
X170095010Y-138909697D01*
X169702370Y-138516371D01*
X169494488Y-138430051D01*
X169700303Y-138345010D01*
X170093629Y-137952370D01*
X170306757Y-137439100D01*
X170307181Y-136952302D01*
X185280856Y-136952302D01*
X185308638Y-137507368D01*
X185467603Y-137891143D01*
X185709787Y-137960608D01*
X186510395Y-137160000D01*
X186869605Y-137160000D01*
X187670213Y-137960608D01*
X187912397Y-137891143D01*
X188099144Y-137367698D01*
X188083492Y-137054974D01*
X206672642Y-137054974D01*
X206793783Y-137287000D01*
X208153000Y-137287000D01*
X208153000Y-136073076D01*
X208407000Y-136073076D01*
X208407000Y-137287000D01*
X209766217Y-137287000D01*
X209887358Y-137054974D01*
X209884709Y-137039209D01*
X209630732Y-136511964D01*
X209194320Y-136122046D01*
X208641913Y-135928816D01*
X208407000Y-136073076D01*
X208153000Y-136073076D01*
X207918087Y-135928816D01*
X207365680Y-136122046D01*
X206929268Y-136511964D01*
X206675291Y-137039209D01*
X206672642Y-137054974D01*
X188083492Y-137054974D01*
X188071362Y-136812632D01*
X187912397Y-136428857D01*
X187670213Y-136359392D01*
X186869605Y-137160000D01*
X186510395Y-137160000D01*
X185709787Y-136359392D01*
X185467603Y-136428857D01*
X185280856Y-136952302D01*
X170307181Y-136952302D01*
X170307201Y-136930233D01*
X171334734Y-135902700D01*
X186043120Y-135902700D01*
X185958857Y-135937603D01*
X185889392Y-136179787D01*
X186690000Y-136980395D01*
X187490608Y-136179787D01*
X187421143Y-135937603D01*
X187323311Y-135902700D01*
X188315600Y-135902700D01*
X188631506Y-135839863D01*
X188899317Y-135660917D01*
X189686233Y-134874000D01*
X211676655Y-134874000D01*
X211790729Y-135447489D01*
X212115585Y-135933670D01*
X212601766Y-136258526D01*
X213175255Y-136372600D01*
X213544745Y-136372600D01*
X214118234Y-136258526D01*
X214604415Y-135933670D01*
X214929271Y-135447489D01*
X215043345Y-134874000D01*
X214929271Y-134300511D01*
X214604415Y-133814330D01*
X214118234Y-133489474D01*
X213544745Y-133375400D01*
X213175255Y-133375400D01*
X212601766Y-133489474D01*
X212115585Y-133814330D01*
X211790729Y-134300511D01*
X211676655Y-134874000D01*
X189686233Y-134874000D01*
X194766233Y-129794000D01*
X211676655Y-129794000D01*
X211790729Y-130367489D01*
X212115585Y-130853670D01*
X212601766Y-131178526D01*
X213175255Y-131292600D01*
X213544745Y-131292600D01*
X214118234Y-131178526D01*
X214604415Y-130853670D01*
X214929271Y-130367489D01*
X215043345Y-129794000D01*
X214929271Y-129220511D01*
X214604415Y-128734330D01*
X214118234Y-128409474D01*
X213544745Y-128295400D01*
X213175255Y-128295400D01*
X212601766Y-128409474D01*
X212115585Y-128734330D01*
X211790729Y-129220511D01*
X211676655Y-129794000D01*
X194766233Y-129794000D01*
X196734733Y-127825500D01*
X220462560Y-127825500D01*
X220462560Y-127850000D01*
X220506838Y-128085317D01*
X220645910Y-128301441D01*
X220858110Y-128446431D01*
X220925541Y-128460086D01*
X220880853Y-128489946D01*
X220558946Y-128971715D01*
X220445907Y-129540000D01*
X220558946Y-130108285D01*
X220880853Y-130590054D01*
X221210026Y-130810000D01*
X220880853Y-131029946D01*
X220558946Y-131511715D01*
X220445907Y-132080000D01*
X220558946Y-132648285D01*
X220880853Y-133130054D01*
X221210026Y-133350000D01*
X220880853Y-133569946D01*
X220558946Y-134051715D01*
X220445907Y-134620000D01*
X220558946Y-135188285D01*
X220880853Y-135670054D01*
X221210026Y-135890000D01*
X220880853Y-136109946D01*
X220558946Y-136591715D01*
X220445907Y-137160000D01*
X220558946Y-137728285D01*
X220880853Y-138210054D01*
X221210026Y-138430000D01*
X220880853Y-138649946D01*
X220558946Y-139131715D01*
X220445907Y-139700000D01*
X220558946Y-140268285D01*
X220880853Y-140750054D01*
X221221553Y-140977702D01*
X221078642Y-141044817D01*
X220688355Y-141473076D01*
X220518524Y-141883110D01*
X220639845Y-142113000D01*
X221833000Y-142113000D01*
X221833000Y-142093000D01*
X222087000Y-142093000D01*
X222087000Y-142113000D01*
X223280155Y-142113000D01*
X223401476Y-141883110D01*
X223231645Y-141473076D01*
X222841358Y-141044817D01*
X222698447Y-140977702D01*
X223039147Y-140750054D01*
X223361054Y-140268285D01*
X223474093Y-139700000D01*
X223361054Y-139131715D01*
X223039147Y-138649946D01*
X222709974Y-138430000D01*
X223039147Y-138210054D01*
X223361054Y-137728285D01*
X223474093Y-137160000D01*
X223361054Y-136591715D01*
X223039147Y-136109946D01*
X222709974Y-135890000D01*
X223039147Y-135670054D01*
X223361054Y-135188285D01*
X223474093Y-134620000D01*
X223361054Y-134051715D01*
X223039147Y-133569946D01*
X222709974Y-133350000D01*
X223039147Y-133130054D01*
X223361054Y-132648285D01*
X223474093Y-132080000D01*
X223361054Y-131511715D01*
X223039147Y-131029946D01*
X222709974Y-130810000D01*
X223039147Y-130590054D01*
X223361054Y-130108285D01*
X223474093Y-129540000D01*
X223361054Y-128971715D01*
X223039147Y-128489946D01*
X222997548Y-128462150D01*
X223045317Y-128453162D01*
X223261441Y-128314090D01*
X223406431Y-128101890D01*
X223457440Y-127850000D01*
X223457440Y-126150000D01*
X223413162Y-125914683D01*
X223293035Y-125728000D01*
X225712262Y-125728000D01*
X230690969Y-130706707D01*
X230662362Y-130775601D01*
X230662038Y-131147567D01*
X230804083Y-131491343D01*
X231066873Y-131754592D01*
X231410401Y-131897238D01*
X231782367Y-131897562D01*
X232126143Y-131755517D01*
X232389392Y-131492727D01*
X232532038Y-131149199D01*
X232532362Y-130777233D01*
X232390317Y-130433457D01*
X232322955Y-130365978D01*
X232299348Y-130247297D01*
X232134601Y-130000735D01*
X227111856Y-124977990D01*
X234545588Y-124977990D01*
X235488078Y-125920480D01*
X235488038Y-125965967D01*
X235630083Y-126309743D01*
X235892873Y-126572992D01*
X236236401Y-126715638D01*
X236608367Y-126715962D01*
X236952143Y-126573917D01*
X237215392Y-126311127D01*
X237358038Y-125967599D01*
X237358362Y-125595633D01*
X237312263Y-125484065D01*
X238762000Y-126933802D01*
X238762000Y-135676798D01*
X226608798Y-147830000D01*
X223372648Y-147830000D01*
X223474093Y-147320000D01*
X223361054Y-146751715D01*
X223039147Y-146269946D01*
X222709974Y-146050000D01*
X223039147Y-145830054D01*
X223361054Y-145348285D01*
X223474093Y-144780000D01*
X223361054Y-144211715D01*
X223039147Y-143729946D01*
X222698447Y-143502298D01*
X222841358Y-143435183D01*
X223231645Y-143006924D01*
X223401476Y-142596890D01*
X223280155Y-142367000D01*
X222087000Y-142367000D01*
X222087000Y-142387000D01*
X221833000Y-142387000D01*
X221833000Y-142367000D01*
X220639845Y-142367000D01*
X220518524Y-142596890D01*
X220688355Y-143006924D01*
X221078642Y-143435183D01*
X221221553Y-143502298D01*
X220880853Y-143729946D01*
X220558946Y-144211715D01*
X220445907Y-144780000D01*
X220558946Y-145348285D01*
X220880853Y-145830054D01*
X221210026Y-146050000D01*
X220880853Y-146269946D01*
X220558946Y-146751715D01*
X220445907Y-147320000D01*
X220547352Y-147830000D01*
X202043346Y-147830000D01*
X201719670Y-147345585D01*
X201233489Y-147020729D01*
X200662237Y-146907100D01*
X201881534Y-146907100D01*
X202140330Y-147294415D01*
X202626511Y-147619271D01*
X203200000Y-147733345D01*
X203773489Y-147619271D01*
X204259670Y-147294415D01*
X204584526Y-146808234D01*
X204698600Y-146234745D01*
X204698600Y-145865255D01*
X204584526Y-145291766D01*
X204259670Y-144805585D01*
X204221379Y-144780000D01*
X204259670Y-144754415D01*
X204584526Y-144268234D01*
X204698600Y-143694745D01*
X204698600Y-143325255D01*
X204584526Y-142751766D01*
X204259670Y-142265585D01*
X203773489Y-141940729D01*
X203200000Y-141826655D01*
X202626511Y-141940729D01*
X202140330Y-142265585D01*
X201994056Y-142484500D01*
X201555400Y-142484500D01*
X201162958Y-142562562D01*
X201001208Y-142670640D01*
X200830262Y-142784862D01*
X200759024Y-142856100D01*
X187946823Y-142856100D01*
X188086757Y-142519100D01*
X188087242Y-141963339D01*
X187875010Y-141449697D01*
X187482370Y-141056371D01*
X187274488Y-140970051D01*
X187480303Y-140885010D01*
X187580232Y-140785255D01*
X194081400Y-140785255D01*
X194081400Y-141154745D01*
X194195474Y-141728234D01*
X194520330Y-142214415D01*
X195006511Y-142539271D01*
X195580000Y-142653345D01*
X196153489Y-142539271D01*
X196639670Y-142214415D01*
X196846461Y-141904931D01*
X197217964Y-142320732D01*
X197745209Y-142574709D01*
X197760974Y-142577358D01*
X197993000Y-142456217D01*
X197993000Y-141097000D01*
X197973000Y-141097000D01*
X197973000Y-140843000D01*
X197993000Y-140843000D01*
X197993000Y-139483783D01*
X198247000Y-139483783D01*
X198247000Y-140843000D01*
X198267000Y-140843000D01*
X198267000Y-141097000D01*
X198247000Y-141097000D01*
X198247000Y-142456217D01*
X198479026Y-142577358D01*
X198494791Y-142574709D01*
X199022036Y-142320732D01*
X199393539Y-141904931D01*
X199600330Y-142214415D01*
X200086511Y-142539271D01*
X200660000Y-142653345D01*
X201233489Y-142539271D01*
X201719670Y-142214415D01*
X202044526Y-141728234D01*
X202158600Y-141154745D01*
X202158600Y-140785255D01*
X202044526Y-140211766D01*
X201872293Y-139954000D01*
X206596655Y-139954000D01*
X206710729Y-140527489D01*
X207035585Y-141013670D01*
X207521766Y-141338526D01*
X208095255Y-141452600D01*
X208464745Y-141452600D01*
X209038234Y-141338526D01*
X209524415Y-141013670D01*
X209849271Y-140527489D01*
X209963345Y-139954000D01*
X209849271Y-139380511D01*
X209524415Y-138894330D01*
X209214931Y-138687539D01*
X209630732Y-138316036D01*
X209884709Y-137788791D01*
X209887358Y-137773026D01*
X209766217Y-137541000D01*
X208407000Y-137541000D01*
X208407000Y-137561000D01*
X208153000Y-137561000D01*
X208153000Y-137541000D01*
X206793783Y-137541000D01*
X206672642Y-137773026D01*
X206675291Y-137788791D01*
X206929268Y-138316036D01*
X207345069Y-138687539D01*
X207035585Y-138894330D01*
X206710729Y-139380511D01*
X206596655Y-139954000D01*
X201872293Y-139954000D01*
X201719670Y-139725585D01*
X201233489Y-139400729D01*
X200660000Y-139286655D01*
X200086511Y-139400729D01*
X199600330Y-139725585D01*
X199393539Y-140035069D01*
X199022036Y-139619268D01*
X198494791Y-139365291D01*
X198479026Y-139362642D01*
X198247000Y-139483783D01*
X197993000Y-139483783D01*
X197760974Y-139362642D01*
X197745209Y-139365291D01*
X197217964Y-139619268D01*
X196846461Y-140035069D01*
X196639670Y-139725585D01*
X196153489Y-139400729D01*
X195580000Y-139286655D01*
X195006511Y-139400729D01*
X194520330Y-139725585D01*
X194195474Y-140211766D01*
X194081400Y-140785255D01*
X187580232Y-140785255D01*
X187873629Y-140492370D01*
X188086757Y-139979100D01*
X188087242Y-139423339D01*
X187875010Y-138909697D01*
X187482370Y-138516371D01*
X187290273Y-138436605D01*
X187421143Y-138382397D01*
X187490608Y-138140213D01*
X186690000Y-137339605D01*
X185889392Y-138140213D01*
X185958857Y-138382397D01*
X186099318Y-138432509D01*
X185899697Y-138514990D01*
X185506371Y-138907630D01*
X185293243Y-139420900D01*
X185292758Y-139976661D01*
X185504990Y-140490303D01*
X185897630Y-140883629D01*
X186105512Y-140969949D01*
X185899697Y-141054990D01*
X185506371Y-141447630D01*
X185293243Y-141960900D01*
X185292758Y-142516661D01*
X185433011Y-142856100D01*
X184152301Y-142856100D01*
X184048490Y-142785169D01*
X183796600Y-142734160D01*
X180296600Y-142734160D01*
X180061283Y-142778438D01*
X179845159Y-142917510D01*
X179700169Y-143129710D01*
X179649160Y-143381600D01*
X179649160Y-144381600D01*
X179693438Y-144616917D01*
X179832510Y-144833041D01*
X179902311Y-144880734D01*
X179845159Y-144917510D01*
X179700169Y-145129710D01*
X179649160Y-145381600D01*
X179649160Y-146381600D01*
X179693438Y-146616917D01*
X179832510Y-146833041D01*
X180044710Y-146978031D01*
X180296600Y-147029040D01*
X183796600Y-147029040D01*
X184031917Y-146984762D01*
X184152607Y-146907100D01*
X195577763Y-146907100D01*
X195006511Y-147020729D01*
X194520330Y-147345585D01*
X194195474Y-147831766D01*
X194081400Y-148405255D01*
X194081400Y-148774745D01*
X194195474Y-149348234D01*
X194520330Y-149834415D01*
X195006511Y-150159271D01*
X195580000Y-150273345D01*
X196153489Y-150159271D01*
X196639670Y-149834415D01*
X196850000Y-149519634D01*
X197060330Y-149834415D01*
X197546511Y-150159271D01*
X198120000Y-150273345D01*
X198500464Y-150197666D01*
X198771209Y-150468411D01*
X199017770Y-150633158D01*
X199308610Y-150691010D01*
X227106590Y-150691010D01*
X227397429Y-150633158D01*
X227643991Y-150468411D01*
X240618201Y-137494201D01*
X240671789Y-137414000D01*
X242156655Y-137414000D01*
X242270729Y-137987489D01*
X242595585Y-138473670D01*
X242910366Y-138684000D01*
X242595585Y-138894330D01*
X242270729Y-139380511D01*
X242156655Y-139954000D01*
X242270729Y-140527489D01*
X242595585Y-141013670D01*
X243081766Y-141338526D01*
X243655255Y-141452600D01*
X244024745Y-141452600D01*
X244598234Y-141338526D01*
X245084415Y-141013670D01*
X245409271Y-140527489D01*
X245523345Y-139954000D01*
X245409271Y-139380511D01*
X245084415Y-138894330D01*
X244769634Y-138684000D01*
X245084415Y-138473670D01*
X245409271Y-137987489D01*
X245523345Y-137414000D01*
X245409271Y-136840511D01*
X245084415Y-136354330D01*
X244598234Y-136029474D01*
X244024745Y-135915400D01*
X243655255Y-135915400D01*
X243081766Y-136029474D01*
X242595585Y-136354330D01*
X242270729Y-136840511D01*
X242156655Y-137414000D01*
X240671789Y-137414000D01*
X240782948Y-137247639D01*
X240840800Y-136956800D01*
X240840800Y-126339600D01*
X240834861Y-126309743D01*
X240782948Y-126048760D01*
X240618201Y-125802199D01*
X229106000Y-114289998D01*
X229106000Y-82922802D01*
X229845400Y-82183402D01*
X229847985Y-82187270D01*
X230162766Y-82397600D01*
X229847985Y-82607930D01*
X229523129Y-83094111D01*
X229409055Y-83667600D01*
X229523129Y-84241089D01*
X229847985Y-84727270D01*
X230162766Y-84937600D01*
X229847985Y-85147930D01*
X229523129Y-85634111D01*
X229409055Y-86207600D01*
X229523129Y-86781089D01*
X229847985Y-87267270D01*
X230162766Y-87477600D01*
X229847985Y-87687930D01*
X229523129Y-88174111D01*
X229409055Y-88747600D01*
X229523129Y-89321089D01*
X229847985Y-89807270D01*
X230162766Y-90017600D01*
X229847985Y-90227930D01*
X229523129Y-90714111D01*
X229409055Y-91287600D01*
X229523129Y-91861089D01*
X229847985Y-92347270D01*
X230162766Y-92557600D01*
X229847985Y-92767930D01*
X229523129Y-93254111D01*
X229409055Y-93827600D01*
X229523129Y-94401089D01*
X229847985Y-94887270D01*
X230162766Y-95097600D01*
X229847985Y-95307930D01*
X229523129Y-95794111D01*
X229409055Y-96367600D01*
X229523129Y-96941089D01*
X229847985Y-97427270D01*
X230162766Y-97637600D01*
X229847985Y-97847930D01*
X229523129Y-98334111D01*
X229409055Y-98907600D01*
X229523129Y-99481089D01*
X229847985Y-99967270D01*
X230162766Y-100177600D01*
X229847985Y-100387930D01*
X229523129Y-100874111D01*
X229409055Y-101447600D01*
X229523129Y-102021089D01*
X229847985Y-102507270D01*
X230162766Y-102717600D01*
X229847985Y-102927930D01*
X229523129Y-103414111D01*
X229409055Y-103987600D01*
X229523129Y-104561089D01*
X229847985Y-105047270D01*
X230162766Y-105257600D01*
X229847985Y-105467930D01*
X229523129Y-105954111D01*
X229409055Y-106527600D01*
X229523129Y-107101089D01*
X229847985Y-107587270D01*
X230334166Y-107912126D01*
X230907655Y-108026200D01*
X231277145Y-108026200D01*
X231850634Y-107912126D01*
X232336815Y-107587270D01*
X232661671Y-107101089D01*
X232775745Y-106527600D01*
X232661671Y-105954111D01*
X232336815Y-105467930D01*
X232022034Y-105257600D01*
X232336815Y-105047270D01*
X232661671Y-104561089D01*
X232775745Y-103987600D01*
X232661671Y-103414111D01*
X232336815Y-102927930D01*
X232022034Y-102717600D01*
X232336815Y-102507270D01*
X232661671Y-102021089D01*
X232775745Y-101447600D01*
X232661671Y-100874111D01*
X232336815Y-100387930D01*
X232022034Y-100177600D01*
X232336815Y-99967270D01*
X232661671Y-99481089D01*
X232775745Y-98907600D01*
X232661671Y-98334111D01*
X232336815Y-97847930D01*
X232022034Y-97637600D01*
X232336815Y-97427270D01*
X232661671Y-96941089D01*
X232775745Y-96367600D01*
X232661671Y-95794111D01*
X232336815Y-95307930D01*
X232022034Y-95097600D01*
X232336815Y-94887270D01*
X232661671Y-94401089D01*
X232775745Y-93827600D01*
X232661671Y-93254111D01*
X232336815Y-92767930D01*
X232022034Y-92557600D01*
X232336815Y-92347270D01*
X232661671Y-91861089D01*
X232775745Y-91287600D01*
X232661671Y-90714111D01*
X232336815Y-90227930D01*
X232022034Y-90017600D01*
X232336815Y-89807270D01*
X232661671Y-89321089D01*
X232775745Y-88747600D01*
X232661671Y-88174111D01*
X232336815Y-87687930D01*
X232022034Y-87477600D01*
X232336815Y-87267270D01*
X232661671Y-86781089D01*
X232775745Y-86207600D01*
X232661671Y-85634111D01*
X232336815Y-85147930D01*
X232022034Y-84937600D01*
X232336815Y-84727270D01*
X232537048Y-84427600D01*
X233527600Y-84427600D01*
X233818439Y-84369748D01*
X234065001Y-84205001D01*
X237274080Y-80995922D01*
X237319567Y-80995962D01*
X237663343Y-80853917D01*
X237908706Y-80608982D01*
X238493489Y-81193765D01*
X238493489Y-102235000D01*
X238571551Y-102627442D01*
X238747921Y-102891399D01*
X238793851Y-102960138D01*
X240187840Y-104354127D01*
X240273461Y-104411337D01*
X249775621Y-113913497D01*
X249729055Y-114147600D01*
X249843129Y-114721089D01*
X250167985Y-115207270D01*
X250482766Y-115417600D01*
X250167985Y-115627930D01*
X249843129Y-116114111D01*
X249729055Y-116687600D01*
X249843129Y-117261089D01*
X250167985Y-117747270D01*
X250654166Y-118072126D01*
X251227655Y-118186200D01*
X251597145Y-118186200D01*
X252170634Y-118072126D01*
X252656815Y-117747270D01*
X252981671Y-117261089D01*
X253095745Y-116687600D01*
X252981671Y-116114111D01*
X252656815Y-115627930D01*
X252342034Y-115417600D01*
X252656815Y-115207270D01*
X252981671Y-114721089D01*
X253095745Y-114147600D01*
X252981671Y-113574111D01*
X252656815Y-113087930D01*
X252342034Y-112877600D01*
X252656815Y-112667270D01*
X252981671Y-112181089D01*
X253095745Y-111607600D01*
X252981671Y-111034111D01*
X252656815Y-110547930D01*
X252347331Y-110341139D01*
X252763132Y-109969636D01*
X253017109Y-109442391D01*
X253019758Y-109426626D01*
X252898617Y-109194600D01*
X251539400Y-109194600D01*
X251539400Y-109214600D01*
X251285400Y-109214600D01*
X251285400Y-109194600D01*
X249926183Y-109194600D01*
X249805042Y-109426626D01*
X249807691Y-109442391D01*
X250061668Y-109969636D01*
X250477469Y-110341139D01*
X250167985Y-110547930D01*
X249843129Y-111034111D01*
X249835440Y-111072764D01*
X241666527Y-102903851D01*
X241647891Y-102891399D01*
X241580906Y-102846641D01*
X240544489Y-101810224D01*
X240544489Y-98787967D01*
X245241638Y-98787967D01*
X245383683Y-99131743D01*
X245424000Y-99172130D01*
X245424000Y-100025200D01*
X245481852Y-100316039D01*
X245646599Y-100562601D01*
X249608999Y-104525001D01*
X249855561Y-104689748D01*
X249940368Y-104706617D01*
X250167985Y-105047270D01*
X250482766Y-105257600D01*
X250167985Y-105467930D01*
X249843129Y-105954111D01*
X249729055Y-106527600D01*
X249843129Y-107101089D01*
X250167985Y-107587270D01*
X250477469Y-107794061D01*
X250061668Y-108165564D01*
X249807691Y-108692809D01*
X249805042Y-108708574D01*
X249926183Y-108940600D01*
X251285400Y-108940600D01*
X251285400Y-108920600D01*
X251539400Y-108920600D01*
X251539400Y-108940600D01*
X252898617Y-108940600D01*
X253019758Y-108708574D01*
X253017109Y-108692809D01*
X252763132Y-108165564D01*
X252347331Y-107794061D01*
X252656815Y-107587270D01*
X252981671Y-107101089D01*
X253095745Y-106527600D01*
X252981671Y-105954111D01*
X252656815Y-105467930D01*
X252342034Y-105257600D01*
X252656815Y-105047270D01*
X252981671Y-104561089D01*
X253095745Y-103987600D01*
X252981671Y-103414111D01*
X252656815Y-102927930D01*
X252342034Y-102717600D01*
X252656815Y-102507270D01*
X252981671Y-102021089D01*
X253095745Y-101447600D01*
X252981671Y-100874111D01*
X252656815Y-100387930D01*
X252342034Y-100177600D01*
X252656815Y-99967270D01*
X252981671Y-99481089D01*
X253095745Y-98907600D01*
X252981671Y-98334111D01*
X252656815Y-97847930D01*
X252342034Y-97637600D01*
X252656815Y-97427270D01*
X252981671Y-96941089D01*
X253095745Y-96367600D01*
X252981671Y-95794111D01*
X252656815Y-95307930D01*
X252342034Y-95097600D01*
X252656815Y-94887270D01*
X252981671Y-94401089D01*
X253095745Y-93827600D01*
X252981671Y-93254111D01*
X252656815Y-92767930D01*
X252342034Y-92557600D01*
X252656815Y-92347270D01*
X252981671Y-91861089D01*
X253095745Y-91287600D01*
X252981671Y-90714111D01*
X252656815Y-90227930D01*
X252342034Y-90017600D01*
X252656815Y-89807270D01*
X252981671Y-89321089D01*
X253095745Y-88747600D01*
X252981671Y-88174111D01*
X252656815Y-87687930D01*
X252342034Y-87477600D01*
X252656815Y-87267270D01*
X252981671Y-86781089D01*
X253095745Y-86207600D01*
X252981671Y-85634111D01*
X252656815Y-85147930D01*
X252342034Y-84937600D01*
X252656815Y-84727270D01*
X252981671Y-84241089D01*
X253095745Y-83667600D01*
X252981671Y-83094111D01*
X252656815Y-82607930D01*
X252342034Y-82397600D01*
X252656815Y-82187270D01*
X252981671Y-81701089D01*
X253095745Y-81127600D01*
X252981671Y-80554111D01*
X252656815Y-80067930D01*
X252342034Y-79857600D01*
X252656815Y-79647270D01*
X252981671Y-79161089D01*
X253095745Y-78587600D01*
X252981671Y-78014111D01*
X252656815Y-77527930D01*
X252170634Y-77203074D01*
X251597145Y-77089000D01*
X251227655Y-77089000D01*
X250654166Y-77203074D01*
X250167985Y-77527930D01*
X249843129Y-78014111D01*
X249729055Y-78587600D01*
X249843129Y-79161089D01*
X250167985Y-79647270D01*
X250482766Y-79857600D01*
X250167985Y-80067930D01*
X249843129Y-80554111D01*
X249729055Y-81127600D01*
X249843129Y-81701089D01*
X250167985Y-82187270D01*
X250482766Y-82397600D01*
X250167985Y-82607930D01*
X249843129Y-83094111D01*
X249729055Y-83667600D01*
X249843129Y-84241089D01*
X250167985Y-84727270D01*
X250482766Y-84937600D01*
X250167985Y-85147930D01*
X249843129Y-85634111D01*
X249729055Y-86207600D01*
X249843129Y-86781089D01*
X250167985Y-87267270D01*
X250482766Y-87477600D01*
X250167985Y-87687930D01*
X249843129Y-88174111D01*
X249729055Y-88747600D01*
X249843129Y-89321089D01*
X250167985Y-89807270D01*
X250482766Y-90017600D01*
X250167985Y-90227930D01*
X249843129Y-90714111D01*
X249729055Y-91287600D01*
X249843129Y-91861089D01*
X250167985Y-92347270D01*
X250482766Y-92557600D01*
X250167985Y-92767930D01*
X250165400Y-92771798D01*
X249731985Y-92338383D01*
X249753238Y-92287199D01*
X249753562Y-91915233D01*
X249611517Y-91571457D01*
X249348727Y-91308208D01*
X249005199Y-91165562D01*
X248633233Y-91165238D01*
X248289457Y-91307283D01*
X248026208Y-91570073D01*
X247883562Y-91913601D01*
X247883238Y-92285567D01*
X248025283Y-92629343D01*
X248098871Y-92703060D01*
X248116252Y-92790439D01*
X248280999Y-93037001D01*
X249608999Y-94365001D01*
X249855561Y-94529748D01*
X249940368Y-94546617D01*
X250167985Y-94887270D01*
X250482766Y-95097600D01*
X250167985Y-95307930D01*
X249843129Y-95794111D01*
X249729055Y-96367600D01*
X249843129Y-96941089D01*
X250167985Y-97427270D01*
X250482766Y-97637600D01*
X250167985Y-97847930D01*
X249843129Y-98334111D01*
X249729055Y-98907600D01*
X249843129Y-99481089D01*
X250167985Y-99967270D01*
X250482766Y-100177600D01*
X250167985Y-100387930D01*
X249843129Y-100874111D01*
X249729055Y-101447600D01*
X249843129Y-102021089D01*
X250167985Y-102507270D01*
X250482766Y-102717600D01*
X250167985Y-102927930D01*
X250165400Y-102931798D01*
X246944000Y-99710398D01*
X246944000Y-99158075D01*
X246968992Y-99133127D01*
X247111638Y-98789599D01*
X247111962Y-98417633D01*
X246969917Y-98073857D01*
X246707127Y-97810608D01*
X246363599Y-97667962D01*
X245991633Y-97667638D01*
X245647857Y-97809683D01*
X245384608Y-98072473D01*
X245241962Y-98416001D01*
X245241638Y-98787967D01*
X240544489Y-98787967D01*
X240544489Y-80768989D01*
X240466427Y-80376547D01*
X240244127Y-80043851D01*
X233135138Y-72934862D01*
X232984935Y-72834500D01*
X232802442Y-72712562D01*
X232410000Y-72634500D01*
X221750000Y-72634500D01*
X221357558Y-72712562D01*
X221024862Y-72934862D01*
X217288220Y-76671504D01*
X217085010Y-76179697D01*
X216692370Y-75786371D01*
X216484488Y-75700051D01*
X216690303Y-75615010D01*
X217083629Y-75222370D01*
X217296757Y-74709100D01*
X217297242Y-74153339D01*
X217085010Y-73639697D01*
X216692370Y-73246371D01*
X216179100Y-73033243D01*
X215623339Y-73032758D01*
X215109697Y-73244990D01*
X214716371Y-73637630D01*
X214503243Y-74150900D01*
X214502758Y-74706661D01*
X214714990Y-75220303D01*
X215107630Y-75613629D01*
X215315512Y-75699949D01*
X215109697Y-75784990D01*
X214716371Y-76177630D01*
X214503243Y-76690900D01*
X214502758Y-77246661D01*
X214714990Y-77760303D01*
X215107630Y-78153629D01*
X215315512Y-78239949D01*
X215109697Y-78324990D01*
X214716371Y-78717630D01*
X214503243Y-79230900D01*
X214502758Y-79786661D01*
X214714990Y-80300303D01*
X215107630Y-80693629D01*
X215620900Y-80906757D01*
X216176661Y-80907242D01*
X216690303Y-80695010D01*
X217083629Y-80302370D01*
X217296757Y-79789100D01*
X217296954Y-79563322D01*
X222174776Y-74685500D01*
X231985224Y-74685500D01*
X236586415Y-79286691D01*
X236342208Y-79530473D01*
X236199562Y-79874001D01*
X236199521Y-79920877D01*
X233212798Y-82907600D01*
X232537048Y-82907600D01*
X232336815Y-82607930D01*
X232022034Y-82397600D01*
X232336815Y-82187270D01*
X232661671Y-81701089D01*
X232775745Y-81127600D01*
X232661671Y-80554111D01*
X232336815Y-80067930D01*
X232022034Y-79857600D01*
X232336815Y-79647270D01*
X232661671Y-79161089D01*
X232775745Y-78587600D01*
X232661671Y-78014111D01*
X232336815Y-77527930D01*
X231850634Y-77203074D01*
X231277145Y-77089000D01*
X230907655Y-77089000D01*
X230334166Y-77203074D01*
X229847985Y-77527930D01*
X229523129Y-78014111D01*
X229409055Y-78587600D01*
X229484734Y-78968063D01*
X227275199Y-81177599D01*
X227110452Y-81424161D01*
X227052600Y-81715000D01*
X227052600Y-114909600D01*
X227110452Y-115200439D01*
X227275199Y-115447001D01*
X236719721Y-124891523D01*
X236609999Y-124845962D01*
X236563123Y-124845921D01*
X235397791Y-123680589D01*
X235151229Y-123515842D01*
X234860390Y-123457990D01*
X202172010Y-123457990D01*
X201881171Y-123515842D01*
X201780798Y-123582909D01*
X201686844Y-123582827D01*
X201343068Y-123724872D01*
X201079819Y-123987662D01*
X200937173Y-124331190D01*
X200936849Y-124703156D01*
X201078894Y-125046932D01*
X201341684Y-125310181D01*
X201685212Y-125452827D01*
X202057178Y-125453151D01*
X202400954Y-125311106D01*
X202664203Y-125048316D01*
X202693405Y-124977990D01*
X203026991Y-124977990D01*
X203026838Y-125153167D01*
X203168883Y-125496943D01*
X203431673Y-125760192D01*
X203775201Y-125902838D01*
X204147167Y-125903162D01*
X204490943Y-125761117D01*
X204524118Y-125728000D01*
X220629800Y-125728000D01*
X220513569Y-125898110D01*
X220462560Y-126150000D01*
X220462560Y-126174500D01*
X196392805Y-126174500D01*
X196392800Y-126174499D01*
X196076895Y-126237337D01*
X195809083Y-126416283D01*
X195809081Y-126416286D01*
X187973666Y-134251700D01*
X170992800Y-134251700D01*
X170676894Y-134314537D01*
X170409083Y-134493483D01*
X169139366Y-135763200D01*
X168633339Y-135762758D01*
X168119697Y-135974990D01*
X167726371Y-136367630D01*
X167513243Y-136880900D01*
X167512758Y-137436661D01*
X165289061Y-137436661D01*
X165344093Y-137160000D01*
X165231054Y-136591715D01*
X164909147Y-136109946D01*
X164427378Y-135788039D01*
X163859093Y-135675000D01*
X163800907Y-135675000D01*
X163232622Y-135788039D01*
X162750853Y-136109946D01*
X162428946Y-136591715D01*
X162315907Y-137160000D01*
X158190000Y-137160000D01*
X158190000Y-132205864D01*
X189230203Y-132156200D01*
X189279597Y-132146115D01*
X189321176Y-132117608D01*
X189348388Y-132075170D01*
X189357000Y-132029200D01*
X189357000Y-109980000D01*
X195983102Y-109980000D01*
X196273941Y-109922148D01*
X196520503Y-109757401D01*
X198454904Y-107823000D01*
X211328000Y-107823000D01*
X211377410Y-107812994D01*
X211419035Y-107784553D01*
X211446315Y-107742159D01*
X211455000Y-107696000D01*
X211455000Y-87406661D01*
X214502758Y-87406661D01*
X214714990Y-87920303D01*
X215107630Y-88313629D01*
X215315512Y-88399949D01*
X215109697Y-88484990D01*
X214716371Y-88877630D01*
X214503243Y-89390900D01*
X214502758Y-89946661D01*
X214714990Y-90460303D01*
X215107630Y-90853629D01*
X215620900Y-91066757D01*
X216176661Y-91067242D01*
X216304584Y-91014386D01*
X217504878Y-92214680D01*
X217504838Y-92260167D01*
X217646883Y-92603943D01*
X217909673Y-92867192D01*
X218253201Y-93009838D01*
X218625167Y-93010162D01*
X218968943Y-92868117D01*
X219232192Y-92605327D01*
X219374838Y-92261799D01*
X219375162Y-91889833D01*
X219233117Y-91546057D01*
X218970327Y-91282808D01*
X218626799Y-91140162D01*
X218579923Y-91140121D01*
X217296837Y-89857035D01*
X217297242Y-89393339D01*
X217085010Y-88879697D01*
X216692370Y-88486371D01*
X216484488Y-88400051D01*
X216690303Y-88315010D01*
X217083629Y-87922370D01*
X217296757Y-87409100D01*
X217297242Y-86853339D01*
X217085010Y-86339697D01*
X216692370Y-85946371D01*
X216500273Y-85866605D01*
X216631143Y-85812397D01*
X216700608Y-85570213D01*
X215900000Y-84769605D01*
X215099392Y-85570213D01*
X215168857Y-85812397D01*
X215309318Y-85862509D01*
X215109697Y-85944990D01*
X214716371Y-86337630D01*
X214503243Y-86850900D01*
X214502758Y-87406661D01*
X211455000Y-87406661D01*
X211455000Y-84382302D01*
X214490856Y-84382302D01*
X214518638Y-84937368D01*
X214677603Y-85321143D01*
X214919787Y-85390608D01*
X215720395Y-84590000D01*
X216079605Y-84590000D01*
X216880213Y-85390608D01*
X217122397Y-85321143D01*
X217309144Y-84797698D01*
X217281362Y-84242632D01*
X217122397Y-83858857D01*
X216880213Y-83789392D01*
X216079605Y-84590000D01*
X215720395Y-84590000D01*
X214919787Y-83789392D01*
X214677603Y-83858857D01*
X214490856Y-84382302D01*
X211455000Y-84382302D01*
X211455000Y-83609787D01*
X215099392Y-83609787D01*
X215900000Y-84410395D01*
X216700608Y-83609787D01*
X216631143Y-83367603D01*
X216107698Y-83180856D01*
X215552632Y-83208638D01*
X215168857Y-83367603D01*
X215099392Y-83609787D01*
X211455000Y-83609787D01*
X211455000Y-71830000D01*
X253290000Y-71830000D01*
X253290000Y-129059566D01*
M02*
