M48
;DRILL file {KiCad 4.0.6} date 06/19/17 16:27:20
;FORMAT={-:-/ absolute / inch / decimal}
FMAT,2
INCH,TZ
T1C0.016
T2C0.030
T3C0.039
T4C0.040
%
G90
G05
M72
T1
X7.51Y-3.876
X7.6186Y-3.8046
X7.81Y-4.072
X7.81Y-4.14
X7.9477Y-4.9023
X7.958Y-3.6557
X8.03Y-4.92
X8.076Y-3.78
X8.0767Y-3.9392
X8.106Y-3.696
X8.1437Y-3.274
X8.178Y-3.4083
X8.6Y-3.625
X9.118Y-5.156
X9.232Y-5.728
X9.294Y-5.72
X9.308Y-4.952
X9.336Y-3.152
X9.475Y-4.45
X9.534Y-3.022
X9.55Y-4.375
X9.575Y-4.55
X9.65Y-4.475
X9.688Y-5.04
X9.692Y-3.882
X9.696Y-3.41
X9.7Y-3.022
X9.718Y-5.244
X9.796Y-3.626
X9.856Y-3.018
T2
X6.65Y-3.
X6.65Y-3.1
X6.65Y-3.2
X6.65Y-3.6
X6.65Y-3.7
X6.65Y-3.8
X6.65Y-4.2
X6.65Y-4.3
X6.65Y-4.4
X6.65Y-4.8
X6.65Y-4.9
X6.65Y-5.
X6.65Y-5.4
X6.65Y-5.5
X6.65Y-5.6
X7.35Y-3.
X7.35Y-3.1
X7.35Y-3.2
X7.35Y-3.6
X7.35Y-3.7
X7.35Y-3.8
X7.35Y-4.2
X7.35Y-4.3
X7.35Y-4.4
X7.35Y-4.8
X7.35Y-4.9
X7.35Y-5.
X7.35Y-5.4
X7.35Y-5.5
X7.35Y-5.6
X7.8Y-2.9303
X7.8Y-3.0303
X7.8Y-3.1303
X7.8Y-3.3303
X7.8Y-3.4303
X7.8Y-3.5303
X8.4Y-5.11
X8.4Y-5.31
X8.5Y-2.9303
X8.5Y-3.0303
X8.5Y-3.1303
X8.5Y-3.3303
X8.5Y-3.4303
X8.5Y-3.5303
X9.3Y-4.61
X9.4Y-4.61
T3
X6.45Y-3.
X6.45Y-3.1
X6.45Y-3.2
X6.45Y-3.6
X6.45Y-3.7
X6.45Y-3.8
X6.45Y-4.2
X6.45Y-4.3
X6.45Y-4.4
X6.45Y-4.8
X6.45Y-4.9
X6.45Y-5.
X6.45Y-5.4
X6.45Y-5.5
X6.45Y-5.6
X8.7386Y-5.
X8.7386Y-5.1
X8.7386Y-5.2
X8.7386Y-5.3
X8.7386Y-5.4
X8.7386Y-5.5
X8.7386Y-5.6
X8.7386Y-5.7
X8.7386Y-5.8
X9.916Y-5.558
X9.916Y-5.658
X9.916Y-5.812
X9.916Y-5.912
T4
X7.7Y-5.55
X7.7Y-5.85
X7.8Y-5.55
X7.8Y-5.85
X7.9Y-5.55
X7.9Y-5.85
X8.Y-5.65
X8.Y-5.75
X8.2Y-5.41
X8.2Y-5.51
X9.0981Y-3.094
X9.0981Y-3.194
X9.0981Y-3.294
X9.0981Y-3.394
X9.0981Y-3.494
X9.0981Y-3.594
X9.0981Y-3.694
X9.0981Y-3.794
X9.0981Y-3.894
X9.0981Y-3.994
X9.0981Y-4.094
X9.0981Y-4.194
X9.6Y-5.41
X9.6Y-5.51
X9.8981Y-3.094
X9.8981Y-3.194
X9.8981Y-3.294
X9.8981Y-3.394
X9.8981Y-3.494
X9.8981Y-3.594
X9.8981Y-3.694
X9.8981Y-3.794
X9.8981Y-3.894
X9.8981Y-3.994
X9.8981Y-4.094
X9.8981Y-4.194
X9.8981Y-4.294
X9.8981Y-4.394
X9.8981Y-4.494
X9.8981Y-4.594
T0
M30
