M48
;DRILL file {KiCad 4.0.6} date 04/17/17 11:48:51
;FORMAT={-:-/ absolute / inch / decimal}
FMAT,2
INCH,TZ
T1C0.016
T2C0.030
T3C0.039
T4C0.040
%
G90
G05
M72
T1
X8.375Y-3.975
X8.375Y-4.65
X8.375Y-4.75
X8.4Y-4.
X8.6Y-3.625
X8.94Y-5.85
X8.99Y-5.85
X9.0318Y-4.625
X9.475Y-4.45
X9.48Y-3.43
X9.53Y-3.33
X9.55Y-4.375
X9.575Y-4.55
X9.64Y-3.82
X9.65Y-4.475
X9.68Y-3.85
T2
X6.65Y-3.
X6.65Y-3.1
X6.65Y-3.2
X6.65Y-3.6
X6.65Y-3.7
X6.65Y-3.8
X6.65Y-4.2
X6.65Y-4.3
X6.65Y-4.4
X6.65Y-4.8
X6.65Y-4.9
X6.65Y-5.
X6.65Y-5.4
X6.65Y-5.5
X6.65Y-5.6
X7.35Y-3.
X7.35Y-3.1
X7.35Y-3.2
X7.35Y-3.6
X7.35Y-3.7
X7.35Y-3.8
X7.35Y-4.2
X7.35Y-4.3
X7.35Y-4.4
X7.35Y-4.8
X7.35Y-4.9
X7.35Y-5.
X7.35Y-5.4
X7.35Y-5.5
X7.35Y-5.6
X7.8Y-2.95
X7.8Y-3.05
X7.8Y-3.15
X7.8Y-3.35
X7.8Y-3.45
X7.8Y-3.55
X8.4Y-5.11
X8.4Y-5.31
X8.5Y-2.95
X8.5Y-3.05
X8.5Y-3.15
X8.5Y-3.35
X8.5Y-3.45
X8.5Y-3.55
X9.3Y-4.61
X9.4Y-4.61
T3
X6.45Y-3.
X6.45Y-3.1
X6.45Y-3.2
X6.45Y-3.6
X6.45Y-3.7
X6.45Y-3.8
X6.45Y-4.2
X6.45Y-4.3
X6.45Y-4.4
X6.45Y-4.8
X6.45Y-4.9
X6.45Y-5.
X6.45Y-5.4
X6.45Y-5.5
X6.45Y-5.6
X8.74Y-5.07
X8.74Y-5.17
X8.74Y-5.4
X8.74Y-5.5
X9.9Y-5.
X9.9Y-5.1
X9.9Y-5.2
X9.9Y-5.3
X9.9Y-5.4
X9.9Y-5.5
X9.9Y-5.6
X9.9Y-5.7
X9.9Y-5.8
T4
X7.7Y-5.55
X7.7Y-5.85
X7.8Y-3.75
X7.8Y-3.85
X7.8Y-3.95
X7.8Y-4.05
X7.8Y-4.15
X7.8Y-4.25
X7.8Y-4.35
X7.8Y-4.45
X7.8Y-4.6
X7.8Y-4.7
X7.8Y-4.8
X7.8Y-4.9
X7.8Y-5.
X7.8Y-5.1
X7.8Y-5.2
X7.8Y-5.3
X7.8Y-5.55
X7.8Y-5.85
X7.9Y-5.55
X7.9Y-5.85
X8.Y-5.65
X8.Y-5.75
X8.2Y-5.41
X8.2Y-5.51
X8.5Y-3.75
X8.5Y-3.85
X8.5Y-3.95
X8.5Y-4.05
X8.5Y-4.15
X8.5Y-4.25
X8.5Y-4.35
X8.5Y-4.45
X8.5Y-4.6
X8.5Y-4.7
X8.5Y-4.8
X8.5Y-4.9
X8.5Y-5.
X8.5Y-5.1
X8.5Y-5.2
X8.5Y-5.3
X9.106Y-3.094
X9.106Y-3.194
X9.106Y-3.294
X9.106Y-3.394
X9.106Y-3.494
X9.106Y-3.594
X9.106Y-3.694
X9.106Y-3.794
X9.106Y-3.894
X9.106Y-3.994
X9.106Y-4.094
X9.106Y-4.194
X9.6Y-5.41
X9.6Y-5.51
X9.906Y-3.094
X9.906Y-3.194
X9.906Y-3.294
X9.906Y-3.394
X9.906Y-3.494
X9.906Y-3.594
X9.906Y-3.694
X9.906Y-3.794
X9.906Y-3.894
X9.906Y-3.994
X9.906Y-4.094
X9.906Y-4.194
X9.906Y-4.294
X9.906Y-4.394
X9.906Y-4.494
X9.906Y-4.594
T0
M30
