G04 #@! TF.FileFunction,Legend,Top*
%FSLAX46Y46*%
G04 Gerber Fmt 4.6, Leading zero omitted, Abs format (unit mm)*
G04 Created by KiCad (PCBNEW 4.0.6) date 04/17/17 11:48:57*
%MOMM*%
%LPD*%
G01*
G04 APERTURE LIST*
%ADD10C,0.100000*%
%ADD11C,0.300000*%
%ADD12C,0.120000*%
%ADD13C,0.150000*%
G04 APERTURE END LIST*
D10*
D11*
X188572857Y-80054285D02*
X188572857Y-79825714D01*
X188630000Y-79711428D01*
X188744286Y-79597142D01*
X188972857Y-79540000D01*
X189372857Y-79540000D01*
X189601429Y-79597142D01*
X189715714Y-79711428D01*
X189772857Y-79825714D01*
X189772857Y-80054285D01*
X189715714Y-80168571D01*
X189601429Y-80282857D01*
X189372857Y-80340000D01*
X188972857Y-80340000D01*
X188744286Y-80282857D01*
X188630000Y-80168571D01*
X188572857Y-80054285D01*
X189772857Y-78339999D02*
X189201429Y-78739999D01*
X189772857Y-79025714D02*
X188572857Y-79025714D01*
X188572857Y-78568571D01*
X188630000Y-78454285D01*
X188687143Y-78397142D01*
X188801429Y-78339999D01*
X188972857Y-78339999D01*
X189087143Y-78397142D01*
X189144286Y-78454285D01*
X189201429Y-78568571D01*
X189201429Y-79025714D01*
X189772857Y-77825714D02*
X188572857Y-77825714D01*
X188572857Y-77368571D01*
X188630000Y-77254285D01*
X188687143Y-77197142D01*
X188801429Y-77139999D01*
X188972857Y-77139999D01*
X189087143Y-77197142D01*
X189144286Y-77254285D01*
X189201429Y-77368571D01*
X189201429Y-77825714D01*
X189772857Y-94668857D02*
X188572857Y-94668857D01*
X188572857Y-94383142D01*
X188630000Y-94211714D01*
X188744286Y-94097428D01*
X188858571Y-94040285D01*
X189087143Y-93983142D01*
X189258571Y-93983142D01*
X189487143Y-94040285D01*
X189601429Y-94097428D01*
X189715714Y-94211714D01*
X189772857Y-94383142D01*
X189772857Y-94668857D01*
X188572857Y-93240285D02*
X188572857Y-93011714D01*
X188630000Y-92897428D01*
X188744286Y-92783142D01*
X188972857Y-92726000D01*
X189372857Y-92726000D01*
X189601429Y-92783142D01*
X189715714Y-92897428D01*
X189772857Y-93011714D01*
X189772857Y-93240285D01*
X189715714Y-93354571D01*
X189601429Y-93468857D01*
X189372857Y-93526000D01*
X188972857Y-93526000D01*
X188744286Y-93468857D01*
X188630000Y-93354571D01*
X188572857Y-93240285D01*
X189772857Y-109908857D02*
X188572857Y-109908857D01*
X188572857Y-109451714D01*
X188630000Y-109337428D01*
X188687143Y-109280285D01*
X188801429Y-109223142D01*
X188972857Y-109223142D01*
X189087143Y-109280285D01*
X189144286Y-109337428D01*
X189201429Y-109451714D01*
X189201429Y-109908857D01*
X189772857Y-108708857D02*
X188572857Y-108708857D01*
X189144286Y-108708857D02*
X189144286Y-108023142D01*
X189772857Y-108023142D02*
X188572857Y-108023142D01*
X189144286Y-140303143D02*
X189144286Y-139903143D01*
X189772857Y-139731714D02*
X189772857Y-140303143D01*
X188572857Y-140303143D01*
X188572857Y-139731714D01*
X189658571Y-138531714D02*
X189715714Y-138588857D01*
X189772857Y-138760286D01*
X189772857Y-138874572D01*
X189715714Y-139046000D01*
X189601429Y-139160286D01*
X189487143Y-139217429D01*
X189258571Y-139274572D01*
X189087143Y-139274572D01*
X188858571Y-139217429D01*
X188744286Y-139160286D01*
X188630000Y-139046000D01*
X188572857Y-138874572D01*
X188572857Y-138760286D01*
X188630000Y-138588857D01*
X188687143Y-138531714D01*
X188572857Y-126377428D02*
X188572857Y-125691714D01*
X189772857Y-126034571D02*
X188572857Y-126034571D01*
X189144286Y-125291714D02*
X189144286Y-124891714D01*
X189772857Y-124720285D02*
X189772857Y-125291714D01*
X188572857Y-125291714D01*
X188572857Y-124720285D01*
X189772857Y-124206000D02*
X188572857Y-124206000D01*
X189430000Y-123806000D01*
X188572857Y-123406000D01*
X189772857Y-123406000D01*
X189772857Y-122834571D02*
X188572857Y-122834571D01*
X188572857Y-122377428D01*
X188630000Y-122263142D01*
X188687143Y-122205999D01*
X188801429Y-122148856D01*
X188972857Y-122148856D01*
X189087143Y-122205999D01*
X189144286Y-122263142D01*
X189201429Y-122377428D01*
X189201429Y-122834571D01*
X248758000Y-135794858D02*
X248815143Y-135680572D01*
X248815143Y-135509143D01*
X248758000Y-135337715D01*
X248643714Y-135223429D01*
X248529429Y-135166286D01*
X248300857Y-135109143D01*
X248129429Y-135109143D01*
X247900857Y-135166286D01*
X247786571Y-135223429D01*
X247672286Y-135337715D01*
X247615143Y-135509143D01*
X247615143Y-135623429D01*
X247672286Y-135794858D01*
X247729429Y-135852001D01*
X248129429Y-135852001D01*
X248129429Y-135623429D01*
X247615143Y-136366286D02*
X248815143Y-136366286D01*
X248815143Y-136823429D01*
X248758000Y-136937715D01*
X248700857Y-136994858D01*
X248586571Y-137052001D01*
X248415143Y-137052001D01*
X248300857Y-136994858D01*
X248243714Y-136937715D01*
X248186571Y-136823429D01*
X248186571Y-136366286D01*
X247672286Y-137509143D02*
X247615143Y-137680572D01*
X247615143Y-137966286D01*
X247672286Y-138080572D01*
X247729429Y-138137715D01*
X247843714Y-138194858D01*
X247958000Y-138194858D01*
X248072286Y-138137715D01*
X248129429Y-138080572D01*
X248186571Y-137966286D01*
X248243714Y-137737715D01*
X248300857Y-137623429D01*
X248358000Y-137566286D01*
X248472286Y-137509143D01*
X248586571Y-137509143D01*
X248700857Y-137566286D01*
X248758000Y-137623429D01*
X248815143Y-137737715D01*
X248815143Y-138023429D01*
X248758000Y-138194858D01*
X219452857Y-140718856D02*
X220252857Y-140718856D01*
X218995714Y-141004570D02*
X219852857Y-141290285D01*
X219852857Y-140547427D01*
X219052857Y-140204570D02*
X219052857Y-139404570D01*
X220252857Y-139918856D01*
X219052857Y-138718856D02*
X219052857Y-138604571D01*
X219110000Y-138490285D01*
X219167143Y-138433142D01*
X219281429Y-138375999D01*
X219510000Y-138318856D01*
X219795714Y-138318856D01*
X220024286Y-138375999D01*
X220138571Y-138433142D01*
X220195714Y-138490285D01*
X220252857Y-138604571D01*
X220252857Y-138718856D01*
X220195714Y-138833142D01*
X220138571Y-138890285D01*
X220024286Y-138947428D01*
X219795714Y-139004571D01*
X219510000Y-139004571D01*
X219281429Y-138947428D01*
X219167143Y-138890285D01*
X219110000Y-138833142D01*
X219052857Y-138718856D01*
X219052857Y-137575999D02*
X219052857Y-137461714D01*
X219110000Y-137347428D01*
X219167143Y-137290285D01*
X219281429Y-137233142D01*
X219510000Y-137175999D01*
X219795714Y-137175999D01*
X220024286Y-137233142D01*
X220138571Y-137290285D01*
X220195714Y-137347428D01*
X220252857Y-137461714D01*
X220252857Y-137575999D01*
X220195714Y-137690285D01*
X220138571Y-137747428D01*
X220024286Y-137804571D01*
X219795714Y-137861714D01*
X219510000Y-137861714D01*
X219281429Y-137804571D01*
X219167143Y-137747428D01*
X219110000Y-137690285D01*
X219052857Y-137575999D01*
X219452857Y-136147428D02*
X220252857Y-136147428D01*
X219452857Y-136661714D02*
X220081429Y-136661714D01*
X220195714Y-136604571D01*
X220252857Y-136490285D01*
X220252857Y-136318857D01*
X220195714Y-136204571D01*
X220138571Y-136147428D01*
X219624286Y-135176000D02*
X219624286Y-135576000D01*
X220252857Y-135576000D02*
X219052857Y-135576000D01*
X219052857Y-135004571D01*
X220195714Y-132619429D02*
X220252857Y-132448000D01*
X220252857Y-132162286D01*
X220195714Y-132048000D01*
X220138571Y-131990857D01*
X220024286Y-131933714D01*
X219910000Y-131933714D01*
X219795714Y-131990857D01*
X219738571Y-132048000D01*
X219681429Y-132162286D01*
X219624286Y-132390857D01*
X219567143Y-132505143D01*
X219510000Y-132562286D01*
X219395714Y-132619429D01*
X219281429Y-132619429D01*
X219167143Y-132562286D01*
X219110000Y-132505143D01*
X219052857Y-132390857D01*
X219052857Y-132105143D01*
X219110000Y-131933714D01*
X219052857Y-131190857D02*
X219052857Y-130962286D01*
X219110000Y-130848000D01*
X219224286Y-130733714D01*
X219452857Y-130676572D01*
X219852857Y-130676572D01*
X220081429Y-130733714D01*
X220195714Y-130848000D01*
X220252857Y-130962286D01*
X220252857Y-131190857D01*
X220195714Y-131305143D01*
X220081429Y-131419429D01*
X219852857Y-131476572D01*
X219452857Y-131476572D01*
X219224286Y-131419429D01*
X219110000Y-131305143D01*
X219052857Y-131190857D01*
X220252857Y-129590857D02*
X220252857Y-130162286D01*
X219052857Y-130162286D01*
X219910000Y-129248000D02*
X219910000Y-128676571D01*
X220252857Y-129362285D02*
X219052857Y-128962285D01*
X220252857Y-128562285D01*
X220252857Y-127476571D02*
X219681429Y-127876571D01*
X220252857Y-128162286D02*
X219052857Y-128162286D01*
X219052857Y-127705143D01*
X219110000Y-127590857D01*
X219167143Y-127533714D01*
X219281429Y-127476571D01*
X219452857Y-127476571D01*
X219567143Y-127533714D01*
X219624286Y-127590857D01*
X219681429Y-127705143D01*
X219681429Y-128162286D01*
D12*
X165160000Y-140970000D02*
X165160000Y-135830000D01*
X165160000Y-135830000D02*
X162500000Y-135830000D01*
X162500000Y-135830000D02*
X162500000Y-140970000D01*
X162500000Y-140970000D02*
X165160000Y-140970000D01*
X165160000Y-142240000D02*
X165160000Y-143570000D01*
X165160000Y-143570000D02*
X163830000Y-143570000D01*
X165160000Y-110490000D02*
X165160000Y-105350000D01*
X165160000Y-105350000D02*
X162500000Y-105350000D01*
X162500000Y-105350000D02*
X162500000Y-110490000D01*
X162500000Y-110490000D02*
X165160000Y-110490000D01*
X165160000Y-111760000D02*
X165160000Y-113090000D01*
X165160000Y-113090000D02*
X163830000Y-113090000D01*
X165160000Y-95250000D02*
X165160000Y-90110000D01*
X165160000Y-90110000D02*
X162500000Y-90110000D01*
X162500000Y-90110000D02*
X162500000Y-95250000D01*
X162500000Y-95250000D02*
X165160000Y-95250000D01*
X165160000Y-96520000D02*
X165160000Y-97850000D01*
X165160000Y-97850000D02*
X163830000Y-97850000D01*
X165160000Y-125730000D02*
X165160000Y-120590000D01*
X165160000Y-120590000D02*
X162500000Y-120590000D01*
X162500000Y-120590000D02*
X162500000Y-125730000D01*
X162500000Y-125730000D02*
X165160000Y-125730000D01*
X165160000Y-127000000D02*
X165160000Y-128330000D01*
X165160000Y-128330000D02*
X163830000Y-128330000D01*
X165160000Y-80010000D02*
X165160000Y-74870000D01*
X165160000Y-74870000D02*
X162500000Y-74870000D01*
X162500000Y-74870000D02*
X162500000Y-80010000D01*
X162500000Y-80010000D02*
X165160000Y-80010000D01*
X165160000Y-81280000D02*
X165160000Y-82610000D01*
X165160000Y-82610000D02*
X163830000Y-82610000D01*
D13*
X195580000Y-72390000D02*
X195580000Y-92710000D01*
X218440000Y-72390000D02*
X195580000Y-72390000D01*
X218440000Y-92710000D02*
X218440000Y-72390000D01*
X195580000Y-92710000D02*
X218440000Y-92710000D01*
X252912400Y-122867600D02*
X252912400Y-72237600D01*
X229992400Y-72237600D02*
X229992400Y-122867600D01*
X252912400Y-72237600D02*
X229992400Y-72237600D01*
X229992400Y-122867600D02*
X237899067Y-122867600D01*
X237899067Y-122867600D02*
X237899067Y-122417600D01*
X237899067Y-122417600D02*
X245405733Y-122417600D01*
X245405733Y-122417600D02*
X245405733Y-122867600D01*
X245405733Y-122867600D02*
X252912400Y-122867600D01*
X195580000Y-93980000D02*
X195580000Y-114300000D01*
X218440000Y-93980000D02*
X195580000Y-93980000D01*
X218440000Y-114300000D02*
X218440000Y-93980000D01*
X195580000Y-114300000D02*
X218440000Y-114300000D01*
X187960000Y-102870000D02*
X187960000Y-115570000D01*
X167640000Y-102870000D02*
X187960000Y-102870000D01*
X167640000Y-115570000D02*
X167640000Y-102870000D01*
X187960000Y-115570000D02*
X167640000Y-115570000D01*
X187960000Y-87630000D02*
X187960000Y-100330000D01*
X167640000Y-87630000D02*
X187960000Y-87630000D01*
X167640000Y-100330000D02*
X167640000Y-87630000D01*
X187960000Y-100330000D02*
X167640000Y-100330000D01*
X187960000Y-118110000D02*
X187960000Y-130810000D01*
X167640000Y-118110000D02*
X187960000Y-118110000D01*
X167640000Y-130810000D02*
X167640000Y-118110000D01*
X187960000Y-130810000D02*
X167640000Y-130810000D01*
X187960000Y-72390000D02*
X187960000Y-85090000D01*
X167640000Y-72390000D02*
X187960000Y-72390000D01*
X167640000Y-85090000D02*
X167640000Y-72390000D01*
X187960000Y-85090000D02*
X167640000Y-85090000D01*
X215392000Y-139446000D02*
X215392000Y-150114000D01*
X190500000Y-139446000D02*
X215392000Y-139446000D01*
X190500000Y-150114000D02*
X190500000Y-139446000D01*
X215392000Y-150114000D02*
X190500000Y-150114000D01*
X195580000Y-115570000D02*
X195580000Y-135890000D01*
X218440000Y-115570000D02*
X195580000Y-115570000D01*
X218440000Y-135890000D02*
X218440000Y-115570000D01*
X195580000Y-135890000D02*
X218440000Y-135890000D01*
X187960000Y-133350000D02*
X187960000Y-146050000D01*
X167640000Y-133350000D02*
X187960000Y-133350000D01*
X167640000Y-146050000D02*
X167640000Y-133350000D01*
X187960000Y-146050000D02*
X167640000Y-146050000D01*
D12*
X250130000Y-128270000D02*
X250130000Y-148650000D01*
X250130000Y-148650000D02*
X252790000Y-148650000D01*
X252790000Y-148650000D02*
X252790000Y-128270000D01*
X252790000Y-128270000D02*
X250130000Y-128270000D01*
X250130000Y-127000000D02*
X250130000Y-125670000D01*
X250130000Y-125670000D02*
X251460000Y-125670000D01*
X223326000Y-138430000D02*
X223326000Y-135830000D01*
X223326000Y-135830000D02*
X220666000Y-135830000D01*
X220666000Y-135830000D02*
X220666000Y-138430000D01*
X220666000Y-138430000D02*
X223326000Y-138430000D01*
X223326000Y-139700000D02*
X223326000Y-141030000D01*
X223326000Y-141030000D02*
X221996000Y-141030000D01*
X220666000Y-130048000D02*
X220666000Y-132648000D01*
X220666000Y-132648000D02*
X223326000Y-132648000D01*
X223326000Y-132648000D02*
X223326000Y-130048000D01*
X223326000Y-130048000D02*
X220666000Y-130048000D01*
X220666000Y-128778000D02*
X220666000Y-127448000D01*
X220666000Y-127448000D02*
X221996000Y-127448000D01*
M02*
